<svg width="1326" height="439" viewBox="0 0 1326 439" fill="none" xmlns="http://www.w3.org/2000/svg">
<mask id="mask0" mask-type="alpha" maskUnits="userSpaceOnUse" x="-4" y="0" width="1335" height="439">
<path d="M-4 0H1331V439H-4V0Z" fill="#F9F9F9"/>
</mask>
<g mask="url(#mask0)">
<path d="M108.584 270.498C104.178 268.734 98.8097 267.679 93.4158 266.559C90.7608 265.812 88.1774 264.936 85.6781 263.936C79.2893 261.329 75.923 256.162 70.3545 252.841C70.9037 252.841 71.4527 252.835 72.0007 252.838C75.5637 252.862 79.0867 253.102 82.6306 253.225C84.3401 253.285 86.0822 253.133 87.7854 253.232C89.6008 253.338 91.0111 254.035 92.7429 254.253C97.35 254.836 102.014 255.383 106.823 254.953C112.774 254.422 118.802 252.877 124.629 251.456C125.68 251.199 127.359 248.774 125.634 248.771C118.276 248.759 110.91 248.798 103.548 248.821C98.8468 248.834 94.3496 248.704 90.1296 251.192C90.0404 251.245 89.9568 251.304 89.88 251.37C85.1475 250.451 79.8943 250.494 74.9493 250.427C72.8092 250.398 70.6632 250.402 68.516 250.43C74.4807 246.378 81.4408 244.067 88.5549 242.119C93.8996 240.656 99.2875 239.379 103.107 235.557C103.823 234.84 104.158 233.012 102.44 233.665C95.0751 236.517 87.5769 239.068 79.9757 241.308C74.3353 242.935 69.2152 245.232 66.6595 249.955C66.5677 250.116 66.5075 250.286 66.4815 250.457C63.8331 250.51 61.181 250.603 58.5253 250.737C54.554 250.939 50.579 251.231 46.6003 251.612C46.6044 251.578 46.6132 251.543 46.6152 251.508C46.6366 251.178 46.6579 250.847 46.6793 250.517C46.6917 250.327 46.7187 250.124 46.7142 249.93C49.2181 247.062 51.5377 244.47 55.1198 242.216C59.0059 239.771 63.3184 237.918 67.6079 236.085C73.5292 233.556 82.0054 230.867 84.949 225.507C85.3514 224.774 84.6943 224.227 83.8591 224.749C80.6489 226.757 76.6914 228.475 72.535 230.176C72.4226 230.221 72.31 230.268 72.1978 230.313C61.0679 234.854 48.6304 239.323 45.2478 248.877C45.1281 249.081 45.0249 249.288 44.9213 249.494C44.7212 249.64 44.5488 249.809 44.4116 249.995C44.1476 250.354 43.9863 250.749 43.9412 251.149C43.9216 251.338 43.9023 251.528 43.8829 251.717L43.8651 251.889C39.1275 252.39 34.3955 253.018 29.669 253.771C33.5743 247.368 38.4393 242 45.3694 237.397C50.7338 233.835 56.2682 230.586 59.5821 225.518C59.6883 225.357 59.7681 225.188 59.819 225.015C60.0581 224.829 60.2993 224.643 60.5336 224.455C61.6263 223.581 61.4728 221.335 59.8856 222.602C53.1793 227.959 44.9646 231.738 38.4767 237.308C33.3431 241.717 26.9902 248.25 26.3895 254.312C22.2626 255.02 18.1483 255.822 14.0467 256.718C15.2587 255.02 16.134 253.198 16.6361 251.331C17.0132 249.855 16.9479 248.382 17.2484 246.907C17.8066 244.69 18.9281 242.542 20.5377 240.606C25.6518 233.941 32.4826 228.186 37.2337 221.348C37.7273 220.638 37.5975 220.084 37.2056 219.846C36.9939 219.526 36.4905 219.472 35.812 220.051C28.2281 226.515 21.3515 233.499 15.2796 240.903C11.1584 245.935 6.65539 252.252 10.3873 257.545C5.44794 258.694 0.541653 259.977 -4.33155 261.394C-4.32543 261.307 -4.33249 261.221 -4.35258 261.137C-6.26331 253.921 -4.11118 246.139 0.764278 239.331C5.78577 232.319 10.4831 225.529 13.9437 217.989C14.056 217.768 14.1038 217.534 14.0828 217.308C14.227 216.955 14.3718 216.601 14.5061 216.245C15.0685 214.758 13.2137 214.972 12.6141 216.148C10.076 221.128 7.56114 226.021 4.16752 230.735C1.10099 234.995 -2.68235 238.934 -5.37177 243.348C-8.76581 248.916 -12.6608 257.357 -8.96066 262.785C-13.7081 264.256 -18.4094 265.851 -23.0644 267.57C-25.1973 263.559 -27.1063 259.439 -26.6492 254.755C-26.1752 249.922 -24.8412 244.473 -22.4824 239.852C-18.6145 232.263 -11.7486 225.315 -13.282 217.076C-13.2929 217.016 -13.3121 216.957 -13.3395 216.902C-13.2904 216.666 -13.2327 216.427 -13.1901 216.188C-12.9231 214.677 -14.9843 215.63 -15.2682 216.644C-18.2865 227.433 -26.4093 236.511 -31.0082 246.883C-32.7185 250.763 -33.1522 254.831 -32.2629 258.651C-31.5527 262.055 -30.4437 267.144 -26.4606 268.85C-28.9435 269.806 -31.4091 270.797 -33.8575 271.823C-44.9124 276.471 -55.5773 281.827 -65.741 287.833C-66.9934 288.571 -66.8603 290.665 -65.1111 289.635C-52.8265 282.408 -39.8087 276.15 -26.2615 270.959C-28.6462 277.41 -27.6972 283.832 -24.4399 289.531C-22.7431 292.707 -19.9794 295.353 -16.4348 297.197C-15.0429 297.891 -13.5481 298.455 -12.0747 299.044C-11.1388 299.646 -10.0953 300.135 -8.97115 300.499C-7.36306 301.45 -5.82328 302.605 -4.01753 303.039C-3.08609 303.262 -2.24822 302.161 -2.42352 301.501C-2.83598 299.943 -4.23306 298.9 -5.89653 298.093C-8.05949 296.313 -10.7359 294.898 -12.961 293.145C-15.4886 291.256 -17.7999 289.183 -19.872 286.948C-23.9104 282.345 -26.1467 276.379 -22.6296 270.449C-22.5305 270.307 -22.4655 270.153 -22.4385 269.996C-22.4114 269.839 -22.423 269.684 -22.4723 269.538C-17.6963 267.786 -12.8668 266.167 -7.98395 264.682C-8.08797 264.851 -8.15034 265.033 -8.16716 265.214C-8.17028 265.286 -8.17166 265.36 -8.17464 265.432C-8.24475 265.539 -8.30081 265.651 -8.34178 265.766C-10.7383 272.832 -10.584 278.244 -5.68629 283.868C-3.27204 286.516 -0.511015 288.928 2.55586 291.069C3.29316 291.609 3.95681 292.15 4.56783 292.704C4.69047 292.823 4.81517 292.939 4.93805 293.056C6.61952 294.687 8.04341 296.492 9.18193 298.437C9.87768 299.571 11.7172 297.351 11.7052 296.705C11.6595 294.179 10.0797 292.137 8.01134 290.321C4.92169 287.115 1.34201 284.221 -1.04637 280.583C-3.92238 275.986 -5.45708 270.811 -5.54358 265.42L-5.45223 265.137C-5.28596 264.625 -5.35475 264.322 -5.55779 264.176C-5.55743 264.131 -5.55904 264.085 -5.55803 264.039C-5.55808 264.01 -5.56404 263.991 -5.56564 263.964C-0.315905 262.417 4.97733 261.026 10.3141 259.792C10.1567 260.033 9.99991 260.275 9.84363 260.517C9.69866 260.732 9.60957 260.965 9.58259 261.2C9.22781 261.481 8.96788 261.83 8.83357 262.207C7.91708 265.168 7.79352 268.183 8.47173 271.036C9.14993 273.89 10.6132 276.512 12.7569 278.715C15.2222 281.187 18.4646 282.486 22.0017 283.793C23.7953 284.371 25.3877 285.251 26.6862 286.381C26.698 286.396 26.7109 286.41 26.7225 286.427C26.799 286.528 26.8941 286.618 27.0051 286.693C27.1135 286.804 27.2236 286.91 27.3293 287.028C28.5082 288.351 29.0196 289.34 31.2937 289.305C32.6693 289.284 34.1091 287.482 33.3307 286.561C32.3699 285.428 31.4693 284.259 30.4173 283.21C28.8569 279.186 23.4737 276.359 19.7154 273.834C14.3346 270.219 11.6699 265.331 12.9971 259.188C17.058 258.292 21.1351 257.489 25.2282 256.779C24.2767 258.446 24.2947 260.266 24.8834 262.072C25.1499 266.209 26.8384 270.07 29.7596 273.221C35.8415 279.766 47.3933 282.277 56.4326 285.502C57.8273 285.999 59.7446 283.404 58.3812 282.877L58.0564 282.751C53.311 278.034 46.1904 276.048 40.0776 272.736C36.9561 271.042 34.2571 268.906 32.0883 266.413C30.535 264.748 29.2258 262.929 28.1832 260.989C28.164 259.426 28.3602 257.869 28.435 256.242C33.6445 255.402 38.8658 254.716 44.0988 254.185C43.8932 254.375 43.757 254.606 43.7083 254.846C43.1196 258.151 43.1396 261.29 45.2973 263.969C47.8748 267.17 52.3397 269.26 56.5255 270.879C61.2553 272.71 66.3169 273.995 71.2282 275.524C76.1395 277.054 80.4295 279.098 84.8435 281.255C84.8683 281.3 84.8984 281.341 84.9226 281.387C84.9439 281.452 84.9813 281.51 85.0326 281.56C85.084 281.61 85.1483 281.649 85.2217 281.676C85.2951 281.704 85.3762 281.718 85.4601 281.718C85.5441 281.718 85.6292 281.705 85.7104 281.678L85.9986 281.819C86.6999 282.162 87.6841 280.849 87.2419 280.41C87.1324 280.301 87.0098 280.204 86.897 280.098C86.8934 280.079 86.8885 280.061 86.8822 280.043C83.4249 273.103 73.0097 271.479 65.2098 268.852C56.1083 265.786 47.7422 262.644 46.037 253.996C49.0176 253.716 51.9973 253.485 54.9763 253.303C58.7735 253.076 62.5647 252.936 66.3499 252.883C66.1323 253.076 65.9666 253.303 65.8655 253.546C65.7644 253.788 65.7307 254.041 65.767 254.283C68.7338 262.831 77.7296 265.922 87.4466 268.156C93.623 270.177 100.375 271.437 106.722 273.022C108.078 273.352 109.924 271.031 108.584 270.498ZM-27.9734 264.469C-27.9648 264.501 -27.9483 264.531 -27.9365 264.562C-27.9571 264.532 -27.9784 264.503 -27.9991 264.472L-27.9734 264.469ZM-15.8874 224.605C-15.9278 224.6 -15.969 224.597 -16.0106 224.597C-15.9081 224.382 -15.8027 224.167 -15.704 223.951C-15.762 224.169 -15.8208 224.388 -15.8874 224.605ZM19.3237 238.763L19.3164 238.763L19.3705 238.702L19.3237 238.763ZM14.2446 249.065C14.2052 249.067 14.1658 249.071 14.1264 249.076C14.1878 248.878 14.2497 248.679 14.3231 248.483C14.2952 248.678 14.269 248.872 14.2446 249.065Z" fill="#E8E5DE"/>
<path d="M77.0006 408.31C76.6455 414.254 73.6148 420.278 67.9341 424.719C61.8096 429.505 53.5607 432.225 45.4091 433.069C24.2345 435.261 6.17188 426.241 -10.6977 418.524C-28.7232 410.278 -45.6457 400.69 -61.2675 389.871C-63.6332 388.23 -74.5983 383.467 -70.8312 380.159C-69.1498 378.683 -63.209 378.369 -60.9146 377.953C-57.1244 377.263 -53.3243 376.644 -49.5144 376.096C-31.2374 373.429 -12.8432 372.443 5.30383 373.158C19.441 373.752 33.6594 374.981 46.4573 379.076C57.6567 382.66 69.0387 388.495 74.3764 397.412C76.3424 400.74 77.242 404.476 77.0006 408.31V408.31Z" fill="#E8E5DE"/>
<path d="M66.6356 391.172C62.9227 394.321 58.7985 397.14 54.3497 399.569C49.534 402.126 44.4769 403.548 39.3253 405.371C38.7427 405.176 38.1608 404.981 37.5797 404.789C33.5465 403.449 29.4678 402.186 25.3438 401.002C29.388 399.447 33.3074 396.771 36.3746 394.579C41.0704 391.248 45.2724 387.486 48.8783 383.386C49.1513 383.073 48.837 382.049 48.2574 382.435C43.6812 385.479 39.6649 389.037 35.1424 392.138C33.0355 393.605 30.8175 394.962 28.5046 396.198C26.0263 397.501 23.2951 398.382 20.8049 399.63C20.7447 399.589 20.6695 399.565 20.5883 399.559C20.507 399.553 20.4232 399.567 20.3467 399.598C15.073 398.151 9.75324 396.793 4.38736 395.524C4.1752 395.474 3.96172 395.427 3.74957 395.377C12.866 391.154 20.0367 384.624 26.9362 378.234C27.4818 377.729 26.6967 376.199 25.9916 376.79C17.9952 383.488 9.86141 390.05 -0.331466 394.43C-6.02055 393.114 -11.7335 391.848 -17.4704 390.632C-9.13555 387.068 -1.45217 382.331 4.3947 376.245C4.74096 375.885 4.2873 374.732 3.69491 375.174C-4.06815 380.976 -12.19 386.109 -21.676 389.743C-25.9128 388.857 -30.1569 387.987 -34.4083 387.134C-28.7 384.663 -23.6907 380.702 -19.7762 376.673C-19.163 376.043 -20.0353 374.454 -20.9344 375.278C-26.1521 380.058 -32.2128 383.077 -38.8216 386.25C-42.1191 385.593 -45.4179 384.939 -48.7183 384.288C-47.4674 383.646 -46.2671 382.891 -45.2768 382.291C-42.9906 380.894 -41.0272 379.174 -39.4988 377.229C-39.1488 376.79 -39.7057 375.664 -40.2973 376.268C-42.19 378.101 -44.4374 379.682 -46.9372 380.94C-48.6333 381.856 -50.699 382.536 -52.3086 383.58L-52.4768 383.547C-52.7646 383.277 -53.0524 383.259 -53.2888 383.387C-58.563 382.349 -63.8338 381.307 -69.1012 380.26C-70.0144 380.078 -69.879 381.709 -69.075 381.887C-63.9105 383.032 -58.7304 384.143 -53.5346 385.221C-52.1603 388.159 -52.3028 391.708 -51.9784 394.879C-51.8775 395.87 -50.2872 396.321 -50.3504 395.023C-50.4948 392.141 -50.0818 388.575 -51.1762 385.718C-47.696 386.444 -44.2128 387.164 -40.7265 387.879C-40.7008 387.913 -40.6706 387.946 -40.6365 387.975C-36.5894 391.449 -36.9221 396.359 -36.4017 401.006C-36.3309 401.64 -35.3011 401.928 -35.3584 401.099C-35.6575 396.858 -35.1138 391.925 -37.9982 388.443L-37.9889 388.441C-33.2919 389.406 -28.5968 390.376 -23.9036 391.353C-21.2437 397.823 -20.1134 404.484 -19.4056 411.392C-19.3131 412.292 -17.9241 412.724 -17.9194 411.523C-17.899 404.94 -19.48 398.487 -21.7349 392.338C-21.4372 392.227 -21.1401 392.113 -20.8438 391.999C-14.3086 393.376 -7.79596 394.802 -1.30589 396.276C-1.28292 396.352 -1.24996 396.424 -1.20755 396.492C3.85359 404.168 5.95056 413.057 4.84016 422.131C4.74364 423.017 6.24117 424.171 6.50523 422.791C8.13668 413.661 6.30646 404.618 1.25757 396.862C1.73185 396.972 2.20633 397.077 2.68271 397.187C8.48248 398.545 14.237 399.999 19.9463 401.549C20.0761 401.799 20.3132 401.997 20.618 402.111C23.261 406.179 25.5744 410.164 26.869 414.792C28.1149 419.464 28.629 424.297 28.3997 429.184C28.3817 429.656 29.2496 430.116 29.3579 429.414C30.7805 420.232 28.7261 410.207 23.1448 402.445C27.6788 403.728 32.1654 405.095 36.6045 406.547C37.3001 406.776 37.9851 407.017 38.6744 407.252C44.204 413.838 48.1288 421.281 50.2656 429.232C50.4163 429.766 51.0881 429.603 50.9929 429.062C49.6122 421.533 46.3568 414.445 41.414 408.205C50.2133 411.354 58.5838 414.985 67.0726 418.627C67.8159 418.946 67.8929 417.713 67.4779 417.455C60.1666 412.913 51.5202 409.552 42.8666 406.572C52.1855 404.325 61.578 398.447 67.5257 392.531C68.0009 392.06 67.3223 390.606 66.6356 391.172Z" fill="#F2F0EB"/>
<path d="M44.2929 47.4193C44.5906 43.6933 44.2559 39.7957 43.3052 35.9176C42.0108 31.0232 39.5734 26.3561 36.2665 22.4402C32.5799 33.3246 27.4549 43.2764 21.033 52.021C29.0203 51.2373 36.4307 48.619 44.2929 47.4193Z" fill="#E8E5DE"/>
<path d="M4.41304 68.9844C13.1884 72.3229 22.0804 74.509 30.8923 75.4943C33.809 72.5423 36.3771 69.1895 38.5553 65.4896C41.3956 60.796 43.2763 55.336 44.0953 49.4057C35.969 50.7051 28.3039 53.4677 19.9499 54.0547C19.8156 54.0659 19.6733 54.033 19.5392 53.96C19.2195 54.3764 18.9102 54.7996 18.5821 55.208C14.3789 60.4147 9.63294 65.0291 4.41304 68.9844V68.9844Z" fill="#E8E5DE"/>
<path d="M8.39554 89.3802C16.1394 86.7981 23.168 82.6648 29.1911 77.1508C20.4262 76.0588 11.5933 73.7543 2.89503 70.2903C2.83352 70.2775 2.77212 70.2567 2.71207 70.2284C-3.61799 74.7643 -10.6586 78.1671 -18.2166 80.3434C-13.6303 84.9943 -8.38937 88.5052 -3.31221 92.316C0.698534 91.6472 4.60966 90.6665 8.39554 89.3802V89.3802Z" fill="#E8E5DE"/>
<path d="M19.4248 50.9338C25.956 42.0649 31.1501 31.9501 34.8591 20.8772C32.9346 18.7815 30.7201 17.0714 28.3529 15.8533C25.9857 14.6351 23.5164 13.9349 21.0981 13.7959C15.014 13.562 10.232 17.0198 5.64403 21.3127C11.459 30.5875 15.1614 40.9169 19.4248 50.9338Z" fill="#E8E5DE"/>
<path d="M-4.28345 31.2288C-6.18566 33.1706 -8.0969 35.1223 -10.038 37.0621C-4.80959 46.9069 -0.0688649 56.9685 3.1917 67.486C8.85364 63.174 13.949 58.0797 18.3895 52.2915C18.2622 52.1765 18.1584 52.0307 18.0891 51.8696C13.8368 41.9369 10.1949 31.6692 4.46479 22.4361C4.18909 22.711 3.90765 22.9776 3.62886 23.2519C0.95654 25.8786 -1.70788 28.5985 -4.28345 31.2288Z" fill="#E8E5DE"/>
<path d="M-18.4493 78.4713C-18.3154 78.4326 -18.1802 78.3978 -18.0479 78.3564C-10.8736 76.1879 -4.1926 72.8755 1.81886 68.5065C-1.36897 58.0273 -6.04141 48.0216 -11.219 38.2312C-14.8701 41.8431 -18.6186 45.3867 -22.5557 48.6777C-20.2452 58.6329 -18.8684 68.6219 -18.4493 78.4713V78.4713Z" fill="#E8E5DE"/>
<path d="M33.6882 119.404C31.9473 119.72 30.1965 120.03 28.4358 120.337C26.3285 126.127 24.7884 132.289 22.0386 137.638C27.5952 137.494 33.0387 136.832 38.3157 135.659C40.4805 129.883 43.2646 123.865 44.8242 117.526C43.948 117.639 43.0684 117.771 42.1846 117.915C39.3374 118.381 36.4631 118.898 33.6882 119.404Z" fill="#E8E5DE"/>
<path d="M-21.0281 125.231C-15.3053 128.747 -9.37409 131.6 -3.34571 133.736C-0.977694 129.748 1.79832 126.151 4.56008 122.539C2.37446 122.47 0.171341 122.309 -2.05271 122.024C-6.12952 121.495 -10.2244 120.695 -14.3153 119.627C-16.5093 121.551 -18.9735 123.132 -21.0281 125.231Z" fill="#E8E5DE"/>
<path d="M26.3455 120.696C20.034 121.848 13.5656 122.478 6.98751 122.581C4.0729 126.418 1.08777 130.184 -1.47174 134.359C1.13244 135.193 3.74733 135.863 6.35952 136.363C10.9061 137.212 15.4311 137.645 19.8884 137.657C22.8173 132.536 24.3542 126.461 26.3455 120.696Z" fill="#E8E5DE"/>
<path d="M64.6956 128.509C57.2503 132.102 49.4258 134.935 41.2994 136.981C47.6706 142.543 53.6829 148.603 59.6495 154.734C63.9534 151.449 66.787 147.102 67.7905 142.094C69.2556 134.791 66.0816 124.084 58.4034 119.519C54.6433 117.284 50.7268 116.978 46.713 117.326C45.3072 123.559 42.7032 129.454 40.4959 135.159C48.6302 133.111 56.4605 130.27 63.9085 126.666C64.8387 126.226 65.6143 128.075 64.6956 128.509Z" fill="#E8E5DE"/>
<path d="M54.4793 157.835C55.8146 157.218 57.0978 156.501 58.3217 155.687C52.2445 149.308 45.9279 143.235 39.3991 137.494C39.2596 137.564 39.0958 137.582 38.9282 137.544C33.8803 138.661 28.6836 139.323 23.3826 139.522C28.7259 146.501 33.4719 153.929 38.2667 161.324C44.0081 161.284 49.4935 160.104 54.4793 157.835V157.835Z" fill="#E8E5DE"/>
<path d="M21.8973 140.205C21.8222 140.113 21.7619 140.009 21.7199 139.898C21.6779 139.786 21.6551 139.672 21.6529 139.56C16.5909 139.64 11.437 139.19 6.25549 138.215C3.83086 137.746 1.40397 137.134 -1.01485 136.383C1.19641 142.059 3.73562 147.634 6.58411 153.065C12.3212 155.956 18.2041 158.159 24.1196 159.633C28.223 160.641 32.3233 161.204 36.3608 161.314C31.8198 154.075 26.9924 147.029 21.8973 140.205V140.205Z" fill="#E8E5DE"/>
<path d="M-2.81591 136.174C-2.86612 136.04 -2.8932 135.901 -2.89548 135.766C-8.69676 133.777 -14.4154 131.123 -19.9526 127.851C-17.7028 132.416 -15.2015 136.85 -12.6924 141.282C-10.7232 142.705 -8.70664 144.091 -6.64266 145.441C-3.10136 147.756 0.507797 149.887 4.17073 151.827C1.54484 146.727 -0.789767 141.496 -2.81591 136.174V136.174Z" fill="#E8E5DE"/>
<path d="M95.5993 66.199C95.5702 62.3659 94.7429 58.4096 93.1808 54.6334C90.6923 48.7993 87.2619 44.6935 83.3364 42.7651C82.2697 51.4645 79.8737 59.6095 76.2439 66.8756C82.7689 67.0231 89.1683 66.5457 95.5993 66.199Z" fill="#E8E5DE"/>
<path d="M93.7015 78.5262C94.7917 75.2842 95.4238 71.7856 95.5786 68.1357C89.0034 68.4969 82.4609 68.9811 75.7704 68.7733C75.6626 68.7673 75.5526 68.7388 75.4459 68.6893C75.3814 68.826 75.283 68.9346 75.1599 69.005C72.5675 73.7739 69.4615 78.1072 65.8945 81.9313C72.68 85.1119 79.3336 88.8459 86.052 92.3137C89.4117 88.434 92.001 83.7671 93.7015 78.5262V78.5262Z" fill="#E8E5DE"/>
<path d="M84.846 93.6318C78.1494 90.1538 71.5122 86.4371 64.7339 83.3023C64.6229 83.4835 64.4497 83.6016 64.2443 83.6365C63.9617 83.9153 63.6855 84.2021 63.3965 84.473C59.4073 88.1791 54.872 91.1527 49.912 93.3142C55.751 97.0466 61.7268 100.391 67.6122 103.996C74.1712 102.042 80.032 98.5174 84.846 93.6318V93.6318Z" fill="#E8E5DE"/>
<path d="M48.0642 94.1233C44.3456 95.683 40.4693 96.95 36.5352 98.1028C39.6526 101.369 42.9914 104.342 46.5037 106.981C53.0068 107.001 59.3475 106.218 65.4157 104.646C59.6247 101.152 53.7737 97.8478 48.0642 94.1233Z" fill="#E8E5DE"/>
<path d="M34.8094 98.6011C28.8168 100.308 22.7323 101.826 16.9136 103.8C25.9494 105.659 34.9565 106.715 43.8478 106.958C40.6548 104.46 37.6276 101.661 34.8094 98.6011V98.6011Z" fill="#E8E5DE"/>
<path d="M74.5916 66.1281C78.2224 58.8926 80.6095 50.7695 81.6559 42.0896C81.2945 41.9735 80.9307 41.8693 80.5627 41.7895C75.1333 40.6013 69.5471 43.5659 65.8955 49.3981C69.0641 54.8382 71.9681 60.4251 74.5916 66.1281V66.1281Z" fill="#E8E5DE"/>
<path d="M64.1241 81.0046C67.826 77.1745 71.0236 72.7763 73.6534 67.8973C71.0415 62.1326 68.1478 56.4813 64.988 50.9742C64.9453 51.0592 64.8937 51.1447 64.8477 51.2304C63.4117 54.2548 62.1842 57.4295 61.1736 60.7326C60.2719 63.4496 59.3434 66.225 58.1712 68.7876C60.3024 72.7967 62.2938 76.8642 64.1241 81.0046Z" fill="#E8E5DE"/>
<path d="M48.2807 91.8961C52.6268 90.0434 56.6634 87.5857 60.3124 84.5708C61.2066 83.8144 62.0665 83.0162 62.9108 82.1991C61.1844 78.2525 59.3178 74.3676 57.311 70.5444C57.0395 71.055 56.7587 71.5593 56.4578 72.0416C54.0647 75.6309 51.1872 78.7472 47.8991 81.3106C48.4061 84.8963 48.5342 88.4499 48.2807 91.8961V91.8961Z" fill="#E8E5DE"/>
<path d="M33.7244 96.8922C33.9089 95.1294 34.1144 93.3742 34.2923 91.6094C28.2566 95.4965 21.9177 98.8814 15.3152 101.743C15.1991 101.795 15.1017 101.88 15.0312 101.992C14.9607 102.104 14.9192 102.239 14.91 102.386C20.994 100.243 27.4075 98.6696 33.7244 96.8922Z" fill="#E8E5DE"/>
<path d="M36.1545 90.3547C35.9842 92.3707 35.7529 94.3672 35.5348 96.3689C39.2432 95.2915 42.9056 94.122 46.4268 92.6865C46.4168 92.6009 46.4172 92.5167 46.4279 92.436C46.8908 89.2715 46.8721 85.9373 46.3728 82.5606C45.4705 83.2856 44.5625 84.0023 43.659 84.7094C42.9795 85.2411 42.3058 85.7671 41.6435 86.2936C39.8671 87.7065 38.0453 89.0537 36.1545 90.3547Z" fill="#E8E5DE"/>
<path d="M1221.29 270.498C1225.7 268.734 1231.07 267.679 1236.46 266.559C1239.12 265.812 1241.7 264.936 1244.2 263.936C1250.59 261.329 1253.95 256.162 1259.52 252.841C1258.97 252.841 1258.42 252.835 1257.88 252.838C1254.31 252.862 1250.79 253.102 1247.25 253.225C1245.54 253.285 1243.79 253.133 1242.09 253.232C1240.28 253.338 1238.86 254.035 1237.13 254.253C1232.53 254.836 1227.86 255.383 1223.05 254.953C1217.1 254.422 1211.07 252.877 1205.25 251.456C1204.2 251.199 1202.52 248.774 1204.24 248.771C1211.6 248.759 1218.97 248.798 1226.33 248.821C1231.03 248.834 1235.53 248.704 1239.75 251.192C1239.84 251.245 1239.92 251.304 1240 251.37C1244.73 250.451 1249.98 250.494 1254.93 250.427C1257.07 250.398 1259.21 250.402 1261.36 250.43C1255.4 246.378 1248.44 244.067 1241.32 242.119C1235.98 240.656 1230.59 239.379 1226.77 235.557C1226.05 234.84 1225.72 233.012 1227.44 233.665C1234.8 236.517 1242.3 239.068 1249.9 241.308C1255.54 242.935 1260.66 245.232 1263.22 249.955C1263.31 250.116 1263.37 250.286 1263.39 250.457C1266.04 250.51 1268.69 250.603 1271.35 250.737C1275.32 250.939 1279.3 251.231 1283.28 251.612C1283.27 251.578 1283.26 251.543 1283.26 251.508C1283.24 251.178 1283.22 250.847 1283.2 250.517C1283.18 250.327 1283.16 250.124 1283.16 249.93C1280.66 247.062 1278.34 244.47 1274.76 242.216C1270.87 239.771 1266.56 237.918 1262.27 236.085C1256.35 233.556 1247.87 230.867 1244.93 225.507C1244.52 224.774 1245.18 224.227 1246.02 224.749C1249.23 226.757 1253.18 228.475 1257.34 230.176C1257.45 230.221 1257.57 230.268 1257.68 230.313C1268.81 234.854 1281.25 239.323 1284.63 248.877C1284.75 249.081 1284.85 249.288 1284.95 249.494C1285.15 249.64 1285.33 249.809 1285.46 249.995C1285.73 250.354 1285.89 250.749 1285.93 251.149C1285.95 251.338 1285.97 251.528 1285.99 251.717L1286.01 251.889C1290.75 252.39 1295.48 253.018 1300.21 253.771C1296.3 247.368 1291.44 242 1284.51 237.397C1279.14 233.835 1273.61 230.586 1270.29 225.518C1270.19 225.357 1270.11 225.188 1270.06 225.015C1269.82 224.829 1269.58 224.643 1269.34 224.455C1268.25 223.581 1268.4 221.335 1269.99 222.602C1276.7 227.959 1284.91 231.738 1291.4 237.308C1296.53 241.717 1302.89 248.25 1303.49 254.312C1307.61 255.02 1311.73 255.822 1315.83 256.718C1314.62 255.02 1313.74 253.198 1313.24 251.331C1312.86 249.855 1312.93 248.382 1312.63 246.907C1312.07 244.69 1310.95 242.542 1309.34 240.606C1304.22 233.941 1297.39 228.186 1292.64 221.348C1292.15 220.638 1292.28 220.084 1292.67 219.846C1292.88 219.526 1293.39 219.472 1294.06 220.051C1301.65 226.515 1308.52 233.499 1314.6 240.903C1318.72 245.935 1323.22 252.252 1319.49 257.545C1324.43 258.694 1329.33 259.977 1334.21 261.394C1334.2 261.307 1334.21 261.221 1334.23 261.137C1336.14 253.921 1333.99 246.139 1329.11 239.331C1324.09 232.319 1319.39 225.529 1315.93 217.989C1315.82 217.768 1315.77 217.534 1315.79 217.308C1315.65 216.955 1315.5 216.601 1315.37 216.245C1314.81 214.758 1316.66 214.972 1317.26 216.148C1319.8 221.128 1322.31 226.021 1325.71 230.735C1328.77 234.995 1332.56 238.934 1335.25 243.348C1338.64 248.916 1342.54 257.357 1338.84 262.785C1343.58 264.256 1348.29 265.851 1352.94 267.57C1355.07 263.559 1356.98 259.439 1356.53 254.755C1356.05 249.922 1354.72 244.473 1352.36 239.852C1348.49 232.263 1341.62 225.315 1343.16 217.076C1343.17 217.016 1343.19 216.957 1343.22 216.902C1343.17 216.666 1343.11 216.427 1343.07 216.188C1342.8 214.677 1344.86 215.63 1345.14 216.644C1348.16 227.433 1356.29 236.511 1360.88 246.883C1362.59 250.763 1363.03 254.831 1362.14 258.651C1361.43 262.055 1360.32 267.144 1356.34 268.85C1358.82 269.806 1361.29 270.797 1363.73 271.823C1374.79 276.471 1385.45 281.827 1395.62 287.833C1396.87 288.571 1396.74 290.665 1394.99 289.635C1382.7 282.408 1369.68 276.15 1356.14 270.959C1358.52 277.41 1357.57 283.832 1354.32 289.531C1352.62 292.707 1349.86 295.353 1346.31 297.197C1344.92 297.891 1343.42 298.455 1341.95 299.044C1341.01 299.646 1339.97 300.135 1338.85 300.499C1337.24 301.45 1335.7 302.605 1333.89 303.039C1332.96 303.262 1332.12 302.161 1332.3 301.501C1332.71 299.943 1334.11 298.9 1335.77 298.093C1337.94 296.313 1340.61 294.898 1342.84 293.145C1345.36 291.256 1347.68 289.183 1349.75 286.948C1353.79 282.345 1356.02 276.379 1352.51 270.449C1352.41 270.307 1352.34 270.153 1352.31 269.996C1352.29 269.839 1352.3 269.684 1352.35 269.538C1347.57 267.786 1342.74 266.167 1337.86 264.682C1337.96 264.851 1338.03 265.033 1338.04 265.214C1338.05 265.286 1338.05 265.36 1338.05 265.432C1338.12 265.539 1338.18 265.651 1338.22 265.766C1340.61 272.832 1340.46 278.244 1335.56 283.868C1333.15 286.516 1330.39 288.928 1327.32 291.069C1326.58 291.609 1325.92 292.15 1325.31 292.704C1325.19 292.823 1325.06 292.939 1324.94 293.056C1323.26 294.687 1321.83 296.492 1320.69 298.437C1320 299.571 1318.16 297.351 1318.17 296.705C1318.22 294.179 1319.8 292.137 1321.86 290.321C1324.95 287.115 1328.53 284.221 1330.92 280.583C1333.8 275.986 1335.33 270.811 1335.42 265.42L1335.33 265.137C1335.16 264.625 1335.23 264.322 1335.43 264.176C1335.43 264.131 1335.44 264.085 1335.43 264.039C1335.43 264.01 1335.44 263.991 1335.44 263.964C1330.19 262.417 1324.9 261.026 1319.56 259.792C1319.72 260.033 1319.88 260.275 1320.03 260.517C1320.18 260.732 1320.27 260.965 1320.29 261.2C1320.65 261.481 1320.91 261.83 1321.04 262.207C1321.96 265.168 1322.08 268.183 1321.4 271.036C1320.73 273.89 1319.26 276.512 1317.12 278.715C1314.65 281.187 1311.41 282.486 1307.87 283.793C1306.08 284.371 1304.49 285.251 1303.19 286.381C1303.18 286.396 1303.17 286.41 1303.15 286.427C1303.08 286.528 1302.98 286.618 1302.87 286.693C1302.76 286.804 1302.65 286.91 1302.55 287.028C1301.37 288.351 1300.86 289.34 1298.58 289.305C1297.21 289.284 1295.77 287.482 1296.55 286.561C1297.51 285.428 1298.41 284.259 1299.46 283.21C1301.02 279.186 1306.4 276.359 1310.16 273.834C1315.54 270.219 1318.21 265.331 1316.88 259.188C1312.82 258.292 1308.74 257.489 1304.65 256.779C1305.6 258.446 1305.58 260.266 1304.99 262.072C1304.73 266.209 1303.04 270.07 1300.12 273.221C1294.03 279.766 1282.48 282.277 1273.44 285.502C1272.05 285.999 1270.13 283.404 1271.49 282.877L1271.82 282.751C1276.57 278.034 1283.69 276.048 1289.8 272.736C1292.92 271.042 1295.62 268.906 1297.79 266.413C1299.34 264.748 1300.65 262.929 1301.69 260.989C1301.71 259.426 1301.52 257.869 1301.44 256.242C1296.23 255.402 1291.01 254.716 1285.78 254.185C1285.98 254.375 1286.12 254.606 1286.17 254.846C1286.76 258.151 1286.74 261.29 1284.58 263.969C1282 267.17 1277.54 269.26 1273.35 270.879C1268.62 272.71 1263.56 273.995 1258.65 275.524C1253.74 277.054 1249.45 279.098 1245.03 281.255C1245.01 281.3 1244.98 281.341 1244.95 281.387C1244.93 281.452 1244.89 281.51 1244.84 281.56C1244.79 281.61 1244.73 281.649 1244.65 281.676C1244.58 281.704 1244.5 281.718 1244.42 281.718C1244.33 281.718 1244.25 281.705 1244.17 281.678L1243.88 281.819C1243.18 282.162 1242.19 280.849 1242.63 280.41C1242.74 280.301 1242.87 280.204 1242.98 280.098C1242.98 280.079 1242.99 280.061 1242.99 280.043C1246.45 273.103 1256.87 271.479 1264.67 268.852C1273.77 265.786 1282.13 262.644 1283.84 253.996C1280.86 253.716 1277.88 253.485 1274.9 253.303C1271.1 253.076 1267.31 252.936 1263.53 252.883C1263.74 253.076 1263.91 253.303 1264.01 253.546C1264.11 253.788 1264.15 254.041 1264.11 254.283C1261.14 262.831 1252.15 265.922 1242.43 268.156C1236.25 270.177 1229.5 271.437 1223.15 273.022C1221.8 273.352 1219.95 271.031 1221.29 270.498ZM1357.85 264.469C1357.84 264.501 1357.82 264.531 1357.81 264.562C1357.83 264.532 1357.85 264.503 1357.88 264.472L1357.85 264.469ZM1345.76 224.605C1345.8 224.6 1345.84 224.597 1345.89 224.597C1345.78 224.382 1345.68 224.167 1345.58 223.951C1345.64 224.169 1345.7 224.388 1345.76 224.605ZM1310.55 238.763L1310.56 238.763L1310.51 238.702L1310.55 238.763ZM1315.63 249.065C1315.67 249.067 1315.71 249.071 1315.75 249.076C1315.69 248.878 1315.63 248.679 1315.55 248.483C1315.58 248.678 1315.61 248.872 1315.63 249.065Z" fill="#E8E5DE"/>
<path d="M1252.88 408.31C1253.23 414.254 1256.26 420.278 1261.94 424.719C1268.07 429.505 1276.32 432.225 1284.47 433.069C1305.64 435.261 1323.7 426.241 1340.57 418.524C1358.6 410.278 1375.52 400.69 1391.14 389.871C1393.51 388.23 1404.47 383.467 1400.71 380.159C1399.03 378.683 1393.08 378.369 1390.79 377.953C1387 377.263 1383.2 376.644 1379.39 376.096C1361.11 373.429 1342.72 372.443 1324.57 373.158C1310.43 373.752 1296.22 374.981 1283.42 379.076C1272.22 382.66 1260.84 388.495 1255.5 397.412C1253.53 400.74 1252.63 404.476 1252.88 408.31V408.31Z" fill="#E8E5DE"/>
<path d="M1263.24 391.172C1266.95 394.321 1271.08 397.14 1275.53 399.569C1280.34 402.126 1285.4 403.548 1290.55 405.371C1291.13 405.176 1291.72 404.981 1292.3 404.789C1296.33 403.449 1300.41 402.186 1304.53 401.002C1300.49 399.447 1296.57 396.771 1293.5 394.579C1288.81 391.248 1284.6 387.486 1281 383.386C1280.72 383.073 1281.04 382.049 1281.62 382.435C1286.19 385.479 1290.21 389.037 1294.73 392.138C1296.84 393.605 1299.06 394.962 1301.37 396.198C1303.85 397.501 1306.58 398.382 1309.07 399.63C1309.13 399.589 1309.21 399.565 1309.29 399.559C1309.37 399.553 1309.45 399.567 1309.53 399.598C1314.8 398.151 1320.12 396.793 1325.49 395.524C1325.7 395.474 1325.91 395.427 1326.13 395.377C1317.01 391.154 1309.84 384.624 1302.94 378.234C1302.39 377.729 1303.18 376.199 1303.88 376.79C1311.88 383.488 1320.01 390.05 1330.21 394.43C1335.9 393.114 1341.61 391.848 1347.35 390.632C1339.01 387.068 1331.33 382.331 1325.48 376.245C1325.14 375.885 1325.59 374.732 1326.18 375.174C1333.94 380.976 1342.07 386.109 1351.55 389.743C1355.79 388.857 1360.03 387.987 1364.28 387.134C1358.58 384.663 1353.57 380.702 1349.65 376.673C1349.04 376.043 1349.91 374.454 1350.81 375.278C1356.03 380.058 1362.09 383.077 1368.7 386.25C1372 385.593 1375.29 384.939 1378.59 384.288C1377.34 383.646 1376.14 382.891 1375.15 382.291C1372.87 380.894 1370.9 379.174 1369.37 377.229C1369.02 376.79 1369.58 375.664 1370.17 376.268C1372.07 378.101 1374.31 379.682 1376.81 380.94C1378.51 381.856 1380.57 382.536 1382.18 383.58L1382.35 383.547C1382.64 383.277 1382.93 383.259 1383.16 383.387C1388.44 382.349 1393.71 381.307 1398.98 380.26C1399.89 380.078 1399.75 381.709 1398.95 381.887C1393.79 383.032 1388.61 384.143 1383.41 385.221C1382.04 388.159 1382.18 391.708 1381.85 394.879C1381.75 395.87 1380.16 396.321 1380.23 395.023C1380.37 392.141 1379.96 388.575 1381.05 385.718C1377.57 386.444 1374.09 387.164 1370.6 387.879C1370.58 387.913 1370.55 387.946 1370.51 387.975C1366.47 391.449 1366.8 396.359 1366.28 401.006C1366.21 401.64 1365.18 401.928 1365.23 401.099C1365.53 396.858 1364.99 391.925 1367.87 388.443L1367.86 388.441C1363.17 389.406 1358.47 390.376 1353.78 391.353C1351.12 397.823 1349.99 404.484 1349.28 411.392C1349.19 412.292 1347.8 412.724 1347.8 411.523C1347.77 404.94 1349.36 398.487 1351.61 392.338C1351.31 392.227 1351.02 392.113 1350.72 391.999C1344.18 393.376 1337.67 394.802 1331.18 396.276C1331.16 396.352 1331.13 396.424 1331.08 396.492C1326.02 404.168 1323.93 413.057 1325.04 422.131C1325.13 423.017 1323.63 424.171 1323.37 422.791C1321.74 413.661 1323.57 404.618 1328.62 396.862C1328.14 396.972 1327.67 397.077 1327.19 397.187C1321.39 398.545 1315.64 399.999 1309.93 401.549C1309.8 401.799 1309.56 401.997 1309.26 402.111C1306.61 406.179 1304.3 410.164 1303.01 414.792C1301.76 419.464 1301.25 424.297 1301.48 429.184C1301.49 429.656 1300.63 430.116 1300.52 429.414C1299.1 420.232 1301.15 410.207 1306.73 402.445C1302.2 403.728 1297.71 405.095 1293.27 406.547C1292.58 406.776 1291.89 407.017 1291.2 407.252C1285.67 413.838 1281.75 421.281 1279.61 429.232C1279.46 429.766 1278.79 429.603 1278.88 429.062C1280.26 421.533 1283.52 414.445 1288.46 408.205C1279.66 411.354 1271.29 414.985 1262.8 418.627C1262.06 418.946 1261.98 417.713 1262.4 417.455C1269.71 412.913 1278.36 409.552 1287.01 406.572C1277.69 404.325 1268.3 398.447 1262.35 392.531C1261.88 392.06 1262.55 390.606 1263.24 391.172Z" fill="#F2F0EB"/>
<path d="M1285.58 136.829C1285.29 140.555 1285.62 144.452 1286.57 148.33C1287.86 153.225 1290.3 157.892 1293.61 161.808C1297.3 150.923 1302.42 140.972 1308.84 132.227C1300.86 133.011 1293.45 135.629 1285.58 136.829Z" fill="#E8E5DE"/>
<path d="M1325.46 115.264C1316.69 111.925 1307.8 109.739 1298.98 108.754C1296.07 111.706 1293.5 115.058 1291.32 118.758C1288.48 123.452 1286.6 128.912 1285.78 134.842C1293.91 133.543 1301.57 130.78 1309.93 130.193C1310.06 130.182 1310.2 130.215 1310.34 130.288C1310.66 129.872 1310.97 129.448 1311.29 129.04C1315.5 123.833 1320.24 119.219 1325.46 115.264V115.264Z" fill="#E8E5DE"/>
<path d="M1321.48 94.8678C1313.74 97.4499 1306.71 101.583 1300.68 107.097C1309.45 108.189 1318.28 110.494 1326.98 113.958C1327.04 113.971 1327.1 113.991 1327.16 114.02C1333.49 109.484 1340.53 106.081 1348.09 103.905C1343.51 99.2536 1338.27 95.7428 1333.19 91.932C1329.18 92.6008 1325.27 93.5815 1321.48 94.8678V94.8678Z" fill="#E8E5DE"/>
<path d="M1310.45 133.314C1303.92 142.183 1298.73 152.298 1295.02 163.371C1296.94 165.467 1299.16 167.177 1301.52 168.395C1303.89 169.613 1306.36 170.313 1308.78 170.452C1314.86 170.686 1319.64 167.228 1324.23 162.935C1318.42 153.661 1314.71 143.331 1310.45 133.314Z" fill="#E8E5DE"/>
<path d="M1334.16 153.019C1336.06 151.077 1337.97 149.126 1339.91 147.186C1334.69 137.341 1329.94 127.279 1326.68 116.762C1321.02 121.074 1315.93 126.168 1311.49 131.956C1311.61 132.072 1311.72 132.217 1311.79 132.378C1316.04 142.311 1319.68 152.579 1325.41 161.812C1325.69 161.537 1325.97 161.27 1326.25 160.996C1328.92 158.369 1331.58 155.65 1334.16 153.019Z" fill="#E8E5DE"/>
<path d="M1348.33 105.777C1348.19 105.815 1348.06 105.85 1347.92 105.892C1340.75 108.06 1334.07 111.373 1328.06 115.742C1331.24 126.221 1335.92 136.226 1341.09 146.017C1344.75 142.405 1348.49 138.861 1352.43 135.57C1350.12 125.615 1348.74 115.626 1348.33 105.777V105.777Z" fill="#E8E5DE"/>
<path d="M1296.19 64.8435C1297.93 64.5284 1299.68 64.2176 1301.44 63.9112C1303.55 58.121 1305.09 51.9592 1307.84 46.61C1302.28 46.7541 1296.84 47.4158 1291.56 48.5886C1289.4 54.3654 1286.61 60.3825 1285.05 66.7217C1285.93 66.6089 1286.81 66.4766 1287.69 66.3327C1290.54 65.8671 1293.41 65.3499 1296.19 64.8435Z" fill="#E8E5DE"/>
<path d="M1350.9 59.0167C1345.18 55.5006 1339.25 52.6481 1333.22 50.5124C1330.85 54.4998 1328.08 58.097 1325.32 61.7093C1327.5 61.7779 1329.7 61.9386 1331.93 62.2244C1336.01 62.7529 1340.1 63.5531 1344.19 64.6209C1346.39 62.6971 1348.85 61.116 1350.9 59.0167Z" fill="#E8E5DE"/>
<path d="M1303.53 63.5524C1309.84 62.4002 1316.31 61.7703 1322.89 61.6673C1325.8 57.83 1328.79 54.0635 1331.35 49.8892C1328.74 49.0548 1326.13 48.3854 1323.52 47.8845C1318.97 47.0356 1314.44 46.6029 1309.99 46.5909C1307.06 51.712 1305.52 57.7872 1303.53 63.5524Z" fill="#E8E5DE"/>
<path d="M1265.18 55.7386C1272.63 52.1462 1280.45 49.3128 1288.58 47.2666C1282.21 41.7054 1276.19 35.6448 1270.23 29.5138C1265.92 32.7985 1263.09 37.1457 1262.09 42.1541C1260.62 49.4566 1263.79 60.1645 1271.47 64.7294C1275.23 66.9644 1279.15 67.2704 1283.16 66.9221C1284.57 60.6889 1287.17 54.794 1289.38 49.0892C1281.25 51.1372 1273.42 53.9777 1265.97 57.5822C1265.04 58.0224 1264.26 56.1733 1265.18 55.7386Z" fill="#E8E5DE"/>
<path d="M1275.4 26.4126C1274.06 27.0299 1272.78 27.7472 1271.55 28.5605C1277.63 34.9396 1283.95 41.0128 1290.48 46.7541C1290.62 46.6838 1290.78 46.6663 1290.95 46.7037C1296 45.5867 1301.19 44.9254 1306.49 44.7257C1301.15 37.7467 1296.4 30.3195 1291.61 22.9238C1285.87 22.964 1280.38 24.1444 1275.4 26.4126V26.4126Z" fill="#E8E5DE"/>
<path d="M1307.98 44.0425C1308.05 44.1347 1308.11 44.2395 1308.16 44.3505C1308.2 44.4615 1308.22 44.5765 1308.22 44.6884C1313.29 44.6078 1318.44 45.058 1323.62 46.0333C1326.05 46.5022 1328.47 47.1136 1330.89 47.8648C1328.68 42.1885 1326.14 36.6142 1323.29 31.1829C1317.55 28.2922 1311.67 26.0889 1305.76 24.6154C1301.65 23.607 1297.55 23.0437 1293.52 22.9337C1298.06 30.1731 1302.88 37.2186 1307.98 44.0425V44.0425Z" fill="#E8E5DE"/>
<path d="M1332.69 48.0744C1332.74 48.2083 1332.77 48.3469 1332.77 48.4817C1338.57 50.4713 1344.29 53.1249 1349.83 56.3968C1347.58 51.8322 1345.08 47.3984 1342.57 42.9655C1340.6 41.5433 1338.58 40.1572 1336.52 38.8073C1332.98 36.4923 1329.37 34.3609 1325.71 32.4213C1328.33 37.5214 1330.67 42.7519 1332.69 48.0744V48.0744Z" fill="#E8E5DE"/>
<path d="M1234.28 118.049C1234.31 121.882 1235.13 125.838 1236.69 129.615C1239.18 135.449 1242.61 139.555 1246.54 141.483C1247.61 132.783 1250 124.639 1253.63 117.372C1247.11 117.225 1240.71 117.702 1234.28 118.049Z" fill="#E8E5DE"/>
<path d="M1236.17 105.722C1235.08 108.964 1234.45 112.462 1234.3 116.112C1240.87 115.751 1247.41 115.267 1254.11 115.475C1254.21 115.481 1254.32 115.509 1254.43 115.559C1254.49 115.422 1254.59 115.313 1254.72 115.243C1257.31 110.474 1260.41 106.141 1263.98 102.317C1257.2 99.1361 1250.54 95.4021 1243.82 91.9343C1240.46 95.8139 1237.87 100.481 1236.17 105.722V105.722Z" fill="#E8E5DE"/>
<path d="M1245.03 90.6162C1251.73 94.0942 1258.36 97.8109 1265.14 100.946C1265.25 100.764 1265.43 100.646 1265.63 100.611C1265.91 100.333 1266.19 100.046 1266.48 99.775C1270.47 96.0689 1275 93.0953 1279.96 90.9338C1274.12 87.2014 1268.15 83.8568 1262.26 80.2522C1255.7 82.206 1249.84 85.7305 1245.03 90.6162V90.6162Z" fill="#E8E5DE"/>
<path d="M1281.81 90.1246C1285.53 88.5649 1289.41 87.2979 1293.34 86.1451C1290.22 82.8793 1286.88 79.9055 1283.37 77.2665C1276.87 77.247 1270.53 78.0302 1264.46 79.6024C1270.25 83.0964 1276.1 86.4002 1281.81 90.1246Z" fill="#E8E5DE"/>
<path d="M1295.07 85.6469C1301.06 83.9399 1307.14 82.4218 1312.96 80.4479C1303.93 78.5892 1294.92 77.5332 1286.03 77.2899C1289.22 79.788 1292.25 82.587 1295.07 85.6469V85.6469Z" fill="#E8E5DE"/>
<path d="M1255.28 118.12C1251.65 125.355 1249.27 133.478 1248.22 142.158C1248.58 142.274 1248.95 142.379 1249.31 142.458C1254.74 143.647 1260.33 140.682 1263.98 134.85C1260.81 129.41 1257.91 123.823 1255.28 118.12V118.12Z" fill="#E8E5DE"/>
<path d="M1265.75 103.243C1262.05 107.073 1258.85 111.472 1256.22 116.351C1258.83 122.115 1261.73 127.767 1264.89 133.274C1264.93 133.189 1264.98 133.103 1265.03 133.018C1266.46 129.993 1267.69 126.818 1268.7 123.515C1269.6 120.798 1270.53 118.023 1271.7 115.46C1269.57 111.451 1267.58 107.384 1265.75 103.243Z" fill="#E8E5DE"/>
<path d="M1281.59 92.3519C1277.25 94.2046 1273.21 96.6622 1269.56 99.6772C1268.67 100.434 1267.81 101.232 1266.96 102.049C1268.69 105.995 1270.56 109.88 1272.56 113.704C1272.84 113.193 1273.12 112.689 1273.42 112.206C1275.81 108.617 1278.69 105.501 1281.98 102.937C1281.47 99.3516 1281.34 95.7981 1281.59 92.3519V92.3519Z" fill="#E8E5DE"/>
<path d="M1296.15 87.3558C1295.97 89.1186 1295.76 90.8738 1295.58 92.6386C1301.62 88.7515 1307.96 85.3666 1314.56 82.505C1314.68 82.4531 1314.77 82.3677 1314.84 82.2557C1314.91 82.1438 1314.96 82.0087 1314.97 81.8616C1308.88 84.0045 1302.47 85.5784 1296.15 87.3558Z" fill="#E8E5DE"/>
<path d="M1293.72 93.8933C1293.89 91.8773 1294.12 89.8808 1294.34 87.879C1290.63 88.9565 1286.97 90.1259 1283.45 91.5615C1283.46 91.647 1283.46 91.7313 1283.45 91.8119C1282.98 94.9764 1283 98.3107 1283.5 101.687C1284.41 100.962 1285.31 100.246 1286.22 99.5386C1286.9 99.0069 1287.57 98.4808 1288.23 97.9544C1290.01 96.5415 1291.83 95.1943 1293.72 93.8933Z" fill="#E8E5DE"/>
</g>
</svg>
