<svg width="1326" height="439" viewBox="0 0 1326 439" fill="none" xmlns="http://www.w3.org/2000/svg">
<mask id="mask0" mask-type="alpha" maskUnits="userSpaceOnUse" x="-5" y="0" width="1335" height="439">
<path d="M-5 0H1330V439H-5V0Z" fill="#F9F9F9"/>
</mask>
<g mask="url(#mask0)">
<path d="M107.584 270.498C103.178 268.734 97.8097 267.679 92.4158 266.559C89.7608 265.812 87.1774 264.936 84.6781 263.936C78.2893 261.329 74.923 256.162 69.3545 252.841C69.9037 252.841 70.4527 252.835 71.0007 252.838C74.5637 252.862 78.0867 253.102 81.6306 253.225C83.3401 253.285 85.0822 253.133 86.7855 253.232C88.6008 253.338 90.0111 254.035 91.7429 254.253C96.35 254.836 101.014 255.383 105.823 254.953C111.774 254.422 117.802 252.877 123.629 251.456C124.68 251.199 126.359 248.774 124.634 248.771C117.276 248.759 109.91 248.798 102.548 248.821C97.8468 248.834 93.3496 248.704 89.1296 251.192C89.0404 251.245 88.9568 251.304 88.88 251.37C84.1475 250.451 78.8944 250.494 73.9493 250.427C71.8092 250.398 69.6632 250.402 67.516 250.43C73.4807 246.378 80.4408 244.067 87.5549 242.119C92.8996 240.656 98.2875 239.379 102.107 235.557C102.823 234.84 103.158 233.012 101.44 233.665C94.0751 236.517 86.5769 239.068 78.9757 241.308C73.3353 242.935 68.2152 245.232 65.6595 249.955C65.5677 250.116 65.5076 250.286 65.4815 250.457C62.8331 250.51 60.181 250.603 57.5253 250.737C53.554 250.939 49.579 251.231 45.6003 251.612C45.6044 251.578 45.6132 251.543 45.6152 251.508C45.6366 251.178 45.6579 250.847 45.6793 250.517C45.6917 250.327 45.7187 250.124 45.7142 249.93C48.2181 247.062 50.5377 244.47 54.1198 242.216C58.0059 239.771 62.3184 237.918 66.6079 236.085C72.5292 233.556 81.0054 230.867 83.949 225.507C84.3514 224.774 83.6943 224.227 82.8591 224.749C79.6489 226.757 75.6914 228.475 71.535 230.176C71.4226 230.221 71.31 230.268 71.1978 230.313C60.0679 234.854 47.6304 239.323 44.2478 248.877C44.1281 249.081 44.0249 249.288 43.9213 249.494C43.7212 249.64 43.5488 249.809 43.4116 249.995C43.1476 250.354 42.9863 250.749 42.9412 251.149C42.9216 251.338 42.9023 251.528 42.8829 251.717L42.8651 251.889C38.1275 252.39 33.3955 253.018 28.669 253.771C32.5743 247.368 37.4393 242 44.3694 237.397C49.7338 233.835 55.2682 230.586 58.5821 225.518C58.6883 225.357 58.7681 225.188 58.819 225.015C59.0581 224.829 59.2993 224.643 59.5336 224.455C60.6263 223.581 60.4728 221.335 58.8856 222.602C52.1793 227.959 43.9646 231.738 37.4767 237.308C32.3431 241.717 25.9902 248.25 25.3895 254.312C21.2626 255.02 17.1483 255.822 13.0467 256.718C14.2587 255.02 15.134 253.198 15.6361 251.331C16.0132 249.855 15.9479 248.382 16.2484 246.907C16.8066 244.69 17.9281 242.542 19.5377 240.606C24.6518 233.941 31.4825 228.186 36.2337 221.348C36.7273 220.638 36.5975 220.084 36.2056 219.846C35.9939 219.526 35.4905 219.472 34.812 220.051C27.2281 226.515 20.3515 233.499 14.2796 240.903C10.1584 245.935 5.65539 252.252 9.38732 257.545C4.44794 258.694 -0.45835 259.977 -5.33155 261.394C-5.32542 261.307 -5.33249 261.221 -5.35258 261.137C-7.26331 253.921 -5.11117 246.139 -0.235723 239.331C4.78576 232.319 9.48307 225.529 12.9437 217.989C13.056 217.768 13.1038 217.534 13.0828 217.308C13.227 216.955 13.3718 216.601 13.5061 216.245C14.0685 214.758 12.2137 214.972 11.6141 216.148C9.07604 221.128 6.56114 226.021 3.16752 230.735C0.100989 234.995 -3.68234 238.934 -6.37176 243.348C-9.7658 248.916 -13.6608 257.357 -9.96066 262.785C-14.7081 264.256 -19.4094 265.851 -24.0644 267.57C-26.1973 263.559 -28.1063 259.439 -27.6492 254.755C-27.1752 249.922 -25.8412 244.473 -23.4824 239.852C-19.6145 232.263 -12.7486 225.315 -14.282 217.076C-14.2928 217.016 -14.3121 216.957 -14.3395 216.902C-14.2904 216.666 -14.2327 216.427 -14.1901 216.188C-13.9231 214.677 -15.9843 215.63 -16.2682 216.644C-19.2865 227.433 -27.4093 236.511 -32.0082 246.883C-33.7185 250.763 -34.1522 254.831 -33.2629 258.651C-32.5527 262.055 -31.4437 267.144 -27.4606 268.85C-29.9435 269.806 -32.4091 270.797 -34.8575 271.823C-45.9124 276.471 -56.5773 281.827 -66.741 287.833C-67.9934 288.571 -67.8603 290.665 -66.1111 289.635C-53.8265 282.408 -40.8087 276.15 -27.2615 270.959C-29.6462 277.41 -28.6972 283.832 -25.4399 289.531C-23.7431 292.707 -20.9794 295.353 -17.4348 297.197C-16.0429 297.891 -14.5481 298.455 -13.0747 299.044C-12.1388 299.646 -11.0953 300.135 -9.97115 300.499C-8.36307 301.45 -6.82328 302.605 -5.01753 303.039C-4.08608 303.262 -3.24822 302.161 -3.42352 301.501C-3.83598 299.943 -5.23306 298.9 -6.89653 298.093C-9.05949 296.313 -11.7359 294.898 -13.961 293.145C-16.4886 291.256 -18.7999 289.183 -20.872 286.948C-24.9104 282.345 -27.1467 276.379 -23.6296 270.449C-23.5305 270.307 -23.4655 270.153 -23.4385 269.996C-23.4114 269.839 -23.423 269.684 -23.4723 269.538C-18.6963 267.786 -13.8668 266.167 -8.98395 264.682C-9.08797 264.851 -9.15034 265.033 -9.16716 265.214C-9.17028 265.286 -9.17166 265.36 -9.17464 265.432C-9.24476 265.539 -9.30082 265.651 -9.34178 265.766C-11.7383 272.832 -11.584 278.244 -6.68629 283.868C-4.27204 286.516 -1.51101 288.928 1.55586 291.069C2.29316 291.609 2.95681 292.15 3.56783 292.704C3.69047 292.823 3.81517 292.939 3.93805 293.056C5.61952 294.687 7.04341 296.492 8.18194 298.437C8.87768 299.571 10.7172 297.351 10.7052 296.705C10.6595 294.179 9.0797 292.137 7.01134 290.321C3.92169 287.115 0.342003 284.221 -2.04637 280.583C-4.92238 275.986 -6.45708 270.811 -6.54358 265.42L-6.45223 265.137C-6.28596 264.625 -6.35476 264.322 -6.55779 264.176C-6.55743 264.131 -6.55905 264.085 -6.55803 264.039C-6.55808 264.01 -6.56404 263.991 -6.56564 263.964C-1.3159 262.417 3.97733 261.026 9.31406 259.792C9.15672 260.033 8.99991 260.275 8.84363 260.517C8.69867 260.732 8.60957 260.965 8.58259 261.2C8.22782 261.481 7.96787 261.83 7.83357 262.207C6.91708 265.168 6.79352 268.183 7.47173 271.036C8.14993 273.89 9.61316 276.512 11.7569 278.715C14.2222 281.187 17.4646 282.486 21.0017 283.793C22.7953 284.371 24.3877 285.251 25.6862 286.381C25.698 286.396 25.7109 286.41 25.7225 286.427C25.799 286.528 25.8941 286.618 26.0051 286.693C26.1135 286.804 26.2236 286.91 26.3293 287.028C27.5082 288.351 28.0196 289.34 30.2937 289.305C31.6693 289.284 33.1091 287.482 32.3307 286.561C31.3699 285.428 30.4693 284.259 29.4173 283.21C27.8569 279.186 22.4737 276.359 18.7154 273.834C13.3346 270.219 10.6699 265.331 11.9971 259.188C16.058 258.292 20.1351 257.489 24.2282 256.779C23.2767 258.446 23.2947 260.266 23.8834 262.072C24.1499 266.209 25.8384 270.07 28.7596 273.221C34.8415 279.766 46.3933 282.277 55.4326 285.502C56.8273 285.999 58.7446 283.404 57.3812 282.877L57.0564 282.751C52.311 278.034 45.1905 276.048 39.0776 272.736C35.9561 271.042 33.2571 268.906 31.0883 266.413C29.535 264.748 28.2258 262.929 27.1832 260.989C27.164 259.426 27.3602 257.869 27.435 256.242C32.6445 255.402 37.8658 254.716 43.0988 254.185C42.8932 254.375 42.757 254.606 42.7083 254.846C42.1196 258.151 42.1396 261.29 44.2973 263.969C46.8748 267.17 51.3397 269.26 55.5255 270.879C60.2553 272.71 65.3169 273.995 70.2282 275.524C75.1396 277.054 79.4295 279.098 83.8435 281.255C83.8683 281.3 83.8983 281.341 83.9226 281.387C83.9439 281.452 83.9813 281.51 84.0326 281.56C84.084 281.61 84.1483 281.649 84.2217 281.676C84.2951 281.704 84.3762 281.718 84.4601 281.718C84.5441 281.718 84.6292 281.705 84.7104 281.678L84.9986 281.819C85.6999 282.162 86.6841 280.849 86.2419 280.41C86.1324 280.301 86.0099 280.204 85.897 280.098C85.8934 280.079 85.8885 280.061 85.8822 280.043C82.4249 273.103 72.0097 271.479 64.2098 268.852C55.1083 265.786 46.7422 262.644 45.037 253.996C48.0176 253.716 50.9973 253.485 53.9763 253.303C57.7735 253.076 61.5647 252.936 65.3499 252.883C65.1323 253.076 64.9666 253.303 64.8655 253.546C64.7644 253.788 64.7307 254.041 64.767 254.283C67.7338 262.831 76.7296 265.922 86.4466 268.156C92.623 270.177 99.3747 271.437 105.722 273.022C107.078 273.352 108.924 271.031 107.584 270.498ZM-28.9734 264.469C-28.9648 264.501 -28.9483 264.531 -28.9365 264.562C-28.9571 264.532 -28.9784 264.503 -28.9991 264.472L-28.9734 264.469ZM-16.8874 224.605C-16.9278 224.6 -16.969 224.597 -17.0106 224.597C-16.9081 224.382 -16.8027 224.167 -16.704 223.951C-16.7621 224.169 -16.8208 224.388 -16.8874 224.605ZM18.3237 238.763L18.3164 238.763L18.3705 238.702L18.3237 238.763ZM13.2446 249.065C13.2052 249.067 13.1658 249.071 13.1264 249.076C13.1878 248.878 13.2497 248.679 13.3231 248.483C13.2952 248.678 13.269 248.872 13.2446 249.065Z" fill="#F2F0EB"/>
<path d="M76.0006 408.31C75.6455 414.254 72.6148 420.278 66.9341 424.719C60.8096 429.505 52.5607 432.225 44.4091 433.068C23.2345 435.261 5.17189 426.24 -11.6977 418.524C-29.7232 410.278 -46.6457 400.69 -62.2675 389.871C-64.6332 388.23 -75.5983 383.467 -71.8312 380.159C-70.1498 378.683 -64.209 378.369 -61.9146 377.953C-58.1244 377.263 -54.3243 376.644 -50.5144 376.096C-32.2374 373.429 -13.8432 372.443 4.30383 373.158C18.441 373.752 32.6594 374.98 45.4573 379.076C56.6567 382.66 68.0387 388.495 73.3763 397.412C75.3424 400.74 76.2421 404.476 76.0006 408.31Z" fill="#F2F0EB"/>
<path d="M65.6357 391.172C61.9228 394.321 57.7986 397.14 53.3498 399.569C48.5342 402.126 43.477 403.548 38.3254 405.371C37.7428 405.175 37.161 404.981 36.5799 404.789C32.5466 403.449 28.468 402.186 24.3439 401.001C28.3881 399.447 32.3075 396.771 35.3747 394.579C40.0705 391.248 44.2725 387.486 47.8784 383.386C48.1514 383.073 47.8371 382.049 47.2575 382.435C42.6813 385.479 38.665 389.037 34.1425 392.138C32.0356 393.605 29.8176 394.962 27.5047 396.198C25.0264 397.501 22.2952 398.382 19.805 399.63C19.7448 399.589 19.6696 399.565 19.5884 399.559C19.5072 399.553 19.4233 399.567 19.3468 399.598C14.0731 398.151 8.75337 396.793 3.38748 395.524C3.17533 395.474 2.96185 395.427 2.74969 395.377C11.8661 391.154 19.0368 384.624 25.9364 378.234C26.482 377.729 25.6968 376.199 24.9918 376.79C16.9954 383.488 8.86153 390.05 -1.33134 394.43C-7.02043 393.114 -12.7334 391.848 -18.4703 390.632C-10.1354 387.067 -2.45205 382.331 3.39483 376.245C3.74108 375.885 3.28741 374.732 2.69503 375.174C-5.06802 380.976 -13.1899 386.109 -22.6758 389.743C-26.9126 388.857 -31.1567 387.987 -35.4081 387.134C-29.6998 384.663 -24.6906 380.702 -20.776 376.673C-20.1629 376.043 -21.0351 374.453 -21.9343 375.278C-27.152 380.058 -33.2127 383.077 -39.8215 386.25C-43.1189 385.593 -46.4178 384.939 -49.7181 384.288C-48.4673 383.646 -47.267 382.891 -46.2767 382.29C-43.9905 380.894 -42.0271 379.174 -40.4987 377.229C-40.1487 376.79 -40.7056 375.664 -41.2972 376.268C-43.1899 378.1 -45.4373 379.682 -47.9371 380.94C-49.6332 381.856 -51.6989 382.536 -53.3085 383.58L-53.4767 383.547C-53.7645 383.277 -54.0523 383.259 -54.2886 383.387C-59.5629 382.349 -64.8337 381.307 -70.1011 380.26C-71.0143 380.078 -70.8789 381.709 -70.0748 381.887C-64.9104 383.032 -59.7303 384.143 -54.5345 385.221C-53.1602 388.159 -53.3027 391.708 -52.9782 394.879C-52.8774 395.87 -51.2871 396.321 -51.3503 395.023C-51.4947 392.141 -51.0817 388.575 -52.1761 385.718C-48.6959 386.444 -45.2127 387.164 -41.7264 387.879C-41.7007 387.913 -41.6705 387.946 -41.6364 387.975C-37.5893 391.449 -37.9219 396.359 -37.4016 401.006C-37.3308 401.64 -36.301 401.928 -36.3582 401.099C-36.6573 396.858 -36.1137 391.925 -38.998 388.443L-38.9887 388.441C-34.2917 389.406 -29.5966 390.376 -24.9034 391.353C-22.2436 397.823 -21.1132 404.484 -20.4055 411.392C-20.313 412.292 -18.924 412.724 -18.9192 411.523C-18.8989 404.94 -20.4799 398.486 -22.7347 392.338C-22.4371 392.227 -22.14 392.113 -21.8437 391.999C-15.3085 393.376 -8.79584 394.802 -2.30576 396.276C-2.2828 396.351 -2.24984 396.424 -2.20743 396.492C2.85372 404.167 4.95068 413.057 3.84029 422.131C3.74376 423.017 5.24129 424.171 5.50535 422.791C7.13679 413.661 5.30659 404.617 0.257696 396.862C0.731972 396.972 1.20646 397.077 1.68284 397.187C7.4826 398.545 13.2371 399.999 18.9464 401.549C19.0763 401.799 19.3133 401.997 19.6182 402.111C22.2611 406.179 24.5745 410.164 25.8691 414.792C27.115 419.464 27.6291 424.297 27.3999 429.184C27.3818 429.656 28.2498 430.116 28.3581 429.414C29.7806 420.232 27.7262 410.207 22.145 402.445C26.679 403.728 31.1655 405.095 35.6046 406.547C36.3002 406.776 36.9852 407.017 37.6745 407.252C43.2041 413.838 47.1289 421.281 49.2657 429.232C49.4164 429.766 50.0882 429.603 49.993 429.062C48.6124 421.533 45.3569 414.445 40.4141 408.205C49.2135 411.353 57.584 414.985 66.0727 418.627C66.816 418.946 66.8931 417.713 66.4781 417.455C59.1667 412.913 50.5204 409.552 41.8667 406.572C51.1856 404.324 60.5781 398.447 66.5258 392.531C67.001 392.06 66.3225 390.606 65.6357 391.172Z" fill="#F9F9F9"/>
<path d="M43.2929 47.4193C43.5906 43.6932 43.2559 39.7957 42.3052 35.9176C41.0108 31.0232 38.5734 26.356 35.2665 22.4401C31.5799 33.3246 26.4549 43.2764 20.033 52.021C28.0203 51.2372 35.4307 48.619 43.2929 47.4193Z" fill="#F2F0EB"/>
<path d="M3.41291 68.9844C12.1883 72.3229 21.0803 74.509 29.8922 75.4943C32.8089 72.5423 35.3769 69.1896 37.5552 65.4897C40.3955 60.796 42.2762 55.3361 43.0952 49.4057C34.9689 50.7051 27.3038 53.4677 18.9498 54.0548C18.8154 54.0659 18.6732 54.0331 18.5391 53.96C18.2194 54.3764 17.91 54.7996 17.582 55.208C13.3787 60.4147 8.63281 65.0291 3.41291 68.9844Z" fill="#F2F0EB"/>
<path d="M7.39555 89.3802C15.1394 86.7981 22.168 82.6648 28.1911 77.1508C19.4262 76.0588 10.5933 73.7543 1.89503 70.2903C1.83352 70.2775 1.77212 70.2567 1.71207 70.2284C-4.61799 74.7643 -11.6586 78.1671 -19.2166 80.3434C-14.6303 84.9943 -9.38937 88.5052 -4.31221 92.316C-0.301465 91.6472 3.60966 90.6665 7.39555 89.3802Z" fill="#F2F0EB"/>
<path d="M18.4248 50.9337C24.956 42.0648 30.1501 31.95 33.8591 20.8772C31.9346 18.7814 29.7201 17.0714 27.3529 15.8533C24.9857 14.6351 22.5164 13.9348 20.0981 13.7959C14.014 13.5619 9.23203 17.0197 4.64403 21.3126C10.459 30.5874 14.1614 40.9168 18.4248 50.9337Z" fill="#F2F0EB"/>
<path d="M-5.28344 31.2288C-7.18566 33.1706 -9.0969 35.1223 -11.038 37.0622C-5.80959 46.9069 -1.06886 56.9686 2.1917 67.486C7.85364 63.174 12.949 58.0797 17.3895 52.2916C17.2622 52.1765 17.1584 52.0308 17.0891 51.8696C12.8368 41.937 9.19491 31.6692 3.46479 22.4361C3.18909 22.711 2.90765 22.9776 2.62886 23.2519C-0.0434605 25.8787 -2.70788 28.5985 -5.28344 31.2288Z" fill="#F2F0EB"/>
<path d="M-19.4494 78.4713C-19.3156 78.4326 -19.1803 78.3977 -19.048 78.3564C-11.8737 76.1879 -5.19272 72.8754 0.818737 68.5064C-2.36909 58.0272 -7.04153 48.0216 -12.2191 38.2312C-15.8702 41.8431 -19.6187 45.3867 -23.5558 48.6776C-21.2453 58.6329 -19.8686 68.6219 -19.4494 78.4713Z" fill="#F2F0EB"/>
<path d="M32.6881 119.404C30.9472 119.72 29.1964 120.03 27.4357 120.337C25.3283 126.127 23.7883 132.289 21.0384 137.638C26.5951 137.494 32.0386 136.832 37.3155 135.659C39.4803 129.883 42.2645 123.865 43.8241 117.526C42.9479 117.639 42.0683 117.771 41.1845 117.915C38.3373 118.381 35.4629 118.898 32.6881 119.404Z" fill="#F2F0EB"/>
<path d="M-22.0284 125.231C-16.3055 128.747 -10.3743 131.6 -4.34595 133.736C-1.97794 129.748 0.798071 126.151 3.55984 122.539C1.37422 122.47 -0.828903 122.309 -3.05296 122.024C-7.12976 121.495 -11.2246 120.695 -15.3156 119.627C-17.5095 121.551 -19.9737 123.132 -22.0284 125.231Z" fill="#F2F0EB"/>
<path d="M25.3453 120.696C19.0338 121.848 12.5655 122.478 5.98739 122.581C3.07277 126.418 0.0876534 130.184 -2.47186 134.359C0.132319 135.193 2.74721 135.863 5.35939 136.364C9.90601 137.212 14.431 137.645 18.8883 137.657C21.8171 132.536 23.3541 126.461 25.3453 120.696Z" fill="#F2F0EB"/>
<path d="M63.6955 128.509C56.2502 132.102 48.4256 134.935 40.2992 136.981C46.6704 142.543 52.6827 148.603 58.6493 154.734C62.9532 151.449 65.7868 147.102 66.7903 142.094C68.2555 134.791 65.0814 124.084 57.4032 119.519C53.6431 117.284 49.7266 116.978 45.7128 117.326C44.307 123.559 41.703 129.454 39.4957 135.159C47.63 133.111 55.4603 130.27 62.9083 126.666C63.8385 126.226 64.6141 128.075 63.6955 128.509Z" fill="#F2F0EB"/>
<path d="M53.4793 157.835C54.8146 157.218 56.0978 156.501 57.3217 155.687C51.2445 149.308 44.9279 143.235 38.3991 137.494C38.2596 137.564 38.0958 137.582 37.9282 137.544C32.8803 138.661 27.6836 139.323 22.3826 139.522C27.7259 146.501 32.4719 153.929 37.2667 161.324C43.0081 161.284 48.4935 160.104 53.4793 157.835Z" fill="#F2F0EB"/>
<path d="M20.8971 140.205C20.822 140.113 20.7616 140.009 20.7196 139.898C20.6776 139.786 20.6548 139.672 20.6527 139.56C15.5907 139.64 10.4368 139.19 5.25524 138.215C2.83061 137.746 0.403726 137.134 -2.01509 136.383C0.196167 142.059 2.73538 147.634 5.58386 153.065C11.321 155.956 17.2039 158.159 23.1193 159.633C27.2228 160.641 31.3231 161.204 35.3606 161.314C30.8196 154.075 25.9921 147.029 20.8971 140.205Z" fill="#F2F0EB"/>
<path d="M-3.81603 136.174C-3.86624 136.04 -3.89333 135.901 -3.8956 135.766C-9.69688 133.777 -15.4155 131.123 -20.9528 127.851C-18.703 132.416 -16.2016 136.85 -13.6925 141.282C-11.7233 142.705 -9.70676 144.091 -7.64278 145.441C-4.10148 147.756 -0.492325 149.887 3.17061 151.827C0.544722 146.727 -1.78989 141.496 -3.81603 136.174Z" fill="#F2F0EB"/>
<path d="M94.5992 66.199C94.5702 62.3659 93.7429 58.4096 92.1807 54.6334C89.6922 48.7993 86.2619 44.6934 82.3364 42.765C81.2696 51.4645 78.8736 59.6094 75.2439 66.8756C81.7688 67.023 88.1683 66.5457 94.5992 66.199Z" fill="#F2F0EB"/>
<path d="M92.7013 78.5261C93.7916 75.2842 94.4236 71.7856 94.5784 68.1356C88.0032 68.4969 81.4607 68.9811 74.7702 68.7732C74.6624 68.7672 74.5524 68.7388 74.4458 68.6893C74.3812 68.826 74.2828 68.9346 74.1597 69.005C71.5673 73.7738 68.4613 78.1072 64.8943 81.9313C71.6798 85.1119 78.3334 88.8458 85.0518 92.3137C88.4115 88.434 91.0008 83.7671 92.7013 78.5261Z" fill="#F2F0EB"/>
<path d="M83.846 93.6318C77.1494 90.1538 70.5122 86.4371 63.7339 83.3023C63.6229 83.4834 63.4497 83.6016 63.2443 83.6364C62.9617 83.9153 62.6855 84.202 62.3965 84.473C58.4073 88.179 53.872 91.1527 48.912 93.3142C54.751 97.0465 60.7268 100.391 66.6122 103.996C73.1712 102.042 79.032 98.5174 83.846 93.6318Z" fill="#F2F0EB"/>
<path d="M47.0642 94.1233C43.3456 95.683 39.4693 96.95 35.5352 98.1028C38.6526 101.369 41.9914 104.342 45.5037 106.981C52.0068 107.001 58.3475 106.218 64.4157 104.646C58.6247 101.152 52.7737 97.8478 47.0642 94.1233Z" fill="#F2F0EB"/>
<path d="M33.8094 98.6011C27.8168 100.308 21.7323 101.826 15.9136 103.8C24.9494 105.659 33.9565 106.715 42.8478 106.958C39.6548 104.46 36.6276 101.661 33.8094 98.6011Z" fill="#F2F0EB"/>
<path d="M73.5916 66.1281C77.2224 58.8926 79.6095 50.7695 80.6559 42.0896C80.2945 41.9735 79.9307 41.8693 79.5627 41.7895C74.1333 40.6013 68.5471 43.5659 64.8955 49.3981C68.0641 54.8382 70.9681 60.4251 73.5916 66.1281Z" fill="#F2F0EB"/>
<path d="M63.124 81.0046C66.8258 77.1745 70.0235 72.7763 72.6533 67.8973C70.0414 62.1325 67.1477 56.4812 63.9879 50.9742C63.9452 51.0592 63.8936 51.1447 63.8476 51.2304C62.4116 54.2548 61.1841 57.4295 60.1735 60.7326C59.2718 63.4496 58.3433 66.225 57.171 68.7876C59.3023 72.7966 61.2936 76.8641 63.124 81.0046Z" fill="#F2F0EB"/>
<path d="M47.2807 91.8961C51.6267 90.0434 55.6634 87.5857 59.3123 84.5708C60.2065 83.8144 61.0664 83.0162 61.9108 82.1991C60.1844 78.2525 58.3178 74.3676 56.311 70.5444C56.0394 71.055 55.7586 71.5593 55.4577 72.0416C53.0647 75.6309 50.1871 78.7472 46.899 81.3106C47.406 84.8963 47.5341 88.4499 47.2807 91.8961Z" fill="#F2F0EB"/>
<path d="M32.7242 96.8922C32.9088 95.1293 33.1143 93.3742 33.2921 91.6094C27.2565 95.4964 20.9176 98.8814 14.3151 101.743C14.199 101.795 14.1016 101.88 14.0311 101.992C13.9606 102.104 13.919 102.239 13.9098 102.386C19.9939 100.243 26.4074 98.6695 32.7242 96.8922Z" fill="#F2F0EB"/>
<path d="M35.1544 90.3547C34.9841 92.3707 34.7528 94.3672 34.5347 96.3689C38.243 95.2915 41.9055 94.122 45.4266 92.6865C45.4166 92.6009 45.417 92.5167 45.4278 92.436C45.8906 89.2715 45.872 85.9373 45.3727 82.5606C44.4704 83.2856 43.5624 84.0023 42.6589 84.7094C41.9794 85.2411 41.3057 85.7671 40.6434 86.2936C38.867 87.7065 37.0452 89.0537 35.1544 90.3547Z" fill="#F2F0EB"/>
<path d="M1220.29 270.498C1224.7 268.734 1230.07 267.679 1235.46 266.559C1238.12 265.812 1240.7 264.936 1243.2 263.936C1249.59 261.329 1252.95 256.162 1258.52 252.841C1257.97 252.841 1257.42 252.835 1256.88 252.838C1253.31 252.862 1249.79 253.102 1246.25 253.225C1244.54 253.285 1242.79 253.133 1241.09 253.232C1239.28 253.338 1237.86 254.035 1236.13 254.253C1231.53 254.836 1226.86 255.383 1222.05 254.953C1216.1 254.422 1210.07 252.877 1204.25 251.456C1203.2 251.199 1201.52 248.774 1203.24 248.771C1210.6 248.759 1217.97 248.798 1225.33 248.821C1230.03 248.834 1234.53 248.704 1238.75 251.192C1238.84 251.245 1238.92 251.304 1239 251.37C1243.73 250.451 1248.98 250.494 1253.93 250.427C1256.07 250.398 1258.21 250.402 1260.36 250.43C1254.4 246.378 1247.44 244.067 1240.32 242.119C1234.98 240.656 1229.59 239.379 1225.77 235.557C1225.05 234.84 1224.72 233.012 1226.44 233.665C1233.8 236.517 1241.3 239.068 1248.9 241.308C1254.54 242.935 1259.66 245.232 1262.22 249.955C1262.31 250.116 1262.37 250.286 1262.39 250.457C1265.04 250.51 1267.69 250.603 1270.35 250.737C1274.32 250.939 1278.3 251.231 1282.28 251.612C1282.27 251.578 1282.26 251.543 1282.26 251.508C1282.24 251.178 1282.22 250.847 1282.2 250.517C1282.18 250.327 1282.16 250.124 1282.16 249.93C1279.66 247.062 1277.34 244.47 1273.76 242.216C1269.87 239.771 1265.56 237.918 1261.27 236.085C1255.35 233.556 1246.87 230.867 1243.93 225.507C1243.52 224.774 1244.18 224.227 1245.02 224.749C1248.23 226.757 1252.18 228.475 1256.34 230.176C1256.45 230.221 1256.57 230.268 1256.68 230.313C1267.81 234.854 1280.25 239.323 1283.63 248.877C1283.75 249.081 1283.85 249.288 1283.95 249.494C1284.15 249.64 1284.33 249.809 1284.46 249.995C1284.73 250.354 1284.89 250.749 1284.93 251.149C1284.95 251.338 1284.97 251.528 1284.99 251.717L1285.01 251.889C1289.75 252.39 1294.48 253.018 1299.21 253.771C1295.3 247.368 1290.44 242 1283.51 237.397C1278.14 233.835 1272.61 230.586 1269.29 225.518C1269.19 225.357 1269.11 225.188 1269.06 225.015C1268.82 224.829 1268.58 224.643 1268.34 224.455C1267.25 223.581 1267.4 221.335 1268.99 222.602C1275.7 227.959 1283.91 231.738 1290.4 237.308C1295.53 241.717 1301.89 248.25 1302.49 254.312C1306.61 255.02 1310.73 255.822 1314.83 256.718C1313.62 255.02 1312.74 253.198 1312.24 251.331C1311.86 249.855 1311.93 248.382 1311.63 246.907C1311.07 244.69 1309.95 242.542 1308.34 240.606C1303.22 233.941 1296.39 228.186 1291.64 221.348C1291.15 220.638 1291.28 220.084 1291.67 219.846C1291.88 219.526 1292.39 219.472 1293.06 220.051C1300.65 226.515 1307.52 233.499 1313.6 240.903C1317.72 245.935 1322.22 252.252 1318.49 257.545C1323.43 258.694 1328.33 259.977 1333.21 261.394C1333.2 261.307 1333.21 261.221 1333.23 261.137C1335.14 253.921 1332.99 246.139 1328.11 239.331C1323.09 232.319 1318.39 225.529 1314.93 217.989C1314.82 217.768 1314.77 217.534 1314.79 217.308C1314.65 216.955 1314.5 216.601 1314.37 216.245C1313.81 214.758 1315.66 214.972 1316.26 216.148C1318.8 221.128 1321.31 226.021 1324.71 230.735C1327.77 234.995 1331.56 238.934 1334.25 243.348C1337.64 248.916 1341.54 257.357 1337.84 262.785C1342.58 264.256 1347.29 265.851 1351.94 267.57C1354.07 263.559 1355.98 259.439 1355.53 254.755C1355.05 249.922 1353.72 244.473 1351.36 239.852C1347.49 232.263 1340.62 225.315 1342.16 217.076C1342.17 217.016 1342.19 216.957 1342.22 216.902C1342.17 216.666 1342.11 216.427 1342.07 216.188C1341.8 214.677 1343.86 215.63 1344.14 216.644C1347.16 227.433 1355.29 236.511 1359.88 246.883C1361.59 250.763 1362.03 254.831 1361.14 258.651C1360.43 262.055 1359.32 267.144 1355.34 268.85C1357.82 269.806 1360.29 270.797 1362.73 271.823C1373.79 276.471 1384.45 281.827 1394.62 287.833C1395.87 288.571 1395.74 290.665 1393.99 289.635C1381.7 282.408 1368.68 276.15 1355.14 270.959C1357.52 277.41 1356.57 283.832 1353.32 289.531C1351.62 292.707 1348.86 295.353 1345.31 297.197C1343.92 297.891 1342.42 298.455 1340.95 299.044C1340.01 299.646 1338.97 300.135 1337.85 300.499C1336.24 301.45 1334.7 302.605 1332.89 303.039C1331.96 303.262 1331.12 302.161 1331.3 301.501C1331.71 299.943 1333.11 298.9 1334.77 298.093C1336.94 296.313 1339.61 294.898 1341.84 293.145C1344.36 291.256 1346.68 289.183 1348.75 286.948C1352.79 282.345 1355.02 276.379 1351.51 270.449C1351.41 270.307 1351.34 270.153 1351.31 269.996C1351.29 269.839 1351.3 269.684 1351.35 269.538C1346.57 267.786 1341.74 266.167 1336.86 264.682C1336.96 264.851 1337.03 265.033 1337.04 265.214C1337.05 265.286 1337.05 265.36 1337.05 265.432C1337.12 265.539 1337.18 265.651 1337.22 265.766C1339.61 272.832 1339.46 278.244 1334.56 283.868C1332.15 286.516 1329.39 288.928 1326.32 291.069C1325.58 291.609 1324.92 292.15 1324.31 292.704C1324.19 292.823 1324.06 292.939 1323.94 293.056C1322.26 294.687 1320.83 296.492 1319.69 298.437C1319 299.571 1317.16 297.351 1317.17 296.705C1317.22 294.179 1318.8 292.137 1320.86 290.321C1323.95 287.115 1327.53 284.221 1329.92 280.583C1332.8 275.986 1334.33 270.811 1334.42 265.42L1334.33 265.137C1334.16 264.625 1334.23 264.322 1334.43 264.176C1334.43 264.131 1334.43 264.085 1334.43 264.039C1334.43 264.01 1334.44 263.991 1334.44 263.964C1329.19 262.417 1323.9 261.026 1318.56 259.792C1318.72 260.033 1318.88 260.275 1319.03 260.517C1319.18 260.732 1319.27 260.965 1319.29 261.2C1319.65 261.481 1319.91 261.83 1320.04 262.207C1320.96 265.168 1321.08 268.183 1320.4 271.036C1319.73 273.89 1318.26 276.512 1316.12 278.715C1313.65 281.187 1310.41 282.486 1306.87 283.793C1305.08 284.371 1303.49 285.251 1302.19 286.381C1302.18 286.396 1302.17 286.41 1302.15 286.427C1302.08 286.528 1301.98 286.618 1301.87 286.693C1301.76 286.804 1301.65 286.91 1301.55 287.028C1300.37 288.351 1299.86 289.34 1297.58 289.305C1296.21 289.284 1294.77 287.482 1295.55 286.561C1296.51 285.428 1297.41 284.259 1298.46 283.21C1300.02 279.186 1305.4 276.359 1309.16 273.834C1314.54 270.219 1317.21 265.331 1315.88 259.188C1311.82 258.292 1307.74 257.489 1303.65 256.779C1304.6 258.446 1304.58 260.266 1303.99 262.072C1303.73 266.209 1302.04 270.07 1299.12 273.221C1293.03 279.766 1281.48 282.277 1272.44 285.502C1271.05 285.999 1269.13 283.404 1270.49 282.877L1270.82 282.751C1275.56 278.034 1282.69 276.048 1288.8 272.736C1291.92 271.042 1294.62 268.906 1296.79 266.413C1298.34 264.748 1299.65 262.929 1300.69 260.989C1300.71 259.426 1300.52 257.869 1300.44 256.242C1295.23 255.402 1290.01 254.716 1284.78 254.185C1284.98 254.375 1285.12 254.606 1285.17 254.846C1285.76 258.151 1285.74 261.29 1283.58 263.969C1281 267.17 1276.54 269.26 1272.35 270.879C1267.62 272.71 1262.56 273.995 1257.65 275.524C1252.74 277.054 1248.45 279.098 1244.03 281.255C1244.01 281.3 1243.98 281.341 1243.95 281.387C1243.93 281.452 1243.89 281.51 1243.84 281.56C1243.79 281.61 1243.73 281.649 1243.65 281.676C1243.58 281.704 1243.5 281.718 1243.42 281.718C1243.33 281.718 1243.25 281.705 1243.17 281.678L1242.88 281.819C1242.18 282.162 1241.19 280.849 1241.63 280.41C1241.74 280.301 1241.87 280.204 1241.98 280.098C1241.98 280.079 1241.99 280.061 1241.99 280.043C1245.45 273.103 1255.87 271.479 1263.67 268.852C1272.77 265.786 1281.13 262.644 1282.84 253.996C1279.86 253.716 1276.88 253.485 1273.9 253.303C1270.1 253.076 1266.31 252.936 1262.53 252.883C1262.74 253.076 1262.91 253.303 1263.01 253.546C1263.11 253.788 1263.15 254.041 1263.11 254.283C1260.14 262.831 1251.15 265.922 1241.43 268.156C1235.25 270.177 1228.5 271.437 1222.15 273.022C1220.8 273.352 1218.95 271.031 1220.29 270.498ZM1356.85 264.469C1356.84 264.501 1356.82 264.531 1356.81 264.562C1356.83 264.532 1356.85 264.503 1356.88 264.472L1356.85 264.469ZM1344.76 224.605C1344.8 224.6 1344.84 224.597 1344.89 224.597C1344.78 224.382 1344.68 224.167 1344.58 223.951C1344.64 224.169 1344.7 224.388 1344.76 224.605ZM1309.55 238.763L1309.56 238.763L1309.51 238.702L1309.55 238.763ZM1314.63 249.065C1314.67 249.067 1314.71 249.071 1314.75 249.076C1314.69 248.878 1314.63 248.679 1314.55 248.483C1314.58 248.678 1314.61 248.872 1314.63 249.065Z" fill="#F2F0EB"/>
<path d="M1251.88 408.31C1252.23 414.254 1255.26 420.278 1260.94 424.719C1267.07 429.505 1275.32 432.225 1283.47 433.068C1304.64 435.261 1322.7 426.24 1339.57 418.524C1357.6 410.278 1374.52 400.69 1390.14 389.871C1392.51 388.23 1403.47 383.467 1399.71 380.159C1398.03 378.683 1392.08 378.369 1389.79 377.953C1386 377.263 1382.2 376.644 1378.39 376.096C1360.11 373.429 1341.72 372.443 1323.57 373.158C1309.43 373.752 1295.22 374.98 1282.42 379.076C1271.22 382.66 1259.84 388.495 1254.5 397.412C1252.53 400.74 1251.63 404.476 1251.88 408.31Z" fill="#F2F0EB"/>
<path d="M1262.24 391.172C1265.95 394.321 1270.08 397.14 1274.53 399.569C1279.34 402.126 1284.4 403.548 1289.55 405.371C1290.13 405.175 1290.72 404.981 1291.3 404.789C1295.33 403.449 1299.41 402.186 1303.53 401.001C1299.49 399.447 1295.57 396.771 1292.5 394.579C1287.81 391.248 1283.6 387.486 1280 383.386C1279.72 383.073 1280.04 382.049 1280.62 382.435C1285.19 385.479 1289.21 389.037 1293.73 392.138C1295.84 393.605 1298.06 394.962 1300.37 396.198C1302.85 397.501 1305.58 398.382 1308.07 399.63C1308.13 399.589 1308.21 399.565 1308.29 399.559C1308.37 399.553 1308.45 399.567 1308.53 399.598C1313.8 398.151 1319.12 396.793 1324.49 395.524C1324.7 395.474 1324.91 395.427 1325.13 395.377C1316.01 391.154 1308.84 384.624 1301.94 378.234C1301.39 377.729 1302.18 376.199 1302.88 376.79C1310.88 383.488 1319.01 390.05 1329.21 394.43C1334.9 393.114 1340.61 391.848 1346.35 390.632C1338.01 387.067 1330.33 382.331 1324.48 376.245C1324.13 375.885 1324.59 374.732 1325.18 375.174C1332.94 380.976 1341.07 386.109 1350.55 389.743C1354.79 388.857 1359.03 387.987 1363.28 387.134C1357.58 384.663 1352.57 380.702 1348.65 376.673C1348.04 376.043 1348.91 374.453 1349.81 375.278C1355.03 380.058 1361.09 383.077 1367.7 386.25C1370.99 385.593 1374.29 384.939 1377.59 384.288C1376.34 383.646 1375.14 382.891 1374.15 382.29C1371.87 380.894 1369.9 379.174 1368.37 377.229C1368.02 376.79 1368.58 375.664 1369.17 376.268C1371.07 378.1 1373.31 379.682 1375.81 380.94C1377.51 381.856 1379.57 382.536 1381.18 383.58L1381.35 383.547C1381.64 383.277 1381.93 383.259 1382.16 383.387C1387.44 382.349 1392.71 381.307 1397.98 380.26C1398.89 380.078 1398.75 381.709 1397.95 381.887C1392.79 383.032 1387.61 384.143 1382.41 385.221C1381.04 388.159 1381.18 391.708 1380.85 394.879C1380.75 395.87 1379.16 396.321 1379.23 395.023C1379.37 392.141 1378.96 388.575 1380.05 385.718C1376.57 386.444 1373.09 387.164 1369.6 387.879C1369.58 387.913 1369.55 387.946 1369.51 387.975C1365.47 391.449 1365.8 396.359 1365.28 401.006C1365.21 401.64 1364.18 401.928 1364.23 401.099C1364.53 396.858 1363.99 391.925 1366.87 388.443L1366.86 388.441C1362.17 389.406 1357.47 390.376 1352.78 391.353C1350.12 397.823 1348.99 404.484 1348.28 411.392C1348.19 412.292 1346.8 412.724 1346.8 411.523C1346.77 404.94 1348.36 398.486 1350.61 392.338C1350.31 392.227 1350.02 392.113 1349.72 391.999C1343.18 393.376 1336.67 394.802 1330.18 396.276C1330.16 396.351 1330.13 396.424 1330.08 396.492C1325.02 404.167 1322.93 413.057 1324.04 422.131C1324.13 423.017 1322.63 424.171 1322.37 422.791C1320.74 413.661 1322.57 404.617 1327.62 396.862C1327.14 396.972 1326.67 397.077 1326.19 397.187C1320.39 398.545 1314.64 399.999 1308.93 401.549C1308.8 401.799 1308.56 401.997 1308.26 402.111C1305.61 406.179 1303.3 410.164 1302.01 414.792C1300.76 419.464 1300.25 424.297 1300.48 429.184C1300.49 429.656 1299.63 430.116 1299.52 429.414C1298.1 420.232 1300.15 410.207 1305.73 402.445C1301.2 403.728 1296.71 405.095 1292.27 406.547C1291.58 406.776 1290.89 407.017 1290.2 407.252C1284.67 413.838 1280.75 421.281 1278.61 429.232C1278.46 429.766 1277.79 429.603 1277.88 429.062C1279.26 421.533 1282.52 414.445 1287.46 408.205C1278.66 411.353 1270.29 414.985 1261.8 418.627C1261.06 418.946 1260.98 417.713 1261.4 417.455C1268.71 412.913 1277.36 409.552 1286.01 406.572C1276.69 404.324 1267.3 398.447 1261.35 392.531C1260.87 392.06 1261.55 390.606 1262.24 391.172Z" fill="#F9F9F9"/>
<path d="M1284.58 136.829C1284.29 140.555 1284.62 144.452 1285.57 148.33C1286.86 153.225 1289.3 157.892 1292.61 161.808C1296.3 150.923 1301.42 140.972 1307.84 132.227C1299.86 133.011 1292.45 135.629 1284.58 136.829Z" fill="#F2F0EB"/>
<path d="M1324.46 115.264C1315.69 111.925 1306.8 109.739 1297.98 108.754C1295.07 111.706 1292.5 115.058 1290.32 118.758C1287.48 123.452 1285.6 128.912 1284.78 134.842C1292.91 133.543 1300.57 130.78 1308.93 130.193C1309.06 130.182 1309.2 130.215 1309.34 130.288C1309.66 129.872 1309.97 129.448 1310.29 129.04C1314.5 123.833 1319.24 119.219 1324.46 115.264Z" fill="#F2F0EB"/>
<path d="M1320.48 94.8678C1312.74 97.4499 1305.71 101.583 1299.68 107.097C1308.45 108.189 1317.28 110.494 1325.98 113.958C1326.04 113.971 1326.1 113.991 1326.16 114.02C1332.49 109.484 1339.53 106.081 1347.09 103.905C1342.51 99.2536 1337.27 95.7428 1332.19 91.932C1328.18 92.6008 1324.27 93.5815 1320.48 94.8678Z" fill="#F2F0EB"/>
<path d="M1309.45 133.314C1302.92 142.183 1297.73 152.298 1294.02 163.371C1295.94 165.467 1298.16 167.177 1300.52 168.395C1302.89 169.613 1305.36 170.313 1307.78 170.452C1313.86 170.686 1318.64 167.228 1323.23 162.935C1317.42 153.661 1313.71 143.331 1309.45 133.314Z" fill="#F2F0EB"/>
<path d="M1333.16 153.019C1335.06 151.077 1336.97 149.126 1338.91 147.186C1333.69 137.341 1328.94 127.279 1325.68 116.762C1320.02 121.074 1314.93 126.168 1310.49 131.956C1310.61 132.071 1310.72 132.217 1310.79 132.378C1315.04 142.311 1318.68 152.579 1324.41 161.812C1324.69 161.537 1324.97 161.27 1325.25 160.996C1327.92 158.369 1330.58 155.65 1333.16 153.019Z" fill="#F2F0EB"/>
<path d="M1347.33 105.777C1347.19 105.815 1347.06 105.85 1346.92 105.892C1339.75 108.06 1333.07 111.373 1327.06 115.742C1330.24 126.221 1334.92 136.226 1340.09 146.017C1343.75 142.405 1347.49 138.861 1351.43 135.57C1349.12 125.615 1347.74 115.626 1347.33 105.777Z" fill="#F2F0EB"/>
<path d="M1295.19 64.8435C1296.93 64.5284 1298.68 64.2176 1300.44 63.9112C1302.55 58.121 1304.09 51.9592 1306.84 46.6101C1301.28 46.7541 1295.84 47.4158 1290.56 48.5887C1288.4 54.3654 1285.61 60.3826 1284.05 66.7218C1284.93 66.6089 1285.81 66.4767 1286.69 66.3327C1289.54 65.8671 1292.41 65.3499 1295.19 64.8435Z" fill="#F2F0EB"/>
<path d="M1349.9 59.0166C1344.18 55.5006 1338.25 52.6481 1332.22 50.5124C1329.85 54.4998 1327.08 58.097 1324.32 61.7093C1326.5 61.7778 1328.7 61.9386 1330.93 62.2244C1335.01 62.7528 1339.1 63.5531 1343.19 64.6209C1345.39 62.697 1347.85 61.1159 1349.9 59.0166Z" fill="#F2F0EB"/>
<path d="M1302.53 63.5524C1308.84 62.4001 1315.31 61.7703 1321.89 61.6673C1324.8 57.8299 1327.79 54.0635 1330.35 49.8892C1327.74 49.0548 1325.13 48.3854 1322.52 47.8845C1317.97 47.0355 1313.44 46.6029 1308.99 46.5909C1306.06 51.712 1304.52 57.7872 1302.53 63.5524Z" fill="#F2F0EB"/>
<path d="M1264.18 55.7386C1271.63 52.1462 1279.45 49.3128 1287.58 47.2666C1281.21 41.7054 1275.19 35.6448 1269.23 29.5138C1264.92 32.7985 1262.09 37.1457 1261.09 42.1541C1259.62 49.4566 1262.79 60.1645 1270.47 64.7294C1274.23 66.9644 1278.15 67.2704 1282.16 66.9221C1283.57 60.6889 1286.17 54.794 1288.38 49.0892C1280.25 51.1372 1272.42 53.9777 1264.97 57.5822C1264.04 58.0224 1263.26 56.1733 1264.18 55.7386Z" fill="#F2F0EB"/>
<path d="M1274.4 26.4126C1273.06 27.0299 1271.78 27.7472 1270.55 28.5605C1276.63 34.9396 1282.95 41.0128 1289.48 46.7541C1289.62 46.6838 1289.78 46.6663 1289.95 46.7037C1295 45.5867 1300.19 44.9254 1305.49 44.7257C1300.15 37.7467 1295.4 30.3195 1290.61 22.9238C1284.87 22.964 1279.38 24.1444 1274.4 26.4126Z" fill="#F2F0EB"/>
<path d="M1306.98 44.0425C1307.05 44.1347 1307.11 44.2395 1307.16 44.3505C1307.2 44.4615 1307.22 44.5765 1307.22 44.6884C1312.28 44.6078 1317.44 45.058 1322.62 46.0333C1325.05 46.5022 1327.47 47.1136 1329.89 47.8648C1327.68 42.1885 1325.14 36.6142 1322.29 31.1829C1316.55 28.2922 1310.67 26.0889 1304.76 24.6154C1300.65 23.607 1296.55 23.0437 1292.52 22.9337C1297.06 30.1731 1301.88 37.2186 1306.98 44.0425Z" fill="#F2F0EB"/>
<path d="M1331.69 48.0744C1331.74 48.2083 1331.77 48.3469 1331.77 48.4817C1337.57 50.4712 1343.29 53.1249 1348.83 56.3968C1346.58 51.8321 1344.08 47.3983 1341.57 42.9655C1339.6 41.5432 1337.58 40.1572 1335.52 38.8073C1331.98 36.4923 1328.37 34.3608 1324.71 32.4212C1327.33 37.5213 1329.67 42.7519 1331.69 48.0744Z" fill="#F2F0EB"/>
<path d="M1233.28 118.049C1233.31 121.882 1234.13 125.838 1235.69 129.615C1238.18 135.449 1241.61 139.555 1245.54 141.483C1246.61 132.783 1249 124.639 1252.63 117.372C1246.11 117.225 1239.71 117.702 1233.28 118.049Z" fill="#F2F0EB"/>
<path d="M1235.17 105.722C1234.08 108.964 1233.45 112.462 1233.3 116.112C1239.87 115.751 1246.41 115.267 1253.11 115.475C1253.21 115.481 1253.32 115.509 1253.43 115.559C1253.49 115.422 1253.59 115.313 1253.72 115.243C1256.31 110.474 1259.41 106.141 1262.98 102.317C1256.2 99.1361 1249.54 95.4022 1242.82 91.9343C1239.46 95.814 1236.87 100.481 1235.17 105.722Z" fill="#F2F0EB"/>
<path d="M1244.03 90.6162C1250.73 94.0942 1257.36 97.8109 1264.14 100.946C1264.25 100.765 1264.43 100.646 1264.63 100.612C1264.91 100.333 1265.19 100.046 1265.48 99.775C1269.47 96.069 1274 93.0953 1278.96 90.9338C1273.12 87.2015 1267.15 83.8568 1261.26 80.2523C1254.7 82.2061 1248.84 85.7306 1244.03 90.6162Z" fill="#F2F0EB"/>
<path d="M1280.81 90.1247C1284.53 88.565 1288.41 87.298 1292.34 86.1452C1289.22 82.8794 1285.88 79.9055 1282.37 77.2665C1275.87 77.247 1269.53 78.0302 1263.46 79.6025C1269.25 83.0964 1275.1 86.4002 1280.81 90.1247Z" fill="#F2F0EB"/>
<path d="M1294.07 85.6469C1300.06 83.94 1306.14 82.4219 1311.96 80.448C1302.93 78.5893 1293.92 77.5333 1285.03 77.29C1288.22 79.7881 1291.25 82.5871 1294.07 85.6469Z" fill="#F2F0EB"/>
<path d="M1254.28 118.12C1250.65 125.355 1248.27 133.478 1247.22 142.158C1247.58 142.274 1247.94 142.379 1248.31 142.458C1253.74 143.647 1259.33 140.682 1262.98 134.85C1259.81 129.41 1256.91 123.823 1254.28 118.12Z" fill="#F2F0EB"/>
<path d="M1264.75 103.243C1261.05 107.073 1257.85 111.472 1255.22 116.351C1257.83 122.115 1260.73 127.767 1263.89 133.274C1263.93 133.189 1263.98 133.103 1264.03 133.018C1265.46 129.993 1266.69 126.819 1267.7 123.515C1268.6 120.798 1269.53 118.023 1270.7 115.46C1268.57 111.451 1266.58 107.384 1264.75 103.243Z" fill="#F2F0EB"/>
<path d="M1280.6 92.3519C1276.25 94.2046 1272.21 96.6622 1268.56 99.6772C1267.67 100.434 1266.81 101.232 1265.96 102.049C1267.69 105.996 1269.56 109.88 1271.56 113.704C1271.84 113.193 1272.12 112.689 1272.42 112.206C1274.81 108.617 1277.69 105.501 1280.98 102.937C1280.47 99.3516 1280.34 95.7981 1280.6 92.3519Z" fill="#F2F0EB"/>
<path d="M1295.15 87.3558C1294.97 89.1186 1294.76 90.8738 1294.58 92.6386C1300.62 88.7515 1306.96 85.3666 1313.56 82.505C1313.68 82.4531 1313.77 82.3677 1313.84 82.2558C1313.92 82.1438 1313.96 82.0087 1313.97 81.8616C1307.88 84.0045 1301.47 85.5785 1295.15 87.3558Z" fill="#F2F0EB"/>
<path d="M1292.72 93.8933C1292.89 91.8773 1293.12 89.8808 1293.34 87.8791C1289.63 88.9565 1285.97 90.126 1282.45 91.5615C1282.46 91.647 1282.46 91.7313 1282.45 91.812C1281.99 94.9765 1282 98.3107 1282.5 101.687C1283.41 100.962 1284.31 100.246 1285.22 99.5386C1285.9 99.0069 1286.57 98.4809 1287.23 97.9544C1289.01 96.5415 1290.83 95.1943 1292.72 93.8933Z" fill="#F2F0EB"/>
</g>
</svg>
