<svg width="550" height="570" viewBox="0 0 550 570" fill="none" xmlns="http://www.w3.org/2000/svg">
<g id="notify/pana">
<g id="background simple">
<path id="Vector" d="M431.885 28.6161L429.271 28.9326C407.298 31.5942 388.339 45.8164 380.577 66.335C379.577 68.9763 378.773 71.6883 378.174 74.4486C376.123 84.505 376.589 94.9125 379.53 104.745C382.472 114.578 387.798 123.532 395.034 130.81C403.617 139.334 415.025 145.794 419.926 156.804C426.304 171.132 419.34 187.418 412.481 201.359C405.622 215.299 398.692 231.644 405.129 245.913C409.163 254.871 417.851 261.073 427.055 264.673C451.419 274.17 480.192 267.217 500.3 250.92C520.408 234.622 532.637 210.293 538.382 185.12C546.484 149.839 542.498 110.995 523.257 80.0179C504.017 49.0408 468.408 27.3263 431.885 28.6161Z" fill="#F2F0EB"/>
<path id="Vector_2" d="M156.891 262.984L157.911 261.366C162.13 254.741 164.46 247.09 164.648 239.238C164.836 231.385 162.875 223.631 158.978 216.812C157.933 215.042 156.757 213.353 155.46 211.758C150.714 206.012 144.621 201.528 137.723 198.706C130.825 195.883 123.337 194.808 115.924 195.578C107.189 196.539 98.3365 200.045 89.8829 197.782C78.8733 194.851 72.8467 183.49 68.0747 173.242C63.3026 162.995 57.2526 151.633 46.2312 148.749C39.3253 146.943 31.8683 149.019 25.6424 152.583C9.15722 162.021 -0.035074 181.45 0.000100576 200.256C0.0352752 219.063 3.70516 237.776 15.2424 252.514C31.4696 273.173 59.7969 287.935 86.1075 291.206C112.418 294.477 141.027 284.206 156.891 262.984Z" fill="#F2F0EB"/>
<path id="Vector_3" d="M199.616 85.1064C213.771 85.1064 225.246 73.6313 225.246 59.4759C225.246 45.3205 213.771 33.8453 199.616 33.8453C185.461 33.8453 173.985 45.3205 173.985 59.4759C173.985 73.6313 185.461 85.1064 199.616 85.1064Z" fill="#F2F0EB"/>
</g>
<g id="Plants">
<path id="Vector_4" d="M521.288 394.397C521.381 394.549 519.4 395.898 516.34 398.231C512.347 401.257 508.548 404.53 504.966 408.033C501.405 411.559 498.065 415.303 494.965 419.242C492.62 422.267 491.19 424.213 491.037 424.119C491.909 422.205 493.007 420.402 494.309 418.749C500.205 410.491 507.498 403.325 515.859 397.574C517.533 396.299 519.356 395.232 521.288 394.397V394.397Z" fill="#263238"/>
<path id="Vector_5" d="M517.231 377.794C517.547 377.876 516.492 383.246 514.886 389.789C513.279 396.331 511.72 401.572 511.427 401.514C511.134 401.455 512.166 396.062 513.772 389.519C515.378 382.977 516.926 377.724 517.231 377.794Z" fill="#263238"/>
<path id="Vector_6" d="M515.472 376.892C514.675 377.243 514.44 379.236 515.109 380.151C515.477 380.593 515.99 380.89 516.557 380.989C517.124 381.088 517.708 380.982 518.204 380.69C518.803 380.356 519.247 379.801 519.442 379.144C519.637 378.487 519.567 377.779 519.248 377.173C519.021 376.885 518.737 376.648 518.412 376.478C518.088 376.307 517.731 376.208 517.366 376.186C517 376.164 516.634 376.219 516.291 376.349C515.949 376.479 515.638 376.68 515.378 376.938" fill="#1E3932"/>
<path id="Vector_7" d="M523.902 384.442C524.031 384.724 522.108 385.885 519.599 387.034C517.09 388.183 514.909 388.863 514.815 388.581C514.722 388.3 516.609 387.127 519.118 385.99C521.628 384.853 523.773 384.184 523.902 384.442Z" fill="#263238"/>
<path id="Vector_8" d="M523.703 382.566C523 383.031 522.465 383.709 522.179 384.501C522.051 384.901 522.073 385.333 522.242 385.717C522.41 386.101 522.713 386.411 523.093 386.588C523.353 386.663 523.627 386.672 523.891 386.615C524.155 386.558 524.401 386.435 524.606 386.26C525.013 385.901 525.317 385.439 525.485 384.923C525.724 384.387 525.754 383.78 525.567 383.223C525.473 382.946 525.279 382.715 525.023 382.574C524.767 382.433 524.468 382.393 524.184 382.461" fill="#1E3932"/>
<path id="Vector_9" d="M523.656 392.216C524.253 392.281 524.802 392.571 525.191 393.029C525.579 393.486 525.778 394.074 525.746 394.674C525.713 395.273 525.453 395.837 525.017 396.25C524.581 396.662 524.004 396.892 523.404 396.892C522.804 396.892 522.227 396.662 521.791 396.25C521.356 395.837 521.095 395.273 521.062 394.674C521.03 394.074 521.229 393.486 521.618 393.029C522.006 392.571 522.555 392.281 523.152 392.216" fill="#1E3932"/>
<path id="Vector_10" d="M472.395 327.014C472.59 328.298 472.684 329.596 472.676 330.895C472.77 333.58 472.876 337.156 473.016 341.447C473.263 350.393 473.509 362.74 473.72 376.387C473.931 390.035 474.048 402.381 474.083 411.327C474.083 415.654 474.083 419.23 474.083 421.88C474.135 423.18 474.081 424.482 473.919 425.772C473.731 424.487 473.637 423.19 473.638 421.892C473.556 419.207 473.438 415.63 473.298 411.339C473.051 402.393 472.805 390.047 472.594 376.387C472.383 362.728 472.266 350.393 472.231 341.447C472.231 337.121 472.231 333.545 472.231 330.895C472.186 329.599 472.241 328.301 472.395 327.014V327.014Z" fill="#263238"/>
<path id="Vector_11" d="M489.795 319.557C490.062 322.955 489.316 326.356 487.651 329.33C485.986 332.303 483.477 334.717 480.44 336.265C477.404 337.813 473.977 338.426 470.592 338.026C467.207 337.627 464.017 336.233 461.424 334.02C458.832 331.808 456.953 328.877 456.026 325.597C455.099 322.317 455.166 318.836 456.217 315.594C457.268 312.352 459.257 309.494 461.932 307.382C464.607 305.27 467.848 303.999 471.246 303.728C475.804 303.369 480.319 304.835 483.797 307.803C487.275 310.771 489.433 314.999 489.795 319.557V319.557Z" fill="#006241"/>
<g id="Group" opacity="0.3">
<path id="Vector_12" opacity="0.3" d="M471.902 338.199C471.841 336.537 471.892 334.872 472.055 333.216C472.275 329.266 471.672 325.313 470.284 321.609C468.798 317.97 466.028 315.003 462.499 313.272C459.767 312.006 457.809 312.182 457.809 311.959C458.241 311.791 458.708 311.73 459.169 311.783C460.423 311.806 461.663 312.056 462.827 312.522C464.749 313.332 466.493 314.513 467.957 315.998C469.422 317.483 470.579 319.242 471.363 321.175C472.82 325.027 473.326 329.174 472.84 333.263C472.559 336.37 472.043 338.223 471.902 338.199Z" fill="black"/>
</g>
<g id="Group_2" opacity="0.3">
<path id="Vector_13" opacity="0.3" d="M487.977 314.175C487.977 314.527 483.147 314.175 478.422 317.282C473.696 320.389 471.973 324.915 471.668 324.728C471.731 323.677 472.08 322.664 472.676 321.796C473.902 319.573 475.659 317.687 477.791 316.308C479.923 314.929 482.363 314.1 484.894 313.894C485.928 313.704 486.994 313.802 487.977 314.175V314.175Z" fill="black"/>
</g>
<g id="Group_3" opacity="0.3">
<path id="Vector_14" opacity="0.3" d="M480.274 315.559C480.086 315.559 479.864 314.386 478.797 312.944C478.145 311.98 477.285 311.174 476.281 310.586C475.277 309.998 474.154 309.642 472.994 309.546C471.834 309.449 470.668 309.613 469.58 310.027C468.492 310.441 467.511 311.093 466.708 311.936C465.419 313.214 464.997 314.339 464.821 314.281C464.645 314.222 464.821 312.967 466.11 311.408C466.938 310.373 468.008 309.558 469.225 309.033C470.442 308.509 471.77 308.293 473.09 308.403C474.411 308.513 475.684 308.946 476.798 309.665C477.912 310.383 478.832 311.364 479.477 312.522C480.473 314.257 480.391 315.559 480.274 315.559Z" fill="black"/>
</g>
<g id="Group_4" opacity="0.3">
<path id="Vector_15" opacity="0.3" d="M475.525 318.854C475.185 318.854 474.822 316.509 473.368 314.058C471.914 311.608 470.085 310.06 470.273 309.79C470.46 309.521 472.782 310.728 474.353 313.484C475.924 316.239 475.818 318.877 475.525 318.854Z" fill="black"/>
</g>
<g id="Group_5" opacity="0.3">
<path id="Vector_16" opacity="0.3" d="M473.837 313.73C473.919 314.07 472.489 314.515 471.316 315.664C470.144 316.813 469.323 318.15 468.971 318.009C468.62 317.868 469.042 316.344 470.472 314.879C471.903 313.413 473.825 313.448 473.837 313.73Z" fill="black"/>
</g>
<path id="Vector_17" d="M435.684 379.916C435.978 379.823 440.726 393.787 446.237 411.093C451.748 428.399 456.027 442.527 455.734 442.621C455.441 442.715 450.692 428.762 445.182 411.445C439.671 394.127 435.38 380.022 435.684 379.916Z" fill="#263238"/>
<path id="Vector_18" d="M446.717 414.364C446.518 414.575 441.676 410.741 435.626 406.086C429.576 401.432 424.827 397.41 425.073 397.14C425.32 396.871 430.303 400.505 436.364 405.184C442.426 409.862 446.952 414.106 446.717 414.364Z" fill="#263238"/>
<path id="Vector_19" d="M422.353 395.722C421.415 396.566 421.755 398.477 422.81 399.521C423.866 400.564 426.328 400.072 427.102 398.817C427.463 398.167 427.555 397.401 427.358 396.684C427.161 395.967 426.69 395.356 426.046 394.983C425.376 394.656 424.609 394.582 423.888 394.774C423.167 394.965 422.539 395.41 422.119 396.027" fill="#1E3932"/>
<path id="Vector_20" d="M446.717 373.116C447.069 373.186 446.026 378.158 443.974 383.985C441.922 389.812 440.656 394.596 440.362 394.537C440.069 394.479 440.831 389.46 442.883 383.61C444.935 377.759 446.436 373.057 446.717 373.116Z" fill="#263238"/>
<path id="Vector_21" d="M446.178 368.813C445.006 369.634 445.006 370.126 444.537 371.475C444.414 371.801 444.357 372.148 444.369 372.497C444.382 372.845 444.463 373.188 444.61 373.504C444.756 373.821 444.964 374.105 445.221 374.34C445.478 374.576 445.78 374.757 446.108 374.875C447.398 375.145 448.594 374.031 449.145 372.823C449.431 372.292 449.581 371.697 449.581 371.094C449.581 370.49 449.431 369.896 449.145 369.364C448.983 369.115 448.768 368.905 448.515 368.75C448.262 368.594 447.978 368.497 447.683 368.464C447.388 368.431 447.09 368.465 446.809 368.562C446.529 368.659 446.273 368.817 446.061 369.024" fill="#1E3932"/>
<path id="Vector_22" d="M426.422 410.073C426.305 409.78 428.345 408.643 430.971 407.54C433.597 406.438 435.837 405.77 435.966 406.051C436.095 406.333 434.066 407.482 431.417 408.596C428.767 409.71 426.539 410.366 426.422 410.073Z" fill="#263238"/>
<path id="Vector_23" d="M422.306 408.15C421.509 408.561 421.134 410.495 421.228 411.269C421.26 411.663 421.382 412.045 421.586 412.385C421.789 412.724 422.068 413.012 422.4 413.227C422.87 413.528 423.414 413.696 423.972 413.711C424.531 413.727 425.083 413.59 425.569 413.315C426.055 413.041 426.457 412.638 426.732 412.152C427.007 411.666 427.144 411.114 427.129 410.556C427.113 409.997 426.946 409.454 426.644 408.984C426.343 408.513 425.919 408.134 425.418 407.887C424.918 407.639 424.359 407.533 423.802 407.579C423.246 407.626 422.712 407.823 422.259 408.15" fill="#1E3932"/>
<path id="Vector_24" d="M430.631 376.692C430.44 377.573 430.545 378.493 430.93 379.308C431.316 380.123 431.959 380.788 432.761 381.2C433.563 381.612 434.479 381.747 435.366 381.585C436.253 381.423 437.062 380.972 437.666 380.303C437.959 379.993 438.182 379.622 438.32 379.218C438.458 378.813 438.506 378.384 438.463 377.958C438.226 377.104 437.754 376.333 437.101 375.732C436.449 375.131 435.641 374.725 434.77 374.558C433.941 374.462 433.102 374.613 432.36 374.992C431.617 375.372 431.003 375.964 430.596 376.692" fill="#1E3932"/>
<path id="Vector_25" d="M489.654 393.857C489.806 393.916 489.243 395.64 488.294 398.418L484.483 409.229L480.602 420.004C480.152 421.531 479.539 423.005 478.773 424.401C478.445 424.307 480.379 417.272 483.404 408.842C486.429 400.412 489.337 393.717 489.654 393.857Z" fill="#263238"/>
<path id="Vector_26" d="M508.015 385.943C507.407 388.796 505.966 391.404 503.876 393.438C501.785 395.472 499.139 396.84 496.271 397.37C493.402 397.9 490.442 397.568 487.762 396.416C485.083 395.264 482.805 393.343 481.217 390.896C479.629 388.45 478.803 385.587 478.841 382.671C478.88 379.754 479.782 376.915 481.434 374.511C483.086 372.108 485.414 370.248 488.123 369.167C490.832 368.086 493.801 367.832 496.654 368.438C498.55 368.839 500.349 369.611 501.947 370.708C503.545 371.805 504.911 373.207 505.966 374.833C507.022 376.459 507.746 378.278 508.097 380.184C508.449 382.091 508.421 384.048 508.015 385.943V385.943Z" fill="#006241"/>
<g id="Group_6" opacity="0.3">
<path id="Vector_27" opacity="0.3" d="M488.739 396.882C488.575 396.812 489.208 395.3 490.017 392.802C491.146 389.624 491.605 386.247 491.366 382.883C491.029 379.556 489.496 376.464 487.051 374.183C485.944 373.332 484.767 372.575 483.533 371.92C483.533 371.815 485.339 371.92 487.555 373.562C488.948 374.691 490.102 376.086 490.95 377.667C491.797 379.247 492.321 380.98 492.491 382.766C492.766 386.294 492.174 389.836 490.768 393.084C489.759 395.557 488.868 396.941 488.739 396.882Z" fill="black"/>
</g>
<g id="Group_7" opacity="0.3">
<path id="Vector_28" opacity="0.3" d="M507.769 381.089C507.71 381.429 503.794 380.01 499.198 381.382C494.602 382.754 492.069 386.072 491.823 385.779C491.577 385.486 492.163 384.759 493.324 383.575C494.869 382.032 496.777 380.901 498.873 380.286C500.968 379.672 503.184 379.593 505.318 380.057C506.936 380.421 507.828 380.96 507.769 381.089Z" fill="black"/>
</g>
<g id="Group_8" opacity="0.3">
<path id="Vector_29" opacity="0.3" d="M501.109 380.339C500.921 380.339 501.015 379.307 500.476 377.853C500.174 376.916 499.667 376.058 498.992 375.341C498.317 374.625 497.491 374.067 496.573 373.71C495.656 373.353 494.67 373.205 493.688 373.277C492.706 373.348 491.753 373.638 490.897 374.125C489.525 374.828 488.903 375.637 488.751 375.52C488.599 375.403 489.056 374.418 490.486 373.421C491.423 372.762 492.509 372.346 493.646 372.209C494.783 372.071 495.936 372.218 497.003 372.635C498.07 373.051 499.017 373.726 499.76 374.597C500.503 375.469 501.019 376.511 501.261 377.63C501.637 379.33 501.238 380.374 501.109 380.339Z" fill="black"/>
</g>
<g id="Group_9" opacity="0.3">
<path id="Vector_30" opacity="0.3" d="M496.407 381.898C496.079 381.828 496.314 379.799 495.727 377.443C495.141 375.086 494.062 373.386 494.32 373.175C494.578 372.964 496.22 374.511 496.853 377.173C497.486 379.834 496.689 381.992 496.407 381.898Z" fill="black"/>
</g>
<g id="Group_10" opacity="0.3">
<path id="Vector_31" opacity="0.3" d="M496.29 377.267C496.29 377.619 495.001 377.677 493.781 378.322C492.562 378.967 491.542 379.835 491.295 379.588C491.049 379.342 491.706 378.17 493.265 377.302C494.825 376.434 496.349 376.997 496.29 377.267Z" fill="black"/>
</g>
<path id="Vector_32" d="M455.687 362.916C455.98 363.705 456.173 364.529 456.261 365.366L457.434 372.084C458.348 377.771 459.521 385.627 460.74 394.303C461.96 402.979 463.015 410.859 463.718 416.58C464.012 419.242 464.27 421.505 464.481 423.345C464.63 424.173 464.673 425.016 464.61 425.855C464.318 425.069 464.125 424.249 464.035 423.416C463.73 421.587 463.355 419.336 462.863 416.698C461.96 411.011 460.787 403.144 459.556 394.42C458.325 385.697 457.282 377.853 456.578 372.143C456.285 369.481 456.027 367.219 455.816 365.378C455.669 364.566 455.626 363.738 455.687 362.916V362.916Z" fill="#263238"/>
<path id="Vector_33" d="M468.221 347.404C469.008 350.213 468.944 353.192 468.037 355.964C467.131 358.737 465.423 361.179 463.129 362.981C460.835 364.783 458.058 365.864 455.15 366.088C452.241 366.312 449.332 365.668 446.789 364.239C444.246 362.809 442.184 360.658 440.864 358.057C439.544 355.455 439.025 352.521 439.373 349.625C439.72 346.728 440.919 344 442.817 341.785C444.715 339.57 447.227 337.967 450.035 337.179C453.803 336.126 457.834 336.612 461.244 338.529C464.653 340.446 467.163 343.638 468.221 347.404V347.404Z" fill="#006241"/>
<g id="Group_11" opacity="0.3">
<path id="Vector_34" opacity="0.3" d="M456.273 366.023C455.899 364.645 455.648 363.236 455.523 361.813C455.035 358.487 453.874 355.296 452.111 352.434C450.271 349.643 447.479 347.618 444.255 346.735C442.88 346.494 441.488 346.365 440.093 346.348C440.093 346.266 441.676 345.481 444.419 345.938C446.178 346.293 447.849 346.994 449.335 348C450.82 349.006 452.091 350.298 453.072 351.8C454.948 354.801 456.063 358.214 456.32 361.743C456.563 363.161 456.547 364.611 456.273 366.023V366.023Z" fill="black"/>
</g>
<g id="Group_12" opacity="0.3">
<path id="Vector_35" opacity="0.3" d="M465.805 343.148C465.899 343.476 461.772 344.039 458.337 347.392C454.901 350.745 454.174 354.814 453.846 354.697C453.705 354.697 453.67 353.641 454.151 352.047C454.805 349.963 455.97 348.075 457.541 346.558C459.112 345.04 461.038 343.94 463.144 343.359C464.762 342.983 465.805 343.054 465.805 343.148Z" fill="black"/>
</g>
<g id="Group_13" opacity="0.3">
<path id="Vector_36" opacity="0.3" d="M459.568 345.621C459.392 345.692 458.993 344.754 457.856 343.722C457.152 343.032 456.302 342.507 455.369 342.187C454.437 341.867 453.444 341.759 452.464 341.872C451.485 341.984 450.543 342.314 449.706 342.837C448.87 343.36 448.162 344.063 447.632 344.894C446.741 346.149 446.565 347.157 446.377 347.122C446.19 347.087 446.131 346.008 446.94 344.472C447.463 343.454 448.23 342.581 449.172 341.931C450.114 341.282 451.202 340.875 452.34 340.747C453.477 340.619 454.628 340.775 455.691 341.2C456.754 341.625 457.695 342.306 458.43 343.182C459.556 344.484 459.685 345.598 459.568 345.621Z" fill="black"/>
</g>
<g id="Group_14" opacity="0.3">
<path id="Vector_37" opacity="0.3" d="M456.121 349.186C455.804 349.268 455.066 347.368 453.459 345.551C451.853 343.734 450.083 342.737 450.223 342.432C450.364 342.127 452.568 342.737 454.315 344.777C456.062 346.817 456.426 349.139 456.121 349.186Z" fill="black"/>
</g>
<g id="Group_15" opacity="0.3">
<path id="Vector_38" opacity="0.3" d="M453.858 345.152C453.998 345.469 452.908 346.114 452.134 347.239C451.36 348.365 450.833 349.584 450.504 349.514C450.176 349.444 450.223 348.072 451.196 346.583C452.169 345.094 453.787 344.871 453.858 345.152Z" fill="black"/>
</g>
<path id="Vector_39" d="M457.797 519.841L444.396 423.228H502.035L490.275 519.841H457.797Z" fill="#1E3932"/>
<path id="Vector_40" d="M497.885 461.006C497.885 461.276 487.074 461.498 473.755 461.498C460.436 461.498 449.637 461.276 449.637 461.006C449.637 460.736 460.436 460.525 473.755 460.525C487.074 460.525 497.885 460.748 497.885 461.006Z" fill="#FAFAFA"/>
<path id="Vector_41" d="M496.677 467.22C496.677 467.49 486.348 467.701 473.591 467.701C460.834 467.701 450.505 467.49 450.505 467.22C450.505 466.95 460.834 466.739 473.591 466.739C486.348 466.739 496.677 466.95 496.677 467.22Z" fill="#FAFAFA"/>
<path id="Vector_42" d="M495.962 473.165C495.962 473.434 485.961 473.645 473.685 473.645C461.409 473.645 451.407 473.434 451.407 473.165C451.407 472.895 461.397 472.684 473.685 472.684C485.972 472.684 495.962 472.895 495.962 473.165Z" fill="#FAFAFA"/>
<path id="Vector_43" d="M495.118 479.625C495.118 479.894 485.503 480.105 473.649 480.105C461.796 480.105 452.169 479.894 452.169 479.625C452.169 479.355 461.784 479.144 473.649 479.144C485.515 479.144 495.118 479.355 495.118 479.625Z" fill="#FAFAFA"/>
<path id="Vector_44" d="M494.449 485.522C494.449 485.792 485.28 486.003 473.966 486.003C462.651 486.003 453.471 485.792 453.471 485.522C453.471 485.253 462.64 485.018 474.013 485.018C485.386 485.018 494.449 485.253 494.449 485.522Z" fill="#FAFAFA"/>
<path id="Vector_45" d="M493.3 491.42C493.3 491.69 484.472 491.912 473.579 491.912C462.687 491.912 453.858 491.69 453.858 491.42C453.858 491.15 462.687 490.939 473.579 490.939C484.472 490.939 493.3 491.162 493.3 491.42Z" fill="#FAFAFA"/>
<path id="Vector_46" d="M493.019 497.329C493.019 497.587 484.436 497.81 473.849 497.81C463.261 497.81 454.678 497.587 454.678 497.329C454.678 497.071 463.261 496.837 473.849 496.837C484.436 496.837 493.019 497.06 493.019 497.329Z" fill="#FAFAFA"/>
<path id="Vector_47" d="M492.292 503.227C492.292 503.496 484.084 503.708 473.896 503.708C463.707 503.708 455.488 503.496 455.488 503.227C455.488 502.957 463.695 502.746 473.896 502.746C484.096 502.746 492.292 502.957 492.292 503.227Z" fill="#FAFAFA"/>
<path id="Vector_48" d="M29.7812 466.845L37.7893 519.548H84.384L95.1943 467.607L29.7812 466.845Z" fill="#006241"/>
<path id="Vector_49" d="M88.6753 500.624C88.6753 500.776 76.7394 500.894 62.0247 500.894C47.3099 500.894 35.3623 500.776 35.3623 500.624C35.3623 500.471 47.2982 500.343 62.0247 500.343C76.7511 500.343 88.6753 500.471 88.6753 500.624Z" fill="#FAFAFA"/>
<path id="Vector_50" d="M88.8627 498.033C88.8627 498.185 76.8447 498.303 62.0245 498.303C47.2043 498.303 35.1746 498.185 35.1746 498.033C35.1746 497.88 47.1925 497.751 62.0245 497.751C76.8565 497.751 88.8627 497.916 88.8627 498.033Z" fill="#FAFAFA"/>
<path id="Vector_51" d="M88.769 495.102C88.769 495.254 76.751 495.371 61.9308 495.371C47.1105 495.371 35.0808 495.254 35.0808 495.102C35.0808 494.949 47.0988 494.832 61.9308 494.832C76.7627 494.832 88.769 494.949 88.769 495.102Z" fill="#FAFAFA"/>
<path id="Vector_52" d="M43.1475 516.535C42.4936 514.365 42.0153 512.145 41.717 509.899C41.2357 507.687 40.9376 505.44 40.8259 503.18C41.4806 505.346 41.959 507.562 42.2564 509.805C42.7374 512.02 43.0354 514.271 43.1475 516.535V516.535Z" fill="#FAFAFA"/>
<path id="Vector_53" d="M46.3132 515.984C45.9887 513.836 45.7968 511.671 45.7387 509.5C45.4981 507.347 45.3963 505.181 45.4339 503.016C46.2658 507.285 46.5613 511.641 46.3132 515.984V515.984Z" fill="#FAFAFA"/>
<path id="Vector_54" d="M52.0938 515.972C51.4674 513.808 51.0743 511.583 50.9213 509.336C50.5749 507.11 50.4571 504.855 50.5695 502.605C51.0004 504.81 51.3019 507.037 51.4723 509.277C51.804 511.495 52.0115 513.73 52.0938 515.972V515.972Z" fill="#FAFAFA"/>
<path id="Vector_55" d="M56.1505 516.253C55.7008 514.035 55.4846 511.775 55.5056 509.512C55.3434 507.252 55.4102 504.981 55.705 502.735C55.9522 504.977 56.0657 507.232 56.045 509.488C56.2076 511.739 56.2429 513.998 56.1505 516.253Z" fill="#FAFAFA"/>
<path id="Vector_56" d="M63.3262 515.984C62.9783 513.868 62.8135 511.726 62.8338 509.582C62.6521 507.444 62.6521 505.295 62.8338 503.157C63.1747 505.273 63.3394 507.415 63.3262 509.559C63.5079 511.696 63.5079 513.846 63.3262 515.984V515.984Z" fill="#FAFAFA"/>
<path id="Vector_57" d="M68.5671 516.253C68.2348 511.846 68.2701 507.418 68.6727 503.016C69.005 507.424 68.9697 511.851 68.5671 516.253V516.253Z" fill="#FAFAFA"/>
<path id="Vector_58" d="M73.4797 515.503C73.5654 510.879 74.0123 506.269 74.8164 501.714C74.8695 504.027 74.7362 506.341 74.4177 508.632C74.2894 510.944 73.9757 513.241 73.4797 515.503V515.503Z" fill="#FAFAFA"/>
<path id="Vector_59" d="M79.823 514.858C80.0274 510.894 80.8749 506.989 82.3321 503.297C82.0556 505.249 81.6641 507.183 81.1596 509.089C80.8245 511.036 80.3782 512.962 79.823 514.858V514.858Z" fill="#FAFAFA"/>
<path id="Vector_60" d="M75.3675 362.869C75.3805 362.954 75.3805 363.041 75.3675 363.127C75.3675 363.326 75.2385 363.572 75.1564 363.877C74.9336 364.569 74.6405 365.518 74.2653 366.714C73.8901 367.91 73.3977 369.458 72.8935 371.228C72.3893 372.999 71.721 374.992 71.2169 377.232C70.7127 379.471 70.0444 381.922 69.3995 384.571C68.7546 387.221 68.227 390.059 67.6056 393.06C66.4331 399.063 65.4717 405.711 64.7564 412.723C64.0412 419.734 63.7598 426.453 63.666 432.561C63.666 435.621 63.666 438.529 63.7481 441.238C63.8302 443.946 63.9357 446.49 64.0764 448.788C64.2171 451.087 64.393 453.185 64.5337 455.014C64.6744 456.843 64.8385 458.415 64.991 459.704C65.1434 460.994 65.2137 461.944 65.2958 462.671C65.2958 462.976 65.2958 463.233 65.2958 463.445C65.3062 463.53 65.3062 463.617 65.2958 463.702C65.2958 463.702 65.2958 463.62 65.2958 463.445C65.2958 463.269 65.2254 462.987 65.1785 462.682C65.073 461.967 64.9323 460.982 64.7682 459.728C64.604 458.473 64.3813 456.879 64.2171 455.038C64.053 453.197 63.8067 451.122 63.6778 448.812C63.5488 446.502 63.3495 443.97 63.2791 441.249C63.2088 438.529 63.1619 435.61 63.1501 432.55C63.1501 426.429 63.5136 419.652 64.1937 412.617C64.8737 405.582 65.9524 398.934 67.1014 392.919C67.7228 389.918 68.2739 387.057 68.954 384.419C69.634 381.781 70.2202 379.319 70.8299 377.079C71.4396 374.84 72.0024 372.846 72.6004 371.088C73.1984 369.329 73.6204 367.828 74.0543 366.609C74.4881 365.39 74.7929 364.475 75.0392 363.795C75.1447 363.49 75.2385 363.256 75.3088 363.068C75.3203 362.999 75.34 362.933 75.3675 362.869V362.869Z" fill="#1E3932"/>
<path id="Vector_61" d="M66.9257 395.499C68.2078 391.703 70.7692 388.47 74.1717 386.354C74.7011 385.93 75.3273 385.643 75.9943 385.521C76.6613 385.398 77.3484 385.442 77.994 385.65C79.6238 386.436 79.7527 388.722 79.272 390.457C78.4322 393.408 76.5596 395.959 73.9958 397.645C71.7233 399.326 68.8792 400.042 66.0815 399.638" fill="#1E3932"/>
<path id="Vector_62" d="M64.1001 417.53C65.2726 412.981 68.9307 406.52 72.6944 403.706C73.2702 403.23 73.9362 402.875 74.6525 402.663C75.0102 402.56 75.3878 402.546 75.7518 402.624C76.1159 402.702 76.4551 402.868 76.7395 403.108C77.0632 403.534 77.2756 404.033 77.3575 404.561C77.4393 405.09 77.3881 405.63 77.2085 406.133C76.4395 409.448 74.7633 412.484 72.3676 414.9C69.9718 417.317 66.9509 419.019 63.6428 419.816" fill="#1E3932"/>
<path id="Vector_63" d="M63.3145 436.946C65.1888 432.607 68.1832 428.844 71.9909 426.042C72.397 425.669 72.8741 425.381 73.3938 425.196C73.9135 425.01 74.4651 424.931 75.0159 424.964C76.6691 425.257 77.3608 427.309 77.267 428.938C76.9622 432.362 74.3476 435.117 71.6391 437.251C69.1605 438.953 66.473 440.328 63.6427 441.343" fill="#1E3932"/>
<path id="Vector_64" d="M63.7483 450.864C65.5675 447.556 68.0888 444.687 71.135 442.457C71.7878 441.962 72.5462 441.625 73.351 441.472C73.753 441.399 74.1672 441.437 74.5493 441.582C74.9314 441.726 75.267 441.972 75.5201 442.293C76.2587 443.383 75.5201 444.849 74.7697 445.904C72.1591 449.532 68.4642 452.238 64.2173 453.631" fill="#1E3932"/>
<path id="Vector_65" d="M63.3845 445.154C60.2029 441.255 56.6706 437.656 52.8322 434.402C52.2342 433.898 51.4721 433.37 50.7334 433.605C50.4517 433.722 50.2099 433.919 50.0373 434.17C49.8646 434.422 49.7684 434.718 49.7603 435.023C49.7639 435.635 49.8999 436.239 50.1589 436.794C51.4217 439.597 53.2987 442.079 55.651 444.058C58.0033 446.037 60.7706 447.461 63.748 448.226" fill="#1E3932"/>
<path id="Vector_66" d="M63.7247 427.062L55.4352 417.014C54.7011 416.003 53.7869 415.137 52.7385 414.458C52.2314 414.067 51.6127 413.849 50.9727 413.835C50.3327 413.821 49.705 414.012 49.1812 414.38C48.6574 414.748 48.265 415.273 48.0612 415.88C47.8574 416.487 47.853 417.143 48.0485 417.753C48.3432 418.962 48.8951 420.094 49.6665 421.071C51.2797 423.556 53.3248 425.732 55.7049 427.496C58.1436 429.173 60.3948 430.251 63.2791 429.841" fill="#1E3932"/>
<path id="Vector_67" d="M64.8738 406.638C63.253 401.796 60.3763 397.47 56.5375 394.104C55.9302 393.503 55.1795 393.067 54.3566 392.837C53.5118 392.774 52.6713 393.006 51.9784 393.494C51.2856 393.981 50.7835 394.694 50.5578 395.511C50.2924 396.427 50.222 397.389 50.3513 398.334C50.4805 399.279 50.8065 400.186 51.3082 400.998C52.3256 402.617 53.6523 404.019 55.2125 405.125C58.0094 407.255 61.1231 408.932 64.44 410.096" fill="#1E3932"/>
<path id="Vector_68" d="M68.1919 388.417C67.3829 382.555 64.3344 377.689 60.8052 372.94C60.0548 371.944 59.023 370.877 57.7802 371.064C57.3901 371.146 57.0271 371.325 56.7255 371.586C56.4239 371.846 56.1937 372.179 56.0567 372.553C55.7771 373.302 55.6651 374.102 55.7284 374.898C55.8799 378.447 57.0725 381.872 59.1575 384.747C61.2424 387.622 64.1276 389.82 67.4532 391.067" fill="#1E3932"/>
<path id="Vector_69" d="M70.5133 379.119C70.1287 376.134 70.0267 373.119 70.2085 370.115C70.3998 367.073 71.4441 364.148 73.2218 361.673C73.9845 360.627 75.024 359.815 76.2233 359.328C76.8287 359.085 77.4861 359.002 78.1327 359.086C78.7794 359.17 79.3936 359.419 79.9167 359.808C80.353 360.206 80.6968 360.695 80.9237 361.24C81.1506 361.784 81.2551 362.373 81.2299 362.962C81.1321 364.181 80.8184 365.372 80.3036 366.48C78.0876 371.791 74.4412 377.677 70.5602 379.166" fill="#1E3932"/>
<path id="Vector_70" d="M34.3891 386.107C34.409 386.353 34.409 386.6 34.3891 386.846C34.3891 387.385 34.3891 388.089 34.3891 388.968C34.3891 389.847 34.3891 391.032 34.3891 392.333C34.3891 393.635 34.4477 395.135 34.5532 396.789C34.6939 400.083 35.0105 403.999 35.5147 408.338C36.0189 412.676 36.7927 417.401 37.8597 422.325C38.9266 427.25 40.1343 431.893 41.3771 436.067C42.62 440.241 43.9449 443.958 45.1408 447.03C45.7036 448.577 46.3133 449.949 46.7823 451.168C47.2513 452.388 47.7085 453.42 48.0837 454.264L48.9162 456.222C49.0228 456.448 49.1091 456.684 49.1742 456.925C49.0299 456.72 48.9081 456.5 48.8107 456.269C48.5762 455.788 48.2713 455.096 47.8844 454.358C47.4975 453.619 47.0051 452.493 46.5009 451.286C45.9967 450.078 45.3284 448.718 44.7773 447.17C43.5345 444.098 42.2096 440.393 40.8964 436.219C39.5832 432.045 38.3756 427.379 37.3789 422.443C36.3823 417.506 35.6319 412.734 35.116 408.373C34.6001 404.011 34.3657 400.083 34.2719 396.777C34.1898 395.124 34.2015 393.635 34.1898 392.321C34.1781 391.008 34.1898 389.871 34.1898 388.945C34.1898 388.018 34.1898 387.362 34.2601 386.822C34.2738 386.58 34.3171 386.339 34.3891 386.107V386.107Z" fill="#263238"/>
<path id="Vector_71" d="M35.6907 410.131C35.7472 407.273 36.7912 404.522 38.6453 402.346C38.918 401.944 39.2848 401.614 39.7139 401.385C40.1429 401.156 40.6213 401.035 41.1076 401.033C42.3856 401.221 42.9601 402.757 43.007 404.035C43.0709 406.226 42.3471 408.369 40.9669 410.073C39.7756 411.7 37.9961 412.798 36.0072 413.133" fill="#263238"/>
<path id="Vector_72" d="M38.5046 425.737C38.3405 422.384 39.4192 417.201 41.3772 414.47C41.6799 414 42.0797 413.6 42.5497 413.297C42.7698 413.149 43.0237 413.058 43.288 413.033C43.5523 413.009 43.8185 413.051 44.0622 413.156C44.3749 413.373 44.628 413.665 44.7981 414.005C44.9682 414.345 45.0498 414.723 45.0354 415.103C45.2238 417.529 44.7336 419.96 43.6196 422.124C42.5056 424.288 40.8118 426.099 38.7274 427.355" fill="#263238"/>
<path id="Vector_73" d="M42.1509 439.115C42.4766 435.759 43.6907 432.549 45.6683 429.818C45.8651 429.476 46.1284 429.178 46.4426 428.94C46.7568 428.703 47.1155 428.53 47.4974 428.434C48.6699 428.282 49.6196 429.489 49.8424 430.65C50.3817 433.054 49.1858 435.492 47.8023 437.521C46.4845 439.228 44.9469 440.754 43.2296 442.058" fill="#263238"/>
<path id="Vector_74" d="M45.4456 448.507C45.9683 445.866 47.0651 443.372 48.6582 441.202C48.9994 440.72 49.444 440.319 49.9596 440.03C50.2188 439.896 50.5096 439.835 50.8009 439.853C51.0922 439.872 51.3729 439.969 51.6128 440.135C52.3515 440.71 52.1874 441.859 51.8708 442.75C50.8809 445.781 48.9506 448.418 46.3601 450.277" fill="#263238"/>
<path id="Vector_75" d="M43.98 444.731C40.9709 442.761 37.788 441.069 34.4711 439.678C34.2328 439.534 33.9624 439.451 33.6842 439.437C33.4059 439.422 33.1285 439.477 32.8766 439.596C32.7156 439.74 32.5976 439.926 32.5355 440.133C32.4735 440.34 32.4698 440.56 32.5248 440.768C32.6459 441.187 32.8672 441.569 33.1697 441.882C34.6338 443.52 36.4482 444.807 38.478 445.648C40.5079 446.488 42.7011 446.86 44.8945 446.736" fill="#263238"/>
<path id="Vector_76" d="M40.2983 432.256C37.6954 430.552 35.0885 428.856 32.4778 427.168C31.778 426.631 30.9821 426.233 30.1328 425.995C29.705 425.845 29.2404 425.834 28.806 425.964C28.3715 426.094 27.9895 426.359 27.7147 426.719C27.4399 427.08 27.2864 427.519 27.2764 427.972C27.2664 428.426 27.4003 428.871 27.6589 429.243C28.1224 430.002 28.7419 430.653 29.4762 431.154C31.1119 432.497 32.974 433.538 34.9752 434.226C35.8686 434.607 36.8298 434.803 37.8009 434.803C38.772 434.803 39.7331 434.607 40.6266 434.226" fill="#263238"/>
<path id="Vector_77" d="M36.6754 418.186C34.5267 415.245 31.6386 412.923 28.3038 411.456C27.7622 411.173 27.156 411.036 26.5451 411.058C25.9565 411.198 25.4344 411.537 25.0669 412.018C24.6995 412.498 24.5093 413.091 24.5284 413.696C24.5489 414.377 24.7106 415.047 25.0032 415.662C25.2958 416.278 25.7131 416.826 26.2285 417.272C27.2635 418.148 28.4578 418.817 29.746 419.242C32.1079 420.09 34.5889 420.561 37.0975 420.637" fill="#263238"/>
<path id="Vector_78" d="M35.0222 405.043C33.2166 401.221 30.086 398.559 26.6624 396.085C26.3411 395.777 25.9451 395.558 25.5135 395.449C25.0818 395.34 24.6292 395.345 24.2002 395.464C23.9546 395.606 23.748 395.807 23.5987 396.048C23.4494 396.289 23.362 396.564 23.3442 396.847C23.3209 397.416 23.4168 397.983 23.6256 398.512C24.4906 400.9 26.0413 402.979 28.0833 404.49C30.1253 406 32.5677 406.873 35.1043 407.001" fill="#263238"/>
<path id="Vector_79" d="M34.6001 398.254C33.6973 396.288 32.9752 394.243 32.4427 392.146C31.9205 390.036 32.0017 387.822 32.6772 385.756C32.966 384.865 33.498 384.073 34.2132 383.469C34.5737 383.176 35.0033 382.98 35.461 382.9C35.9187 382.82 36.3893 382.859 36.8278 383.012C37.2178 383.198 37.5607 383.469 37.8308 383.806C38.1009 384.143 38.2911 384.537 38.3873 384.958C38.5789 385.796 38.6186 386.662 38.5045 387.514C38.141 391.618 36.8982 396.413 34.6001 398.254" fill="#263238"/>
<path id="Vector_80" d="M93.2831 385.591C93.3361 385.834 93.3597 386.082 93.3535 386.33C93.3535 386.869 93.3535 387.585 93.4356 388.464C93.5176 389.343 93.4356 390.516 93.4356 391.829C93.4356 393.142 93.4356 394.643 93.3535 396.296C93.2597 399.602 92.9783 403.53 92.5093 407.88C92.0403 412.23 91.2665 416.979 90.2464 421.95C89.2263 426.921 87.9014 431.541 86.7289 435.727C85.5564 439.913 84.0908 443.618 82.848 446.678C82.2618 448.226 81.6755 449.597 81.1362 450.805C80.5968 452.013 80.1396 453.033 79.7409 453.865L78.8146 455.788C78.7198 456.017 78.5978 456.233 78.4512 456.433C78.5247 456.198 78.6108 455.967 78.7091 455.741L79.5416 453.783C79.9168 452.939 80.3741 451.895 80.8548 450.676C81.3355 449.457 81.9335 448.097 82.4963 446.537C83.6687 443.465 84.9702 439.748 86.2482 435.586C87.5262 431.424 88.7222 426.769 89.7657 421.845C90.8092 416.92 91.5244 412.172 92.1106 407.845C92.6969 403.519 92.9314 399.638 93.0721 396.296C93.1893 394.655 93.1893 393.166 93.2362 391.852C93.2831 390.539 93.2362 389.414 93.2362 388.487C93.2362 387.561 93.2362 386.904 93.2362 386.353C93.2306 386.099 93.2463 385.844 93.2831 385.591V385.591Z" fill="#1E3932"/>
<path id="Vector_81" d="M91.9932 409.616C91.9354 406.755 90.887 404.004 89.0268 401.83C88.755 401.428 88.3882 401.098 87.9587 400.871C87.5292 400.644 87.0504 400.527 86.5646 400.529C85.2983 400.716 84.7121 402.241 84.6652 403.53C84.602 405.719 85.3259 407.857 86.7053 409.557C87.8957 411.185 89.6757 412.284 91.6649 412.617" fill="#1E3932"/>
<path id="Vector_82" d="M89.1676 425.222C89.3318 421.857 88.2531 416.674 86.2951 413.954C86.0092 413.494 85.6345 413.095 85.1929 412.781C84.9694 412.636 84.7138 412.547 84.4482 412.523C84.1826 412.498 83.9151 412.539 83.6687 412.641C83.3596 412.864 83.1095 413.158 82.9399 413.499C82.7704 413.841 82.6865 414.218 82.6955 414.599C82.508 417.023 82.9987 419.453 84.1127 421.614C85.2267 423.776 86.9201 425.585 89.0035 426.84" fill="#1E3932"/>
<path id="Vector_83" d="M85.533 438.599C85.2012 435.244 83.9876 432.036 82.0155 429.302C81.8188 428.96 81.5555 428.662 81.2413 428.424C80.9271 428.187 80.5684 428.015 80.1864 427.918C79.014 427.766 78.0642 428.973 77.8415 430.146C77.3021 432.491 78.4981 434.976 79.8816 437.017C81.205 438.715 82.7419 440.237 84.4543 441.542" fill="#1E3932"/>
<path id="Vector_84" d="M82.2267 448.003C81.7111 445.356 80.6138 442.857 79.0141 440.687C78.6815 440.2 78.2398 439.799 77.7243 439.514C77.4641 439.378 77.172 439.315 76.879 439.332C76.5859 439.348 76.3028 439.444 76.0594 439.608C75.3207 440.182 75.4849 441.343 75.8015 442.223C76.7928 445.253 78.7228 447.889 81.3122 449.75" fill="#1E3932"/>
<path id="Vector_85" d="M83.6921 444.216C86.7029 442.251 89.8856 440.564 93.201 439.174C93.4394 439.025 93.7115 438.938 93.9922 438.922C94.2729 438.905 94.5532 438.96 94.8073 439.08C94.9682 439.224 95.0863 439.41 95.1483 439.617C95.2104 439.824 95.2141 440.044 95.159 440.253C95.0288 440.67 94.8041 441.051 94.5025 441.367C93.0411 443.009 91.2275 444.299 89.1971 445.142C87.1668 445.984 84.9723 446.357 82.7776 446.232" fill="#1E3932"/>
<path id="Vector_86" d="M87.3737 431.799L95.1942 426.699C95.8981 426.169 96.6927 425.771 97.5392 425.526C97.9707 425.415 98.4248 425.424 98.8511 425.555C99.2774 425.685 99.6593 425.931 99.9545 426.265C100.192 426.64 100.318 427.075 100.318 427.52C100.318 427.964 100.192 428.399 99.9545 428.774C99.4942 429.535 98.8741 430.187 98.1372 430.685C96.506 432.035 94.6426 433.076 92.6382 433.757C91.7447 434.138 90.7836 434.334 89.8125 434.334C88.8414 434.334 87.8803 434.138 86.9868 433.757" fill="#1E3932"/>
<path id="Vector_87" d="M90.9851 417.635C93.1354 414.69 96.0281 412.368 99.3684 410.905C99.9088 410.63 100.509 410.493 101.115 410.507C101.704 410.647 102.226 410.986 102.594 411.467C102.961 411.947 103.151 412.54 103.132 413.145C103.115 413.827 102.955 414.498 102.662 415.114C102.369 415.73 101.95 416.277 101.432 416.721C100.403 417.607 99.2072 418.277 97.9145 418.691C95.5534 419.544 93.0723 420.019 90.563 420.098" fill="#1E3932"/>
<path id="Vector_88" d="M92.6499 404.527C94.4556 400.705 97.5861 398.043 101.01 395.581C101.329 395.269 101.724 395.046 102.156 394.935C102.588 394.824 103.042 394.828 103.472 394.948C103.718 395.092 103.926 395.295 104.075 395.538C104.224 395.781 104.311 396.058 104.328 396.343C104.357 396.912 104.261 397.48 104.047 398.008C103.176 400.389 101.623 402.461 99.5813 403.965C97.5397 405.468 95.1003 406.337 92.5679 406.461" fill="#1E3932"/>
<path id="Vector_89" d="M93.072 397.691C93.9817 395.732 94.704 393.69 95.2293 391.594C95.7513 389.481 95.6701 387.263 94.9948 385.193C94.7088 384.304 94.1761 383.515 93.4589 382.918C93.1006 382.621 92.6715 382.421 92.2133 382.339C91.7551 382.257 91.2835 382.295 90.8442 382.449C90.4542 382.635 90.1114 382.906 89.8413 383.243C89.5712 383.58 89.381 383.974 89.2848 384.395C89.0935 385.237 89.0538 386.107 89.1676 386.963C89.5311 391.055 90.7739 395.851 93.072 397.691" fill="#1E3932"/>
<path id="Vector_90" d="M24.4348 456.41V466.259C24.4348 466.768 24.5352 467.273 24.7302 467.744C24.9253 468.215 25.2111 468.642 25.5715 469.003C25.9319 469.363 26.3597 469.649 26.8306 469.844C27.3014 470.039 27.8061 470.139 28.3157 470.139H95.7689C96.7982 470.139 97.7853 469.731 98.5131 469.003C99.2409 468.275 99.6498 467.288 99.6498 466.259V456.41H24.4348Z" fill="#006241"/>
<g id="Group_16" opacity="0.4">
<path id="Vector_91" opacity="0.4" d="M30.2737 470.151L30.8365 473.293L93.0838 477.737L94.6666 470.151H30.2737Z" fill="black"/>
</g>
</g>
<g id="Character">
<path id="Vector_92" d="M275.781 204.794L264.243 83.6056C242.517 74.7416 227.204 96.4326 224.273 104.464C221.342 112.496 221.53 121.254 221.705 129.79C221.881 138.326 222.01 147.107 218.997 155.104C216.171 162.584 210.79 168.787 206.756 175.658C202.723 182.528 199.827 190.982 202.629 198.462C204.622 203.809 209.418 208.921 207.671 214.361C207.026 216.39 205.525 218.031 204.564 219.931C203.662 221.909 203.227 224.069 203.294 226.243C203.362 228.416 203.928 230.545 204.951 232.465C207.036 236.286 210.089 239.492 213.803 241.762C220.096 245.894 227.425 248.172 234.952 248.334C242.479 248.497 249.899 246.537 256.365 242.681C262.831 238.824 268.08 233.226 271.514 226.526C274.947 219.826 276.426 212.295 275.781 204.794V204.794Z" fill="#1E3932"/>
<path id="Vector_93" d="M382.7 182.939C381.832 178.331 378.561 174.555 375.032 171.472C371.502 168.388 367.551 165.703 364.608 162.092C360.071 156.464 358.347 149.089 357.327 141.925C356.307 134.761 352.449 126.683 349.882 119.859C347.314 113.035 340.936 106.305 336.832 101.779L333.314 243.392C347.783 243.392 359.414 238.034 368.043 228.982C372.334 224.399 375.382 218.795 376.896 212.702C378.411 206.609 378.342 200.23 376.696 194.171C381.187 193.069 383.567 187.547 382.7 182.939Z" fill="#1E3932"/>
<path id="Vector_94" d="M322.762 107.618L263.739 92.5517C244.827 90.5115 232.199 113.774 230.909 132.756C229.538 153.861 228.693 179.656 231.156 195.379C236.115 227.036 260.351 231.104 260.351 231.104C260.351 231.104 259.952 259.162 260.351 287.384L325.107 289.611L332.646 118.921C332.707 116.143 331.727 113.443 329.898 111.351C328.069 109.259 325.523 107.928 322.762 107.618Z" fill="#FFCEB0"/>
<path id="Vector_95" d="M241.86 158.774C241.844 159.833 242.244 160.856 242.974 161.623C243.704 162.39 244.706 162.841 245.765 162.877C246.281 162.92 246.8 162.86 247.292 162.698C247.784 162.537 248.238 162.279 248.628 161.939C249.019 161.599 249.337 161.184 249.564 160.719C249.791 160.254 249.922 159.748 249.95 159.231C249.963 158.173 249.562 157.151 248.833 156.385C248.104 155.618 247.104 155.167 246.046 155.127C245.53 155.084 245.011 155.145 244.519 155.306C244.027 155.467 243.573 155.726 243.182 156.066C242.792 156.406 242.474 156.82 242.247 157.286C242.02 157.751 241.888 158.257 241.86 158.774V158.774Z" fill="#263238"/>
<path id="Vector_96" d="M284.926 160.38C284.91 161.439 285.31 162.462 286.04 163.229C286.77 163.997 287.772 164.447 288.83 164.484C289.346 164.527 289.865 164.466 290.357 164.305C290.849 164.144 291.304 163.885 291.694 163.545C292.084 163.205 292.403 162.79 292.63 162.325C292.857 161.86 292.988 161.354 293.016 160.837C293.029 159.781 292.63 158.761 291.903 157.995C291.176 157.229 290.179 156.776 289.123 156.734C288.607 156.69 288.087 156.751 287.595 156.912C287.102 157.073 286.647 157.331 286.255 157.671C285.864 158.011 285.545 158.426 285.317 158.891C285.088 159.356 284.956 159.863 284.926 160.38V160.38Z" fill="#263238"/>
<path id="Vector_97" d="M265.31 179.445C265.31 179.198 262.614 178.718 258.217 178.155C257.103 178.026 256.048 177.803 255.872 177.053C255.782 175.9 256.044 174.747 256.622 173.746L259.94 165.258C264.548 153.181 267.89 143.25 267.397 143.074C266.905 142.898 262.778 152.536 258.17 164.613C257.068 167.591 256.001 170.475 254.992 173.148C254.57 174.415 253.82 175.845 254.406 177.522C254.568 177.914 254.817 178.264 255.134 178.546C255.451 178.828 255.827 179.035 256.235 179.152C256.854 179.322 257.493 179.413 258.135 179.421C262.578 179.667 265.31 179.691 265.31 179.445Z" fill="#263238"/>
<path id="Vector_98" d="M260.397 231.104C260.397 231.104 283.495 232.535 304.612 219.896C304.612 219.896 292.055 242.173 260.397 239.101V231.104Z" fill="#EB996E"/>
<path id="Vector_99" d="M267.163 189.974C267.994 188.933 269.075 188.121 270.305 187.612C271.536 187.104 272.875 186.916 274.198 187.066C275.162 187.154 276.098 187.437 276.95 187.896C277.803 188.356 278.553 188.982 279.157 189.739C279.74 190.468 280.084 191.358 280.145 192.289C280.206 193.219 279.98 194.147 279.497 194.945C278.325 196.598 275.851 196.973 273.764 196.375C271.703 195.644 269.81 194.507 268.195 193.034C267.703 192.686 267.282 192.248 266.952 191.744C266.79 191.503 266.704 191.219 266.704 190.929C266.704 190.639 266.79 190.355 266.952 190.114" fill="#C44165"/>
<path id="Vector_100" d="M279.017 136.79C279.451 137.962 283.812 137.423 288.936 138.056C294.06 138.689 298.199 140.084 298.879 139.029C299.184 138.513 298.468 137.399 296.792 136.239C294.57 134.841 292.06 133.964 289.451 133.673C286.841 133.383 284.2 133.687 281.725 134.562C279.791 135.312 278.841 136.25 279.017 136.79Z" fill="#1E3932"/>
<path id="Vector_101" d="M238.542 128.383C239.492 129.379 243.232 128.383 247.711 128.313C252.19 128.242 255.989 129.004 256.868 127.961C257.255 127.457 256.657 126.472 255.004 125.522C252.701 124.343 250.133 123.778 247.547 123.881C244.977 123.891 242.455 124.574 240.231 125.862C238.648 126.882 238.12 127.902 238.542 128.383Z" fill="#1E3932"/>
<path id="Vector_102" d="M292.113 139.463C294.178 139.956 296.195 140.63 298.14 141.479C300.002 142.489 301.768 143.666 303.416 144.997C302.123 143.233 300.388 141.842 298.386 140.964C296.461 139.926 294.299 139.408 292.113 139.463V139.463Z" fill="#EB996E"/>
<path id="Vector_103" d="M235.166 143.543C236.404 142.444 237.765 141.492 239.222 140.706C240.759 140.082 242.365 139.645 244.006 139.404C242.292 139.193 240.554 139.469 238.99 140.201C237.426 140.933 236.101 142.092 235.166 143.543V143.543Z" fill="#EB996E"/>
<path id="Vector_104" d="M358.922 191.826C359.098 173.43 354.232 155.151 351.723 136.919C350.714 129.555 349.671 122.075 346.587 115.321C342.202 105.766 334.042 98.4493 325.4 92.4579C315.469 85.5754 304.378 79.9943 292.442 78.1535C280.506 76.3127 267.608 78.5756 258.088 86.0092C256.611 87.1817 255.133 88.5887 254.852 90.4412C253.679 94.9435 255.884 96.8312 258.451 100.724C261.019 104.617 264.607 107.759 268.148 110.737L285.125 125.264C289.079 128.792 293.25 132.07 297.612 135.078C301.59 137.597 305.704 139.895 309.935 141.96L323.02 148.643C324.086 148.962 325.017 149.623 325.669 150.524C326.322 151.424 326.66 152.515 326.631 153.626C328.027 165.926 327.909 179.421 328.683 191.826C329.563 205.896 318.213 245.057 318.213 245.057L339.177 242.958C348.475 240.859 357.632 229.334 358.945 219.895C360.153 211.067 358.851 199.002 358.922 191.826Z" fill="#1E3932"/>
<path id="Vector_105" d="M325.107 162.256C325.447 155.526 332.775 151.035 338.614 154.4C341.815 156.253 344.266 159.981 343.972 167.122C343.187 186.186 324.216 181.461 324.204 180.922C324.228 180.582 324.744 170.135 325.107 162.256Z" fill="#FFCEB0"/>
<path id="Vector_106" d="M330.36 173.934C330.442 173.875 330.676 174.18 331.227 174.462C332.006 174.828 332.896 174.883 333.713 174.614C335.753 173.957 337.582 170.839 337.817 167.403C337.932 165.77 337.679 164.131 337.078 162.608C336.931 162.009 336.64 161.456 336.232 160.994C335.823 160.533 335.309 160.177 334.733 159.958C334.356 159.844 333.951 159.865 333.587 160.017C333.224 160.169 332.924 160.442 332.74 160.79C332.459 161.306 332.564 161.693 332.459 161.728C332.353 161.764 332.072 161.388 332.259 160.556C332.38 160.084 332.662 159.669 333.057 159.383C333.596 159.008 334.262 158.861 334.909 158.973C335.683 159.163 336.396 159.546 336.981 160.088C337.566 160.629 338.003 161.311 338.251 162.068C338.997 163.755 339.319 165.599 339.189 167.438C338.907 171.272 336.844 174.778 334.006 175.47C333.489 175.6 332.949 175.61 332.427 175.501C331.905 175.391 331.414 175.164 330.993 174.837C330.372 174.403 330.289 173.969 330.36 173.934Z" fill="#EB996E"/>
<path id="Vector_107" d="M336.832 182.2C336.832 182.94 336.613 183.663 336.202 184.278C335.791 184.893 335.207 185.372 334.523 185.655C333.84 185.939 333.088 186.013 332.362 185.868C331.637 185.724 330.97 185.368 330.447 184.845C329.924 184.322 329.568 183.655 329.423 182.93C329.279 182.204 329.353 181.452 329.636 180.769C329.919 180.085 330.399 179.501 331.014 179.09C331.629 178.679 332.352 178.46 333.092 178.46C334.084 178.46 335.035 178.854 335.737 179.555C336.438 180.257 336.832 181.208 336.832 182.2Z" fill="#263238"/>
<path id="Vector_108" d="M239.973 171.507C236.315 171.108 231.765 170.334 230.429 169.068C228.412 167.169 226.337 160.11 224.566 153.462C224.344 152.618 224.191 152.044 224.133 151.879L225.528 151.34C225.726 151.925 225.895 152.52 226.032 153.122C226.982 156.64 229.549 166.184 231.496 168.06C233.841 170.276 253.386 171.413 255.192 170.147C256.364 169.244 258.967 160.767 260.48 155.01L260.62 154.494L268.394 154.271L268.582 154.764C270.117 158.645 274.831 169.138 278.255 171.096C282.534 173.535 299.195 172.363 300.45 170.686C301.528 169.256 304.436 159.36 306.125 153.099L306.277 152.548L329.996 153.497V154.928L307.485 154.025C306.64 157.144 303.205 169.619 301.728 171.612C299.723 174.286 281.854 174.872 277.528 172.41C273.377 170.065 268.464 158.398 267.409 155.819L261.851 155.971C260.984 159.219 258.017 169.901 256.212 171.331C254.406 172.761 244.745 171.999 243.631 171.917C242.646 171.765 241.38 171.659 239.973 171.507Z" fill="#455A64"/>
<path id="Vector_109" d="M268.828 156.78L267.303 154.295C277.563 148.655 295.83 146.31 307.449 152.372L306.019 154.881C295.678 149.488 278.442 151.504 268.828 156.78Z" fill="#455A64"/>
<path id="Vector_110" d="M225.07 153.357L223.898 150.683C236.35 145.994 252.401 147.506 262.051 154.365L260.257 156.71C251.569 150.461 236.42 149.042 225.07 153.357Z" fill="#455A64"/>
<path id="Vector_111" d="M283.742 184.13C283.882 184.634 279.767 188.719 274.831 191.123C269.895 193.526 263.671 194.2 263.367 193.79C263.062 193.379 268.922 191.885 274.034 189.481C279.146 187.077 283.613 183.661 283.742 184.13Z" fill="#263238"/>
<path id="Vector_112" d="M333.772 234.235C336.516 233.641 339.215 232.857 341.85 231.89C344.892 230.668 347.746 229.022 350.327 227.001C351.942 225.759 353.441 224.373 354.806 222.862C359.888 217.273 362.865 210.088 363.225 202.543C363.551 196.556 362.289 190.59 359.566 185.248L359.027 184.205L358.417 183.185C358.007 182.505 357.561 181.836 357.092 181.168C356.071 179.776 355.18 178.292 354.431 176.736C353.688 175.037 353.393 173.176 353.575 171.331C353.704 169.525 354.103 167.814 354.208 166.137C354.702 159.048 352.972 151.982 349.26 145.923C345.587 139.802 340.631 134.55 334.733 130.528C329.222 126.742 323.327 123.547 317.146 120.996C311.283 118.464 305.491 116.377 300.133 114.325C294.775 112.273 289.792 110.268 285.371 108.146C281.355 106.291 277.51 104.086 273.881 101.556C271.136 99.6187 268.69 97.2879 266.623 94.6386C265.321 92.9631 264.284 91.0964 263.551 89.1045C263.357 88.5891 263.2 88.06 263.082 87.5217C263 87.1699 262.965 86.9823 263 86.9706C263.342 87.6141 263.64 88.28 263.891 88.9638C264.753 90.8487 265.861 92.6111 267.186 94.2048C269.298 96.7069 271.753 98.8977 274.479 100.712C278.108 103.122 281.936 105.216 285.922 106.973C290.331 109.002 295.302 110.924 300.661 112.906C306.019 114.887 311.823 116.928 317.802 119.437C324.114 122.001 330.135 125.228 335.765 129.063C341.911 133.208 347.077 138.647 350.902 144.997C354.803 151.385 356.604 158.836 356.049 166.301C355.92 168.118 355.521 169.818 355.404 171.46C355.238 173.022 355.476 174.601 356.096 176.044C356.791 177.501 357.619 178.891 358.57 180.195C359.039 180.875 359.508 181.579 359.93 182.305L360.563 183.384L361.138 184.486C363.949 190.104 365.216 196.368 364.807 202.636C364.48 208.081 362.834 213.364 360.012 218.031C358.791 220.054 357.352 221.938 355.721 223.647C354.293 225.184 352.722 226.581 351.031 227.821C348.327 229.806 345.349 231.386 342.19 232.511C340.197 233.219 338.139 233.729 336.046 234.036C335.297 234.183 334.535 234.25 333.772 234.235V234.235Z" fill="#1E3932"/>
<path id="Vector_113" d="M344.101 123.892C344.043 123.892 343.843 123.669 343.515 123.165C343.187 122.661 342.718 121.922 342.073 121.008C340.218 118.447 337.993 116.175 335.472 114.266C331.713 111.468 327.55 109.258 323.126 107.712C317.653 105.883 312.042 104.499 306.347 103.573C300.563 102.646 294.83 101.425 289.17 99.9148C284.5 98.6353 280.023 96.7303 275.863 94.2517C273.063 92.5697 270.533 90.4747 268.359 88.0375C267.512 87.1906 266.824 86.1976 266.33 85.1063C266.588 84.8601 269.473 89.21 276.519 93.1378C280.65 95.3845 285.041 97.1171 289.592 98.2968C294.716 99.7038 300.532 100.642 306.64 101.814C312.45 102.751 318.163 104.206 323.712 106.164C328.263 107.838 332.509 110.246 336.281 113.293C338.827 115.341 340.998 117.817 342.694 120.609C343.147 121.358 343.539 122.143 343.867 122.954C344.066 123.552 344.16 123.892 344.101 123.892Z" fill="#1E3932"/>
<path id="Vector_114" d="M229.444 118.03C229.245 118.03 229.245 115.427 230.358 111.429C230.653 110.337 231.013 109.264 231.437 108.216C231.907 107.017 232.439 105.842 233.032 104.699C235.761 99.3567 239.656 94.6965 244.428 91.0626C245.489 90.2877 246.589 89.5677 247.723 88.9052C248.681 88.3045 249.676 87.7641 250.701 87.2871C254.441 85.4932 256.986 85.0477 257.044 85.2353C257.103 85.4229 254.758 86.3726 251.24 88.4245C250.373 88.9404 249.435 89.4914 248.473 90.1832C247.512 90.875 246.515 91.6136 245.46 92.4226C241.01 96.0383 237.293 100.472 234.509 105.484C233.899 106.657 233.278 107.747 232.832 108.837C232.387 109.928 231.93 110.924 231.578 111.862C230.206 115.685 229.749 118.112 229.444 118.03Z" fill="#1E3932"/>
<path id="Vector_115" d="M363.928 383.117L405.399 380.573C405.399 380.573 404.766 308.301 392.713 289.611C382.875 274.369 341.452 264.497 341.452 264.497L326.983 248.176L294.388 283.057L283.836 282.518L260.257 247.648L240.782 264.157C240.782 264.157 190.529 271.016 182.064 286.117C173.598 301.219 156.867 343.3 156.867 343.3L193.378 367.687C201.949 397.082 201.246 393.353 201.246 393.353L208.796 424.623C208.058 435.457 214.049 453.701 214.049 453.701C215.984 465.707 196.134 519.841 196.134 519.841H379.71L355.932 477.725L363.928 383.117Z" fill="#006241"/>
<g id="Group_17" opacity="0.3">
<path id="Vector_116" opacity="0.3" d="M207.495 418.245C235.74 430.732 266.952 429.548 297.835 429.032C302.267 428.962 307.086 429.032 310.533 431.811C314.531 435.058 315.223 440.78 315.645 445.88C316.818 461.463 317.99 477.456 324.486 491.607C330.981 505.759 344.348 518.035 359.965 518.434C365.089 518.575 370.869 516.968 373.249 512.431C374.715 509.64 374.598 506.31 374.187 503.18C372.218 487.996 364.503 474.208 356.166 461.357C347.83 448.507 338.673 436.008 333.174 421.716C330.313 414.27 328.425 406.297 323.794 399.813C314.965 387.455 298.515 383.457 283.378 382.226C256.306 379.98 229.067 383.546 203.485 392.685" fill="black"/>
</g>
<path id="Vector_117" d="M317.509 292.39C317.392 292.273 322.586 286.434 329.117 279.352C335.648 272.271 341.053 266.607 341.17 266.725C341.287 266.842 336.105 272.669 329.562 279.763C323.02 286.856 317.638 292.508 317.509 292.39Z" fill="#263238"/>
<path id="Vector_118" d="M389.711 289.553C389.711 289.682 387.366 290.057 383.673 291.452C382.679 291.833 381.704 292.263 380.753 292.742C379.698 293.211 378.655 293.844 377.529 294.489C372.739 297.409 368.616 301.304 365.429 305.921C364.737 307.011 364.034 308.019 363.506 309.039C362.975 309.963 362.493 310.914 362.064 311.889C360.458 315.406 359.953 317.845 359.824 317.81C359.881 317.241 359.995 316.679 360.164 316.133C360.308 315.476 360.496 314.83 360.727 314.198C360.998 313.355 361.311 312.525 361.665 311.713C362.072 310.713 362.538 309.738 363.061 308.793C363.644 307.707 364.282 306.65 364.972 305.628C368.151 300.894 372.344 296.929 377.248 294.02C378.313 293.395 379.408 292.824 380.531 292.308C381.502 291.838 382.5 291.427 383.52 291.077C384.353 290.765 385.203 290.499 386.065 290.28C386.706 290.082 387.36 289.93 388.023 289.822C388.575 289.676 389.141 289.585 389.711 289.553V289.553Z" fill="#263238"/>
<path id="Vector_119" d="M302.83 473.938C302.56 473.992 302.284 474.015 302.009 474.008L299.664 474.114C298.644 474.114 297.389 474.184 295.924 474.114C294.458 474.044 292.805 474.114 290.964 473.985C289.123 473.856 287.118 473.797 284.973 473.575C282.827 473.352 280.529 473.094 278.114 472.777C267.666 471.286 257.433 468.558 247.629 464.652C245.39 463.714 243.244 462.858 241.298 461.92C239.351 460.982 237.522 460.138 235.881 459.294C234.239 458.449 232.797 457.64 231.531 456.949C230.265 456.257 229.186 455.6 228.307 455.049L226.302 453.783C226.065 453.642 225.838 453.485 225.622 453.314C225.885 453.406 226.137 453.528 226.372 453.677C226.888 453.982 227.544 454.357 228.424 454.85C229.303 455.342 230.394 456.022 231.695 456.667C232.997 457.312 234.427 458.156 236.08 458.942C237.733 459.727 239.527 460.642 241.497 461.498C243.467 462.354 245.601 463.245 247.84 464.159C252.74 466.048 257.734 467.684 262.801 469.06C267.879 470.389 273.021 471.461 278.208 472.273C280.611 472.601 282.898 472.941 285.031 473.117C287.165 473.293 289.17 473.492 290.999 473.598C292.829 473.704 294.517 473.762 295.947 473.809C297.378 473.856 298.656 473.879 299.676 473.868H302.021C302.292 473.864 302.563 473.887 302.83 473.938V473.938Z" fill="#263238"/>
<path id="Vector_120" d="M292.113 481.501C291.419 481.475 290.729 481.389 290.05 481.243L284.48 480.34C279.79 479.601 273.248 478.687 266.025 477.995C258.803 477.303 252.214 476.822 247.453 476.576L241.814 476.318C241.123 476.316 240.433 476.261 239.75 476.154C240.439 476.077 241.132 476.05 241.825 476.072C243.162 476.072 245.085 476.072 247.477 476.154C252.249 476.271 258.838 476.635 266.084 477.385C273.33 478.136 279.849 479.132 284.551 479.976C286.896 480.398 288.795 480.774 290.097 481.067C290.777 481.168 291.451 481.313 292.113 481.501V481.501Z" fill="#263238"/>
<g id="Group_18" opacity="0.3">
<path id="Vector_121" opacity="0.3" d="M314.414 295.837C316.341 296.485 318.444 296.355 320.276 295.474C321.823 294.472 323.214 293.247 324.404 291.839C330.395 285.39 336.386 278.356 338.368 269.773L329.996 278.965C324.134 285.461 320.499 289.518 314.437 295.837" fill="black"/>
</g>
<g id="Group_19" opacity="0.3">
<path id="Vector_122" opacity="0.3" d="M205.513 505.537C209.859 505.747 214.211 505.276 218.411 504.141C221.999 503.18 225.586 501.632 227.99 498.807C230.745 495.571 231.507 491.139 231.976 486.906C232.758 478.858 232.45 470.742 231.062 462.776C234.262 462.59 237.472 462.914 240.571 463.738C240.008 461.24 237.335 459.857 234.837 459.282C232.34 458.708 231.015 456.656 228.869 455.272C225.598 453.173 226.337 450.078 225.645 446.256C224.414 439.408 223.851 431.74 222.608 424.905C216.84 445.834 217.168 491.901 205.502 505.537" fill="black"/>
</g>
<path id="Vector_123" d="M162.131 392.251C162.131 392.251 162.577 397.68 163.058 404.187C163.538 410.694 163.89 472.004 165.461 479.168C167.454 488.254 180.704 504.962 190.177 506.24C206.158 508.433 217.508 502.934 218.739 482.286C219.196 474.7 223.886 405.852 223.886 405.852L225.152 376.387C225.152 376.387 192.393 367.559 190.599 367.101C188.805 366.644 162.131 392.251 162.131 392.251Z" fill="#FFCEB0"/>
<path id="Vector_124" d="M190.177 394.584C189.733 395.972 188.799 397.151 187.551 397.902C186.424 398.822 185.007 399.313 183.553 399.286C184.809 398.738 186.027 398.107 187.199 397.398C188.257 396.531 189.252 395.591 190.177 394.584V394.584Z" fill="#EB996E"/>
<path id="Vector_125" d="M201.996 482.286C202.064 482.003 202.162 481.728 202.289 481.466C202.488 480.926 202.875 480.176 203.204 479.121C204.235 476.232 204.931 473.234 205.279 470.186C205.769 465.665 205.702 461.102 205.08 456.597C204.303 451.078 203.036 445.64 201.292 440.346C199.463 434.707 197.447 429.407 195.7 424.553C193.953 419.699 192.499 415.29 191.49 411.515C190.675 408.542 190.033 405.523 189.568 402.475C189.392 401.396 189.333 400.552 189.274 399.978C189.226 399.691 189.207 399.401 189.216 399.11C189.305 399.388 189.364 399.675 189.392 399.966C189.497 400.529 189.591 401.373 189.802 402.44C190.354 405.46 191.058 408.449 191.913 411.398C192.956 415.15 194.457 419.535 196.239 424.365C198.021 429.196 200.038 434.496 201.879 440.159C203.634 445.503 204.89 450.998 205.631 456.574C206.246 461.124 206.269 465.735 205.701 470.292C205.319 473.361 204.555 476.37 203.426 479.25C203.063 480.281 202.629 481.02 202.406 481.595C202.294 481.839 202.156 482.071 201.996 482.286V482.286Z" fill="#EB996E"/>
<path id="Vector_126" d="M183.553 273.666L195.864 318.443L189.169 362.833L197.494 416.322C197.494 416.322 240.876 418.104 266.541 417.823C291.574 417.565 308.364 417.155 323.536 418.996L311.037 364.346L319.479 318.209L308.247 268.272C308.247 268.272 289.897 274.463 266.213 269.715C242.529 264.966 197.974 265.564 183.553 273.666Z" fill="white"/>
<path id="Vector_127" d="M183.553 273.666L185.616 272.657C185.956 272.505 186.343 272.282 186.789 272.13L188.254 271.614L189.966 271.016C190.576 270.805 191.256 270.664 191.971 270.465C200.255 268.45 208.719 267.268 217.238 266.935C222.737 266.595 228.834 266.513 235.494 266.631C242.666 266.76 249.828 267.253 256.95 268.108C258.862 268.389 260.808 268.589 262.813 268.952L268.769 269.996C270.774 270.383 272.838 270.582 274.925 270.852C277.012 271.121 279.134 271.215 281.291 271.262C285.718 271.406 290.149 271.238 294.552 270.758C299.167 270.296 303.729 269.401 308.176 268.085L308.446 268.002L308.505 268.272C311.952 283.514 315.762 300.433 319.772 318.208V318.314C317.076 333.099 314.25 348.541 311.342 364.463V364.252C315.071 380.503 318.94 397.386 322.903 414.669C323.231 416.099 323.559 417.518 323.876 418.913L323.97 419.335H323.536C312.374 418.18 301.152 417.702 289.932 417.905C278.899 417.905 268.077 418.186 257.513 418.139C236.408 417.987 216.265 417.319 197.517 416.592H197.306V416.369C194.304 396.917 191.526 379.002 189.028 362.868V362.798C191.596 345.914 193.871 331.024 195.782 318.419V318.525C191.913 304.35 188.864 293.129 186.777 285.449L184.432 276.702C184.174 275.717 183.975 274.979 183.846 274.463C183.717 273.947 183.647 273.701 183.647 273.701C183.647 273.701 183.74 273.97 183.881 274.475L184.526 276.737C185.089 278.731 185.909 281.674 186.976 285.496C189.099 293.141 192.206 304.314 196.122 318.443V318.525C194.234 331.117 192.006 346.02 189.474 362.904V362.845C191.995 378.978 194.797 396.847 197.845 416.334L197.587 416.099C216.347 416.803 236.432 417.459 257.56 417.6C268.112 417.6 278.935 417.377 289.968 417.342C301.214 417.129 312.463 417.595 323.653 418.737L323.313 419.113L322.34 414.856C318.389 397.597 314.519 380.714 310.791 364.439V364.252L319.245 318.115V318.22L308.036 268.284L308.364 268.471C303.88 269.786 299.284 270.68 294.634 271.145C290.211 271.612 285.76 271.772 281.315 271.625C279.146 271.625 277.012 271.367 274.913 271.203C272.814 271.039 270.739 270.723 268.734 270.324L262.778 269.269C260.831 268.905 258.885 268.706 256.986 268.425C249.863 267.562 242.702 267.061 235.529 266.924C228.893 266.795 222.784 266.853 217.297 267.182C208.799 267.478 200.351 268.613 192.077 270.57C191.373 270.758 190.693 270.898 190.072 271.098L188.36 271.672L186.894 272.165C186.46 272.329 186.085 272.528 185.722 272.681L183.553 273.666Z" fill="#FAFAFA"/>
<path id="Vector_128" d="M196.321 318.419L189.521 362.095L310.404 364.381L318.752 319.991L196.321 318.419Z" fill="#F2F0EB"/>
<path id="Vector_129" d="M288.901 365.87C288.901 366.046 273.142 365.495 253.726 364.697C234.31 363.9 218.552 363.044 218.552 362.88C218.552 362.716 234.31 363.255 253.726 364.053C273.142 364.85 288.901 365.706 288.901 365.87Z" fill="#FAFAFA"/>
<path id="Vector_130" d="M269.602 318.443C269.602 318.619 259.272 318.701 246.527 318.631C233.782 318.56 223.464 318.384 223.464 318.209C223.464 318.033 233.794 317.962 246.539 318.021C259.284 318.08 269.602 318.279 269.602 318.443Z" fill="#FAFAFA"/>
<path id="Vector_131" d="M314.039 328.468C309.161 327.225 307.438 319.815 312.292 318.455C314.636 317.896 317.067 317.813 319.444 318.208C331.79 319.78 349.131 323.438 354.384 326.603C359.637 329.769 364.937 331.082 361.22 339.501C361.22 339.501 364.737 341.764 362.873 349.185C362.472 350.521 361.787 351.755 360.867 352.803C359.946 353.851 358.811 354.689 357.538 355.259C357.538 355.259 359.121 359.949 356.764 363.56C355.631 365.546 354.108 367.281 352.285 368.66C352.285 372.178 352.004 374.828 350.972 375.754C350.972 375.754 339.142 389.156 332.318 388.898C325.494 388.64 322.856 387.725 321.285 381.863C319.714 376 319.174 371.803 322.07 368.965C322.07 368.965 316.501 366.48 316.501 362.282C316.519 361.062 316.885 359.872 317.556 358.852C318.227 357.832 319.175 357.025 320.288 356.525C320.288 356.525 313.136 356.877 312.351 355.294C311.565 353.711 310.51 350.041 312.608 347.943C314.707 345.844 323.243 343.475 323.243 343.475C323.243 343.475 303.85 341.412 301.493 339.571C299.137 337.73 297.812 333.005 302.806 331.434C307.801 329.863 323.384 330.883 323.384 330.883L314.039 328.468Z" fill="#FFCEB0"/>
<path id="Vector_132" d="M341.452 361.72C340.178 361.45 338.928 361.081 337.711 360.617C335.425 359.867 332.271 358.788 328.812 357.557C327.221 356.925 325.592 356.392 323.935 355.963C322.584 355.767 321.207 356.049 320.042 356.76C318.946 357.42 317.99 358.288 317.228 359.316C317.319 358.969 317.483 358.645 317.709 358.366C318.271 357.565 318.993 356.891 319.831 356.385C320.41 356.036 321.028 355.757 321.672 355.552C322.431 355.317 323.235 355.269 324.017 355.412C325.714 355.811 327.38 356.336 329 356.983C332.517 358.214 335.589 359.328 337.84 360.207C339.082 360.615 340.29 361.121 341.452 361.72Z" fill="#EB996E"/>
<path id="Vector_133" d="M329.797 371.498C329.081 371.419 328.377 371.257 327.698 371.017C326.02 370.581 324.368 370.048 322.75 369.423C321.085 368.837 319.563 367.906 318.283 366.691C317.719 366.201 317.335 365.536 317.193 364.803C317.298 364.803 317.615 365.53 318.576 366.386C319.894 367.456 321.385 368.293 322.985 368.86C324.837 369.598 326.584 370.15 327.839 370.607C328.534 370.8 329.195 371.1 329.797 371.498Z" fill="#EB996E"/>
<path id="Vector_134" d="M349.073 349.174C349.002 349.279 347.795 348.376 345.555 347.438C344.263 346.891 342.93 346.444 341.569 346.102C340.021 345.727 338.309 345.398 336.48 345.14C332.834 344.66 329.445 344.425 327.1 344.12C325.928 343.968 324.919 343.827 324.251 343.686C323.899 343.656 323.555 343.569 323.231 343.428C324.536 343.444 325.84 343.53 327.135 343.686C329.551 343.886 332.892 344.05 336.574 344.542C338.308 344.778 340.026 345.115 341.721 345.551C343.104 345.925 344.45 346.423 345.743 347.04C346.244 347.266 346.729 347.524 347.197 347.814C347.563 348.01 347.912 348.238 348.24 348.494C348.803 348.904 349.096 349.139 349.073 349.174Z" fill="#EB996E"/>
<path id="Vector_135" d="M352.004 337.695C350.565 337.341 349.148 336.902 347.76 336.382C345.169 335.538 341.546 334.447 337.489 333.486C333.432 332.524 329.715 331.856 327.018 331.434C325.548 331.269 324.088 331.022 322.645 330.695C323.034 330.648 323.428 330.648 323.818 330.695C324.58 330.695 325.682 330.836 327.054 330.988C330.604 331.415 334.128 332.045 337.606 332.876C341.087 333.703 344.516 334.733 347.877 335.96C349.167 336.429 350.222 336.839 350.902 337.132C351.29 337.275 351.66 337.464 352.004 337.695V337.695Z" fill="#EB996E"/>
<path id="Vector_136" d="M324.052 386.928C324.052 386.928 326.561 477.655 328.918 484.971C331.274 492.287 345.602 512.724 359.015 514.858C372.429 516.992 381.89 509.968 385.549 500.213C389.207 490.458 399.267 380.948 399.267 380.948H359.613L358.769 394.479L351.16 367.722L324.052 386.928Z" fill="#FFCEB0"/>
<path id="Vector_137" d="M384.974 475.509C385.031 475.188 385.109 474.871 385.209 474.56C385.302 474.255 385.408 473.88 385.502 473.387C385.596 472.895 385.725 472.402 385.818 471.804C386.389 468.427 386.428 464.981 385.936 461.592C385.176 456.572 383.686 451.69 381.515 447.1C379.17 441.859 375.981 436.395 372.921 430.498C369.861 424.6 367.211 418.831 365.065 413.485C362.92 408.138 361.278 403.214 359.953 399.075C358.628 394.936 357.608 391.548 356.952 389.214C356.635 388.042 356.377 387.186 356.19 386.518C356.09 386.207 356.012 385.889 355.955 385.568C356.102 385.861 356.22 386.167 356.307 386.482C356.518 387.139 356.811 388.03 357.186 389.144C357.948 391.489 359.039 394.842 360.364 398.934C361.689 403.026 363.436 407.951 365.593 413.274C367.75 418.597 370.412 424.33 373.46 430.228C376.509 436.125 379.698 441.589 382.031 446.877C384.202 451.522 385.664 456.467 386.369 461.545C386.833 464.974 386.726 468.457 386.053 471.851C385.956 472.381 385.831 472.906 385.678 473.422C385.585 473.82 385.468 474.212 385.326 474.595C385.239 474.91 385.121 475.217 384.974 475.509V475.509Z" fill="#EB996E"/>
<path id="Vector_138" d="M335.531 379.729C333.844 378.873 332.374 377.647 331.228 376.142C330.083 374.638 329.293 372.894 328.918 371.041C329.748 372.661 330.68 374.227 331.708 375.73C332.901 377.139 334.178 378.474 335.531 379.729Z" fill="#EB996E"/>
<path id="Vector_139" d="M347.771 373.632C347.595 373.632 347.408 372.155 346.599 370.537C345.79 368.919 344.781 367.84 344.91 367.711C345.941 368.271 346.735 369.182 347.15 370.279C347.76 371.283 347.981 372.476 347.771 373.632Z" fill="#EB996E"/>
<path id="Vector_140" d="M337.125 392.227C336.402 392.438 335.644 392.498 334.897 392.403C333.088 392.32 331.307 391.923 329.633 391.231C327.951 390.543 326.401 389.571 325.048 388.358C324.455 387.899 323.96 387.325 323.594 386.67C325.491 388.28 327.597 389.625 329.856 390.668C332.195 391.521 334.641 392.046 337.125 392.227Z" fill="#EB996E"/>
<path id="Vector_141" d="M352.285 368.649C352.543 369.567 352.611 370.529 352.485 371.474C352.324 373.762 351.752 376.002 350.796 378.087C349.803 380.18 348.263 381.966 346.341 383.258C345.579 383.829 344.704 384.229 343.773 384.43C343.773 384.337 344.723 383.914 346.118 382.894C347.892 381.559 349.319 379.818 350.28 377.818C351.202 375.787 351.811 373.629 352.086 371.416C352.262 369.727 352.18 368.66 352.285 368.649Z" fill="#EB996E"/>
<path id="Vector_142" d="M190.998 339.829C195.887 338.598 197.599 331.176 192.745 329.816C190.4 329.268 187.969 329.189 185.593 329.581C173.247 331.153 155.906 334.811 150.653 337.976C145.4 341.142 140.1 342.455 143.829 350.874C143.829 350.874 140.311 353.125 142.164 360.559C142.57 361.892 143.255 363.124 144.175 364.172C145.095 365.219 146.228 366.058 147.499 366.632C147.499 366.632 145.916 371.322 148.284 374.933C149.413 376.922 150.937 378.658 152.763 380.034C152.763 383.551 152.552 386.506 153.467 387.936C153.467 387.936 156.867 398.172 172.719 400.259C179.508 401.15 182.181 399.086 183.764 393.224C185.347 387.362 185.863 383.176 182.967 380.327C182.967 380.327 188.536 377.853 188.536 373.644C188.517 372.425 188.153 371.236 187.484 370.217C186.816 369.197 185.871 368.389 184.76 367.887C184.76 367.887 191.901 368.25 192.686 366.714C193.472 365.178 194.527 361.461 192.428 359.363C190.33 357.264 181.806 354.895 181.806 354.895C181.806 354.895 201.187 352.832 203.555 350.991C205.924 349.15 207.225 344.425 202.242 342.842C197.259 341.259 181.653 342.303 181.653 342.303L190.998 339.829Z" fill="#FFCEB0"/>
<path id="Vector_143" d="M163.585 373.093C164.74 372.488 165.945 371.982 167.185 371.58C169.436 370.724 172.566 369.575 176.025 368.344C177.649 367.708 179.314 367.183 181.008 366.773C181.791 366.634 182.595 366.686 183.353 366.925C184.002 367.117 184.621 367.397 185.194 367.758C186.039 368.253 186.764 368.93 187.316 369.739C187.546 370.011 187.71 370.332 187.797 370.677C187.033 369.655 186.077 368.791 184.983 368.133C183.82 367.416 182.441 367.134 181.09 367.336C179.43 367.771 177.797 368.308 176.201 368.942C172.684 370.114 169.588 371.287 167.29 372.014C166.082 372.461 164.844 372.822 163.585 373.093V373.093Z" fill="#EB996E"/>
<path id="Vector_144" d="M175.205 382.871C175.804 382.461 176.471 382.159 177.174 381.98C178.417 381.511 180.164 380.972 182.028 380.233C183.624 379.658 185.11 378.818 186.425 377.748C187.387 376.892 187.703 376.129 187.809 376.176C187.668 376.908 187.289 377.572 186.73 378.064C185.443 379.275 183.918 380.206 182.251 380.796C180.631 381.413 178.979 381.945 177.303 382.391C176.625 382.632 175.921 382.794 175.205 382.871Z" fill="#EB996E"/>
<path id="Vector_145" d="M155.976 360.547C155.976 360.547 156.234 360.266 156.785 359.867C157.113 359.611 157.462 359.384 157.828 359.187C158.293 358.893 158.779 358.634 159.282 358.413C160.575 357.796 161.921 357.298 163.304 356.924C164.997 356.482 166.716 356.146 168.451 355.916C172.133 355.423 175.486 355.247 177.89 355.06C179.189 354.896 180.496 354.81 181.806 354.802C181.474 354.932 181.128 355.018 180.774 355.06C180.106 355.2 179.132 355.329 177.936 355.482C175.521 355.787 172.18 356.033 168.557 356.514C166.739 356.772 165.039 357.088 163.468 357.463C162.108 357.811 160.776 358.258 159.482 358.8C157.254 359.75 156.034 360.641 155.976 360.547Z" fill="#EB996E"/>
<path id="Vector_146" d="M153.045 349.068C153.376 348.844 153.735 348.663 154.112 348.529C154.815 348.224 155.847 347.814 157.137 347.356C163.868 344.906 170.859 343.238 177.972 342.385C179.332 342.221 180.434 342.127 181.208 342.08C181.597 342.03 181.991 342.03 182.38 342.08C180.936 342.396 179.476 342.639 178.007 342.807C175.298 343.229 171.582 343.898 167.525 344.859C163.468 345.82 159.857 346.911 157.254 347.755C155.874 348.262 154.469 348.701 153.045 349.068V349.068Z" fill="#EB996E"/>
<path id="Vector_147" d="M169.518 391.102C170.866 389.858 172.138 388.534 173.329 387.139C174.353 385.633 175.284 384.067 176.119 382.449C175.832 384.336 175.02 386.103 173.774 387.549C172.703 389.096 171.232 390.324 169.518 391.102V391.102Z" fill="#EB996E"/>
<path id="Vector_148" d="M157.266 384.97C157.06 383.815 157.276 382.625 157.875 381.617C158.294 380.523 159.088 379.613 160.115 379.049C160.244 379.178 159.2 380.221 158.426 381.886C157.653 383.551 157.442 384.993 157.266 384.97Z" fill="#EB996E"/>
<path id="Vector_149" d="M175.697 401.502C175.233 401.522 174.769 401.486 174.314 401.396C173.056 401.236 171.808 401.013 170.573 400.728C169.788 400.529 168.932 400.318 168.029 400.048C167.126 399.778 166.165 399.462 165.192 399.028C163.033 398.179 160.998 397.043 159.142 395.651C157.248 394.287 155.652 392.552 154.452 390.551C154.175 390.105 153.932 389.638 153.725 389.156C153.497 388.718 153.317 388.259 153.185 387.784C153.045 387.327 152.904 386.893 152.775 386.459C152.646 386.025 152.634 385.603 152.576 385.204C152.454 384.484 152.403 383.754 152.423 383.024C152.399 382.478 152.435 381.932 152.529 381.394C152.552 380.928 152.635 380.467 152.775 380.022C152.823 380.482 152.823 380.946 152.775 381.405C152.722 381.944 152.722 382.486 152.775 383.024C152.791 383.733 152.87 384.439 153.01 385.134C153.08 385.521 153.162 385.931 153.244 386.306C153.326 386.682 153.525 387.139 153.666 387.573C153.804 388.03 153.993 388.471 154.229 388.886C154.43 389.35 154.669 389.797 154.944 390.223C156.138 392.143 157.695 393.812 159.529 395.135C161.333 396.49 163.303 397.609 165.391 398.465C166.341 398.922 167.302 399.192 168.17 399.532L170.655 400.283C173.751 401.115 175.721 401.385 175.697 401.502Z" fill="#EB996E"/>
</g>
<g id="speech bubble">
<path id="Vector_150" d="M164.141 112.376C169.116 82.1998 148.685 53.7047 118.509 48.7307C88.3321 43.7567 59.837 64.1872 54.863 94.3637C49.8889 124.54 70.3195 153.035 100.496 158.009C130.672 162.983 159.167 142.553 164.141 112.376Z" fill="white"/>
<path id="point-contact-1" d="M90 103.5C90 104.786 89.6188 106.042 88.9046 107.111C88.1903 108.18 87.1752 109.013 85.9874 109.505C84.7997 109.997 83.4928 110.126 82.2319 109.875C80.971 109.624 79.8128 109.005 78.9038 108.096C77.9948 107.187 77.3757 106.029 77.1249 104.768C76.8741 103.507 77.0028 102.2 77.4948 101.013C77.9867 99.8248 78.8199 98.8097 79.8888 98.0955C80.9577 97.3812 82.2144 97 83.5 97C85.2239 97 86.8772 97.6848 88.0962 98.9038C89.3152 100.123 90 101.776 90 103.5Z" fill="#1E3932"/>
<path id="point-contact-2" d="M115 103.5C115 104.786 114.619 106.042 113.905 107.111C113.19 108.18 112.175 109.013 110.987 109.505C109.8 109.997 108.493 110.126 107.232 109.875C105.971 109.624 104.813 109.005 103.904 108.096C102.995 107.187 102.376 106.029 102.125 104.768C101.874 103.507 102.003 102.2 102.495 101.013C102.987 99.8248 103.82 98.8097 104.889 98.0955C105.958 97.3812 107.214 97 108.5 97C110.224 97 111.877 97.6848 113.096 98.9038C114.315 100.123 115 101.776 115 103.5Z" fill="#1E3932"/>
<path id="point-contact-3" d="M140.121 100.235C140.767 101.348 141.069 102.628 140.987 103.912C140.905 105.197 140.444 106.428 139.662 107.45C138.88 108.472 137.812 109.239 136.594 109.654C135.375 110.068 134.061 110.112 132.818 109.779C131.575 109.446 130.459 108.751 129.611 107.783C128.762 106.815 128.221 105.617 128.055 104.34C127.888 103.064 128.104 101.767 128.676 100.614C129.247 99.4609 130.148 98.5033 131.264 97.8626C132.754 97.0074 134.522 96.7768 136.182 97.2214C137.842 97.666 139.258 98.7495 140.121 100.235Z" fill="#1E3932"/>
</g>
<g id="Desk">
<path id="Vector_151" d="M511.532 519.841C511.532 520.005 404.414 520.146 272.345 520.146C140.276 520.146 33.158 520.005 33.158 519.841C33.158 519.677 140.253 519.536 272.345 519.536C404.438 519.536 511.532 519.665 511.532 519.841Z" fill="#F2F0EB"/>
</g>
<g id="Envelope">
<path id="Vector_152" d="M164.394 531.46L132.421 564.888L252.085 569.73L271.947 535.341L164.394 531.46Z" fill="white"/>
<path id="Vector_153" d="M164.394 531.46H164.91H166.435L172.356 531.625L194.633 532.34L271.947 535.013H272.439L272.193 535.435L252.343 569.836L252.249 570H252.073L242.693 569.625L132.374 565.064H131.893L132.221 564.712L155.671 540.301L162.061 533.7L163.726 532L164.301 531.437C164.301 531.437 164.125 531.66 163.75 532.058L162.108 533.817L155.788 540.512L132.491 565.017L132.339 564.654L242.67 569.027L252.049 569.402L251.768 569.555C258.721 557.525 265.439 545.917 271.642 535.166L271.888 535.599L194.68 532.703L172.402 531.812L166.446 531.554L164.899 531.484L164.394 531.46Z" fill="#F2F0EB"/>
<path id="Vector_154" d="M271.947 535.283C271.947 535.447 259.495 539.046 244.03 543.326C228.565 547.605 216.007 550.947 215.96 550.783C215.913 550.619 228.412 547.019 243.866 542.74C259.319 538.46 271.9 535.13 271.947 535.283Z" fill="#F2F0EB"/>
<path id="Vector_155" d="M189.837 548.743C189.744 548.883 183.975 545.12 176.94 540.348C169.905 535.576 164.289 531.601 164.383 531.46C164.477 531.319 170.245 535.071 177.28 539.843C184.315 544.615 189.931 548.602 189.837 548.743Z" fill="#F2F0EB"/>
<path id="Vector_156" d="M132.421 564.888C132.421 564.888 180.704 537.417 184.409 537.663C188.114 537.909 252.049 569.73 252.049 569.73L132.421 564.888Z" fill="white"/>
<path id="Vector_157" d="M252.085 569.73C251.97 569.703 251.859 569.659 251.756 569.601L250.842 569.167L247.324 567.456L234.486 561.112L215.409 551.733C208.21 548.215 200.296 544.405 191.866 540.688C189.755 539.785 187.645 538.847 185.546 538.19C185.068 537.993 184.545 537.928 184.033 538.003C183.511 538.121 182.997 538.278 182.498 538.472C181.466 538.859 180.469 539.293 179.484 539.738C175.533 541.544 171.804 543.478 168.264 545.319C161.229 549.036 154.862 552.506 149.504 555.414L137.052 562.402C135.598 563.2 134.449 563.821 133.64 564.278L132.737 564.759C132.641 564.824 132.534 564.871 132.421 564.9C132.509 564.82 132.608 564.753 132.714 564.7L133.57 564.173L136.923 562.191C139.854 560.491 144.099 558.041 149.363 555.074C154.628 552.108 160.959 548.59 167.994 544.815C171.511 542.951 175.263 541.016 179.238 539.187C180.235 538.741 181.231 538.284 182.287 537.897C182.821 537.689 183.369 537.521 183.928 537.393C184.529 537.304 185.143 537.373 185.71 537.592C187.887 538.321 190.023 539.162 192.112 540.113C200.566 543.842 208.468 547.699 215.655 551.205C222.843 554.711 229.28 557.958 234.673 560.69L247.442 567.209L250.889 569.027L251.78 569.507L252.085 569.73Z" fill="#F2F0EB"/>
</g>
<circle id="Ellipse 13" cx="173" cy="143" r="9" fill="white"/>
<circle id="Ellipse 14" cx="196.5" cy="154.5" r="5.5" fill="white"/>
</g>
</svg>
