<svg width="520" height="492" viewBox="0 0 520 492" fill="none" xmlns="http://www.w3.org/2000/svg">
<g id="sharing-image">
<g id="Group 110">
<mask id="mask0" mask-type="alpha" maskUnits="userSpaceOnUse" x="0" y="0" width="520" height="492">
<ellipse id="Ellipse 11" cx="260" cy="246" rx="260" ry="246" fill="#F2F0EB"/>
</mask>
<g mask="url(#mask0)">
<g id="Group 117">
<ellipse id="Ellipse 10" cx="260" cy="246" rx="260" ry="246" fill="#F2F0EB"/>
<g id="Group">
<g id="Group_2">
<g id="Group_3">
<g id="Group_4">
<g id="Group_5">
<path id="Vector" d="M145.304 118.698H106.547C106.254 118.698 106.016 118.465 106.016 118.177V106.8C106.016 106.512 106.254 106.279 106.547 106.279H145.304C145.598 106.279 145.835 106.512 145.835 106.8V118.177C145.835 118.465 145.597 118.698 145.304 118.698Z" fill="#E8E6E2"/>
</g>
<g id="Group_6">
<path id="Vector_2" d="M166.218 132.298H127.462C127.169 132.298 126.931 132.065 126.931 131.778V120.401C126.931 120.114 127.169 119.881 127.462 119.881H166.218C166.512 119.881 166.749 120.114 166.749 120.401V131.778C166.749 132.065 166.512 132.298 166.218 132.298Z" fill="#E8E6E2"/>
</g>
<g id="Group_7">
<path id="Vector_3" d="M187.133 118.698H148.378C148.084 118.698 147.846 118.465 147.846 118.177V106.8C147.846 106.512 148.084 106.279 148.378 106.279H187.133C187.427 106.279 187.664 106.512 187.664 106.8V118.177C187.664 118.465 187.427 118.698 187.133 118.698Z" fill="#E8E6E2"/>
</g>
</g>
<g id="Group_8">
<g id="Group_9">
<path id="Vector_4" d="M423.216 121.527H384.46C384.167 121.527 383.929 121.294 383.929 121.007V109.63C383.929 109.342 384.167 109.109 384.46 109.109H423.216C423.51 109.109 423.747 109.342 423.747 109.63V121.007C423.747 121.294 423.51 121.527 423.216 121.527Z" fill="#E8E6E2"/>
</g>
<g id="Group_10">
<path id="Vector_5" d="M444.131 135.128H405.375C405.081 135.128 404.844 134.894 404.844 134.607V123.23C404.844 122.943 405.081 122.71 405.375 122.71H444.131C444.424 122.71 444.662 122.943 444.662 123.23V134.607C444.662 134.894 444.424 135.128 444.131 135.128Z" fill="#E8E6E2"/>
</g>
</g>
<g id="Group_11">
<g id="Group_12">
<path id="Vector_6" d="M160.557 250.769H121.8C121.507 250.769 121.269 250.536 121.269 250.248V238.872C121.269 238.584 121.507 238.351 121.8 238.351H160.557C160.851 238.351 161.089 238.584 161.089 238.872V250.248C161.089 250.536 160.851 250.769 160.557 250.769Z" fill="#E8E6E2"/>
</g>
<g id="Group_13">
<path id="Vector_7" d="M181.472 264.37H142.715C142.422 264.37 142.184 264.137 142.184 263.85V252.473C142.184 252.185 142.422 251.952 142.715 251.952H181.472C181.766 251.952 182.003 252.185 182.003 252.473V263.85C182.003 264.137 181.766 264.37 181.472 264.37Z" fill="#E8E6E2"/>
</g>
</g>
</g>
</g>
</g>
<g id="OBJECTS">
<g id="Group_14">
<g id="Group 154">
<g id="star-group">
<g id="star-light-circle-share" opacity="0.32" filter="url(#filter0_d)">
<path d="M311.377 128.938C335.492 128.938 355.042 108.748 355.042 83.8415C355.042 58.9353 335.492 38.7448 311.377 38.7448C287.261 38.7448 267.712 58.9353 267.712 83.8415C267.712 108.748 287.261 128.938 311.377 128.938Z" fill="#FFD28C" fill-opacity="0.2"/>
</g>
<g id="star-tree-light-share" filter="url(#filter1_d)">
<path d="M310.791 50.9669L319.462 77.4243C319.644 77.9763 320.165 78.3513 320.75 78.3513H348.813C350.124 78.3513 350.67 80.0137 349.607 80.7784L326.906 97.1298C326.431 97.4707 326.232 98.0763 326.413 98.6299L335.086 125.087C335.49 126.323 334.064 127.35 333.004 126.587L310.301 110.236C309.826 109.895 309.184 109.895 308.709 110.236L286.005 126.587C284.945 127.352 283.517 126.323 283.923 125.087L292.596 98.6299C292.777 98.0779 292.578 97.4724 292.103 97.1298L269.402 80.7784C268.341 80.0137 268.886 78.3513 270.196 78.3513H298.259C298.844 78.3513 299.365 77.9779 299.545 77.4243L308.218 50.9669C308.621 49.7315 310.385 49.7315 310.791 50.9669Z" fill="#F9CC85" fill-opacity="0.2"/>
</g>
<path id="star-tree-share" d="M310.476 63.8708L316.343 81.9282C316.466 82.3049 316.819 82.5609 317.214 82.5609H336.201C337.089 82.5609 337.458 83.6955 336.739 84.2174L321.379 95.3774C321.058 95.61 320.924 96.0233 321.046 96.4012L326.914 114.459C327.188 115.302 326.223 116.003 325.506 115.482L310.145 104.322C309.824 104.09 309.389 104.09 309.068 104.322L293.707 115.482C292.99 116.004 292.023 115.302 292.298 114.459L298.166 96.4012C298.288 96.0244 298.154 95.6111 297.833 95.3774L282.473 84.2174C281.755 83.6955 282.124 82.5609 283.011 82.5609H301.998C302.393 82.5609 302.746 82.306 302.868 81.9282L308.736 63.8708C309.008 63.0276 310.202 63.0276 310.476 63.8708Z" fill="#F9CC85"/>
</g>
<g id="tree-crhistmas">
<g id="Group_15">
<path id="Vector_8" d="M217.189 360.15C207.547 385.887 190.862 408.945 169.431 426.15C176.952 438.808 187.702 450.044 201.381 455.495C215.059 460.946 231.866 459.738 243.081 450.199C251.393 461.799 262.257 472.274 275.877 476.537C289.496 480.802 306.145 477.457 314.526 465.907C315.447 464.637 316.37 463.202 317.855 462.698C319.886 462.009 321.996 463.341 323.727 464.61C332.353 470.934 342.021 477.657 352.665 476.619C366.944 475.228 375.848 460.937 382.512 448.231C402.018 460.973 430.423 457.696 446.515 440.847C420.037 410.571 398.861 375.671 384.236 338.203C362.679 346.619 338.61 342.879 315.478 342.2C281.515 341.205 247.36 347.2 215.767 359.704" fill="#00754A"/>
</g>
<g id="Group_16">
<g id="Group_17">
<path id="Vector_9" d="M252.231 250.292C234.026 283.891 212.571 321.27 194.366 354.871C215.103 379.64 243.183 367.106 259.477 351.09C261.227 349.369 263.425 347.327 265.767 348.065C267.745 348.686 268.582 350.95 269.365 352.87C273.874 363.919 285.653 371.564 297.582 371.183C309.51 370.802 320.777 362.422 324.573 351.108C325.228 349.155 326.178 346.709 328.239 346.642C329.297 346.606 330.236 347.272 331.066 347.929C337.013 352.635 342.113 358.428 348.521 362.482C354.929 366.538 363.351 368.622 370.076 365.12C379.107 360.419 380.99 348.221 379.573 338.138C386.432 343.843 393.732 349.76 402.527 351.26C411.321 352.76 421.862 347.954 423.326 339.153C393.101 313.979 369.742 280.64 356.401 243.636C322.522 240.612 288.271 241.789 254.679 247.128" fill="#00754A"/>
</g>
<g id="Group_18">
<path id="Vector_10" d="M195.217 354.082C197.402 356.471 199.858 358.581 202.496 360.385C205.117 362.213 207.928 363.74 210.855 364.942C216.695 367.369 223.007 368.544 229.197 368.238C235.385 367.978 241.466 366.241 246.871 363.352C252.297 360.506 257.094 356.499 260.696 351.659L263.722 347.593L265.481 352.497C267.621 358.459 271.815 363.667 277.1 367.226C282.371 370.812 288.727 372.712 294.919 372.479C301.121 372.235 307.243 369.712 312.117 365.719C316.979 361.72 320.727 356.298 322.253 350.292L324.045 343.247L328.259 349.143C331.861 354.182 336.225 358.703 341.241 362.151C346.211 365.639 351.909 368.016 357.821 368.453C360.684 368.675 363.619 368.316 366.433 367.461C369.252 366.63 371.957 365.314 374.345 363.577C376.729 361.843 378.8 359.681 380.291 357.197C381.784 354.716 382.671 351.914 382.799 349.031L383.02 344.009L386.515 347.4C389.477 350.274 393.291 352.305 397.416 353.348C401.541 354.386 405.951 354.577 410.252 353.853C414.545 353.122 418.752 351.569 422.461 349.151C426.149 346.723 429.377 343.433 431.475 339.389C429.838 343.627 426.971 347.453 423.316 350.326C419.682 353.231 415.363 355.307 410.787 356.426C406.218 357.539 401.365 357.805 396.632 356.886C391.91 355.994 387.297 353.929 383.532 350.698L387.249 349.066C387.342 352.742 386.345 356.432 384.597 359.63C382.855 362.845 380.418 365.607 377.611 367.844C372.001 372.311 364.826 374.859 357.447 374.498C350.241 374.154 343.361 371.454 337.549 367.585C331.737 363.656 326.843 358.642 322.789 353.081L328.795 351.931C326.92 359.519 322.384 366.234 316.397 371.003C310.434 375.792 302.96 378.841 295.157 379.09C287.345 379.368 279.741 376.682 273.573 372.284C267.412 367.872 262.474 361.567 260.249 354.212L265.034 355.05C260.668 360.401 255.095 364.647 248.935 367.524C242.756 370.361 235.983 371.846 229.235 371.724C222.489 371.557 215.881 369.786 210.015 366.737C207.085 365.201 204.338 363.355 201.836 361.241C199.35 359.106 197.123 356.699 195.217 354.082Z" fill="#192B1A"/>
</g>
</g>
<g id="Group_19">
<g id="Group_20">
<path id="Vector_11" d="M242.391 235.271C266.643 193 289.489 149.922 310.879 106.133C320.265 153.106 345.638 197.793 368.899 239.668C357.438 261.78 330.28 248.104 318.788 234.182C314.719 241.675 308.952 248.737 300.999 251.81C293.045 254.881 282.672 252.741 278.423 245.349C271.178 251.557 260.33 250.481 251.048 248.276C248.046 247.563 244.913 246.685 242.723 244.51C240.533 242.335 239.74 238.449 241.842 236.189" fill="#00754A"/>
</g>
<g id="Group_21">
<path id="Vector_12" d="M238.701 239.66C240.853 242.898 243.628 245.589 246.777 247.563C249.895 249.58 253.418 250.831 256.945 251.305C260.478 251.764 264.076 251.398 267.41 250.342C270.745 249.284 273.816 247.526 276.31 245.228L278.673 243.05L280.701 245.81C282.802 248.667 285.706 250.95 288.964 252.388C292.213 253.86 295.82 254.456 299.26 254.121C302.701 253.767 306.089 252.425 308.962 250.363C311.826 248.289 314.207 245.518 315.641 242.333L317.222 238.819L320.374 240.86C324.145 243.304 328.273 245.268 332.63 246.588C334.8 247.28 337.032 247.804 339.293 248.163C341.552 248.54 343.845 248.775 346.151 248.83C348.454 248.887 350.773 248.785 353.083 248.542C355.332 248.253 357.606 247.807 359.755 247C361.889 246.184 363.974 245.137 365.713 243.625C367.474 242.138 368.826 240.143 369.512 237.798C369.396 240.22 368.425 242.702 366.782 244.648C365.194 246.656 363.101 248.205 360.871 249.428C358.635 250.654 356.234 251.565 353.743 252.177C351.294 252.765 348.797 253.149 346.275 253.357C341.23 253.733 336.096 253.353 331.125 252.167C328.644 251.563 326.184 250.815 323.807 249.836C321.433 248.857 319.125 247.7 316.904 246.382L321.637 244.909C319.814 249.298 316.76 253.094 312.976 255.864C309.204 258.65 304.676 260.475 299.911 260.9C295.145 261.351 290.379 260.335 286.184 258.303C282.001 256.243 278.323 253.106 275.795 249.141L280.186 249.722C276.822 252.47 272.838 254.326 268.705 255.238C264.573 256.153 260.252 256.124 256.2 255.084C252.142 254.059 248.47 251.985 245.433 249.339C242.422 246.653 240.046 243.32 238.701 239.66Z" fill="#192B1A"/>
</g>
</g>
<g id="Group_22">
<g id="Group_23">
<path id="Vector_13" d="M260.728 227.635C260.348 226.457 260.354 225.521 260.476 224.657C260.615 223.803 260.902 223.042 261.325 222.366C261.744 221.688 262.301 221.095 263.007 220.597C263.729 220.108 264.57 219.693 265.8 219.522C266.185 220.703 266.181 221.641 266.057 222.504C265.918 223.358 265.628 224.117 265.203 224.791C264.779 225.467 264.221 226.058 263.516 226.557C262.793 227.046 261.954 227.461 260.728 227.635Z" fill="#F9F9F9"/>
</g>
<g id="Group_24">
<path id="Vector_14" d="M277.92 197.182C277.786 195.298 278.024 193.628 278.359 192.01C278.709 190.4 279.194 188.862 279.795 187.369C280.395 185.877 281.117 184.437 281.985 183.035C282.87 181.639 283.861 180.274 285.274 179.016C285.674 180.867 285.601 182.593 285.365 184.268C285.112 185.938 284.661 187.548 284.035 189.087C283.41 190.626 282.615 192.095 281.634 193.471C280.636 194.838 279.49 196.129 277.92 197.182Z" fill="#F9F9F9"/>
</g>
<g id="Group_25">
<path id="Vector_15" d="M314.485 170.837C315.727 171.944 316.56 173.089 317.302 174.248C318.025 175.411 318.619 176.591 319.109 177.812C319.6 179.032 319.986 180.295 320.264 181.634C320.527 182.984 320.712 184.389 320.57 186.051C319.059 185.339 317.961 184.32 317.028 183.206C316.109 182.08 315.387 180.834 314.861 179.511C314.333 178.188 313.999 176.788 313.888 175.34C313.796 173.887 313.888 172.392 314.485 170.837Z" fill="#F9F9F9"/>
</g>
<g id="Group_26">
<path id="Vector_16" d="M332.741 220.536C334.167 220.743 335.235 221.156 336.227 221.621C337.203 222.097 338.067 222.644 338.864 223.28C339.662 223.913 340.385 224.636 341.065 225.483C341.735 226.346 342.372 227.3 342.885 228.651C341.475 228.981 340.235 228.822 339.088 228.489C337.948 228.14 336.908 227.581 336.006 226.854C335.102 226.129 334.329 225.237 333.738 224.201C333.161 223.152 332.733 221.98 332.741 220.536Z" fill="#F9F9F9"/>
</g>
<g id="Group_27">
<path id="Vector_17" d="M300.285 216.478C301.311 217.23 301.884 218.025 302.321 218.835C302.739 219.647 302.983 220.476 303.068 221.322C303.156 222.166 303.085 223.027 302.836 223.906C302.569 224.785 302.163 225.681 301.299 226.62C300.266 225.87 299.691 225.073 299.256 224.263C298.838 223.451 298.596 222.622 298.515 221.776C298.432 220.93 298.505 220.07 298.755 219.191C299.024 218.312 299.427 217.418 300.285 216.478Z" fill="#F9F9F9"/>
</g>
<g id="Group_28">
<path id="Vector_18" d="M287.083 298.629C287.744 299.946 287.961 301.157 288.044 302.336C288.109 303.511 288.003 304.645 287.744 305.742C287.487 306.839 287.072 307.9 286.485 308.919C285.88 309.934 285.14 310.918 283.952 311.795C283.286 310.477 283.068 309.266 282.986 308.086C282.921 306.912 283.028 305.778 283.293 304.682C283.554 303.587 283.97 302.526 284.557 301.507C285.163 300.492 285.902 299.508 287.083 298.629Z" fill="#F9F9F9"/>
</g>
<g id="Group_29">
<path id="Vector_19" d="M244.364 332.054C244.816 333.591 244.664 335.074 244.255 336.45C243.829 337.822 243.11 339.086 242.171 340.158C241.236 341.232 240.078 342.112 238.774 342.715C237.463 343.301 236.012 343.647 234.426 343.393C235.124 341.957 235.838 340.897 236.546 339.891C237.259 338.899 237.972 338.003 238.732 337.143C239.488 336.281 240.285 335.458 241.174 334.62C242.08 333.786 243.037 332.937 244.364 332.054Z" fill="#F9F9F9"/>
</g>
<g id="Group_30">
<path id="Vector_20" d="M259.773 275.336C260.015 276.884 259.857 278.216 259.578 279.483C259.281 280.74 258.831 281.915 258.241 283.015C257.654 284.116 256.924 285.14 256.039 286.081C255.137 287.013 254.112 287.879 252.681 288.527C252.433 286.977 252.59 285.644 252.87 284.378C253.167 283.12 253.619 281.947 254.213 280.849C254.804 279.751 255.536 278.726 256.421 277.785C257.324 276.854 258.348 275.987 259.773 275.336Z" fill="#F9F9F9"/>
</g>
<g id="Group_31">
<path id="Vector_21" d="M347.989 333.102C349.463 334.015 350.562 334.979 351.605 335.946C352.631 336.92 353.559 337.907 354.437 338.937C355.317 339.966 356.139 341.041 356.934 342.211C357.721 343.394 358.493 344.636 359.154 346.243C357.412 346.209 355.896 345.646 354.525 344.881C353.161 344.102 351.955 343.085 350.951 341.898C349.946 340.712 349.137 339.358 348.59 337.886C348.058 336.409 347.748 334.824 347.989 333.102Z" fill="#F9F9F9"/>
</g>
<g id="Group_32">
<path id="Vector_22" d="M342.878 269.22C343.805 270.17 344.374 270.94 344.87 271.681C345.349 272.42 345.721 273.115 346.014 273.843C346.312 274.569 346.527 275.326 346.692 276.191C346.848 277.068 346.97 278.017 346.955 279.349C345.617 279.362 344.554 278.85 343.686 278.166C342.826 277.468 342.171 276.56 341.77 275.553C341.366 274.546 341.209 273.438 341.345 272.34C341.501 271.241 341.91 270.139 342.878 269.22Z" fill="#F9F9F9"/>
</g>
<g id="Group_33">
<path id="Vector_23" d="M382.457 321.935C383.743 321.655 384.776 321.754 385.733 321.965C386.679 322.195 387.528 322.569 388.291 323.076C389.053 323.58 389.726 324.217 390.3 325.003C390.866 325.805 391.352 326.722 391.585 328.022C390.295 328.308 389.261 328.21 388.305 327.997C387.359 327.768 386.51 327.392 385.751 326.882C384.991 326.374 384.319 325.734 383.743 324.949C383.181 324.146 382.693 323.231 382.457 321.935Z" fill="#F9F9F9"/>
</g>
<g id="Group_34">
<path id="Vector_24" d="M314.265 304.788C315.508 305.605 316.318 306.559 316.996 307.552C317.655 308.552 318.147 309.603 318.489 310.701C318.832 311.798 319.02 312.943 319.041 314.14C319.044 315.344 318.913 316.587 318.342 317.968C317.091 317.151 316.281 316.197 315.604 315.204C314.944 314.205 314.454 313.152 314.117 312.053C313.778 310.955 313.591 309.81 313.571 308.613C313.57 307.408 313.701 306.165 314.265 304.788Z" fill="#F9F9F9"/>
</g>
<g id="Group_35">
<path id="Vector_25" d="M293.439 337.936C294.188 339.328 294.62 340.605 294.878 341.923C295.128 343.229 295.207 344.527 295.131 345.819C295.057 347.111 294.82 348.397 294.4 349.675C293.953 350.939 293.395 352.252 292.256 353.422C291.501 352.03 291.067 350.753 290.81 349.435C290.56 348.129 290.482 346.831 290.564 345.539C290.643 344.248 290.882 342.961 291.302 341.684C291.749 340.419 292.305 339.106 293.439 337.936Z" fill="#F9F9F9"/>
</g>
<g id="Group_36">
<path id="Vector_26" d="M287.353 403.356C287.822 405.158 287.987 406.819 287.976 408.482C287.958 410.135 287.771 411.754 287.434 413.344C287.097 414.935 286.604 416.494 285.928 418.016C285.229 419.524 284.415 421.051 283.043 422.375C282.567 420.572 282.401 418.91 282.415 417.247C282.432 415.595 282.618 413.976 282.962 412.388C283.305 410.798 283.798 409.239 284.474 407.716C285.175 406.208 285.987 404.68 287.353 403.356Z" fill="#F9F9F9"/>
</g>
<g id="Group_37">
<path id="Vector_27" d="M221.228 387.925C221.03 389.957 220.32 391.758 219.409 393.427C218.484 395.086 217.321 396.594 215.979 397.921C214.639 399.249 213.115 400.391 211.444 401.294C209.764 402.184 207.952 402.869 205.914 403.032C206.924 401.26 208.056 399.844 209.202 398.482C210.356 397.133 211.536 395.874 212.768 394.666C213.998 393.455 215.273 392.29 216.636 391.156C218.015 390.028 219.446 388.914 221.228 387.925Z" fill="#F9F9F9"/>
</g>
<g id="Group_38">
<path id="Vector_28" d="M245.611 424.465C245.454 426.445 244.803 428.196 243.966 429.824C243.111 431.444 242.032 432.924 240.781 434.238C239.53 435.552 238.102 436.699 236.524 437.627C234.936 438.541 233.217 439.271 231.241 439.514C232.1 437.725 233.118 436.287 234.163 434.914C235.217 433.552 236.314 432.288 237.473 431.08C238.63 429.871 239.843 428.715 241.154 427.599C242.481 426.494 243.867 425.409 245.611 424.465Z" fill="#F9F9F9"/>
</g>
<g id="Group_39">
<path id="Vector_29" d="M326.148 375.21C328.013 376.459 329.523 377.873 330.948 379.331C332.361 380.792 333.654 382.31 334.881 383.849C336.111 385.385 337.258 386.962 338.409 388.488C338.983 389.251 339.557 390.003 340.173 390.701C340.814 391.396 341.391 392.08 342.505 392.327C342.079 392.712 341.448 392.882 340.825 392.909C340.215 392.919 339.596 392.812 339.035 392.642C337.896 392.297 336.891 391.741 335.966 391.128C334.128 389.877 332.614 388.345 331.301 386.696C329.989 385.044 328.89 383.257 327.994 381.36C327.115 379.451 326.397 377.449 326.148 375.21Z" fill="#F9F9F9"/>
</g>
<g id="Group_40">
<path id="Vector_30" d="M335.813 429.461C337.451 430.96 338.761 432.459 340.054 433.931C341.332 435.407 342.552 436.863 343.76 438.331C344.97 439.796 346.162 441.275 347.363 442.814C348.556 444.367 349.77 445.943 350.921 447.848C348.712 447.531 346.741 446.629 344.949 445.482C343.165 444.321 341.572 442.877 340.226 441.234C338.879 439.592 337.773 437.749 336.979 435.773C336.204 433.793 335.7 431.687 335.813 429.461Z" fill="#F9F9F9"/>
</g>
<g id="Group_41">
<path id="Vector_31" d="M382.475 388.882C383.959 389.552 385.061 390.367 386.082 391.214C387.086 392.072 387.972 392.979 388.778 393.954C389.586 394.928 390.306 395.97 390.955 397.12C391.593 398.283 392.179 399.521 392.55 401.111C390.923 400.955 389.583 400.365 388.373 399.626C387.174 398.873 386.126 397.938 385.247 396.863C384.365 395.79 383.649 394.58 383.139 393.261C382.645 391.931 382.322 390.505 382.475 388.882Z" fill="#F9F9F9"/>
</g>
<g id="Group_42">
<path id="Vector_32" d="M410.796 431.565C412.434 431.536 413.816 431.882 415.119 432.342C416.411 432.819 417.605 433.44 418.71 434.191C419.816 434.941 420.832 435.824 421.747 436.853C422.652 437.896 423.479 439.057 424.046 440.598C422.406 440.631 421.023 440.286 419.72 439.825C418.428 439.349 417.235 438.727 416.134 437.972C415.03 437.217 414.015 436.333 413.1 435.305C412.195 434.259 411.367 433.1 410.796 431.565Z" fill="#F9F9F9"/>
</g>
</g>
<g id="Group_43">
<g id="Group_44">
<path id="Vector_33" d="M255.403 207.857C260.444 207.857 264.531 203.77 264.531 198.729C264.531 193.688 260.444 189.601 255.403 189.601C250.362 189.601 246.275 193.688 246.275 198.729C246.275 203.77 250.362 207.857 255.403 207.857Z" fill="#F9CC85"/>
<path id="Vector_34" d="M356.575 321.201C362.877 321.201 367.986 316.092 367.986 309.79C367.986 303.489 362.877 298.38 356.575 298.38C350.273 298.38 345.165 303.489 345.165 309.79C345.165 316.092 350.273 321.201 356.575 321.201Z" fill="#F9CC85"/>
<path id="Vector_35" d="M247.037 418.569C253.339 418.569 258.447 413.461 258.447 407.159C258.447 400.857 253.339 395.748 247.037 395.748C240.735 395.748 235.626 400.857 235.626 407.159C235.626 413.461 240.735 418.569 247.037 418.569Z" fill="#F9CC85"/>
<path id="Vector_36" d="M329.191 181.993C333.812 181.993 337.559 178.247 337.559 173.626C337.559 169.004 333.812 165.258 329.191 165.258C324.57 165.258 320.823 169.004 320.823 173.626C320.823 178.247 324.57 181.993 329.191 181.993Z" fill="#F9CC85"/>
<path id="Vector_37" d="M263.011 322.722C268.053 322.722 272.139 318.635 272.139 313.594C272.139 308.553 268.053 304.466 263.011 304.466C257.97 304.466 253.884 308.553 253.884 313.594C253.884 318.635 257.97 322.722 263.011 322.722Z" fill="#F9CC85"/>
<path id="Vector_38" d="M342.124 428.459C349.686 428.459 355.817 422.329 355.817 414.766C355.817 407.204 349.686 401.073 342.124 401.073C334.561 401.073 328.431 407.204 328.431 414.766C328.431 422.329 334.561 428.459 342.124 428.459Z" fill="#F9CC85"/>
<path id="Vector_39" d="M297.242 210.139C301.863 210.139 305.61 206.393 305.61 201.771C305.61 197.15 301.863 193.404 297.242 193.404C292.621 193.404 288.874 197.15 288.874 201.771C288.874 206.393 292.621 210.139 297.242 210.139Z" fill="#F9CC85"/>
<path id="Vector_40" d="M205.958 340.218C212.68 340.218 218.129 334.769 218.129 328.047C218.129 321.326 212.68 315.877 205.958 315.877C199.236 315.877 193.788 321.326 193.788 328.047C193.788 334.769 199.236 340.218 205.958 340.218Z" fill="#F9CC85"/>
<path id="Vector_41" d="M291.917 472.58C298.64 472.58 304.089 467.13 304.089 460.408C304.089 453.686 298.64 448.236 291.917 448.236C285.195 448.236 279.746 453.686 279.746 460.408C279.746 467.13 285.195 472.58 291.917 472.58Z" fill="#F9CC85"/>
<path id="Vector_42" d="M402.979 386.622C408.861 386.622 413.629 381.853 413.629 375.971C413.629 370.089 408.861 365.321 402.979 365.321C397.097 365.321 392.328 370.089 392.328 375.971C392.328 381.853 397.097 386.622 402.979 386.622Z" fill="#F9CC85"/>
</g>
</g>
<g id="Group_45">
<g id="Group_46">
<path id="Vector_43" d="M61.8852 301.878C64.4303 301.878 66.4935 299.815 66.4935 297.269C66.4935 294.724 64.4303 292.661 61.8852 292.661C59.3402 292.661 57.277 294.724 57.277 297.269C57.277 299.815 59.3402 301.878 61.8852 301.878Z" fill="#F9F9F9" stroke="#F9F9F9" stroke-width="0.371" stroke-miterlimit="10"/>
</g>
</g>
</g>
</g>
</g>
<rect id="Rectangle 38" x="103" y="444" width="304" height="53" fill="#E0E0E0"/>
<g id="Group_47">
<g id="Group_48">
<g id="Group_49">
<g id="arm-left-girl">
<g id="Group_50">
<path id="Vector_44" d="M320.165 313.629C320.165 313.629 344.57 403.85 362.508 402.724C380.445 401.599 400.155 368.452 400.155 368.452L368.371 348.444C368.371 348.444 366.705 358.089 363.221 354.514C360.513 351.735 331.195 296.522 327.659 294.175C322.154 290.52 313.403 287.48 302.748 285.027C302.748 285.027 299.889 285.668 308.794 290.038C317.699 294.409 308.794 290.038 308.794 290.038C308.794 290.038 312.213 291.621 309.505 291.044C306.797 290.465 301.456 286.957 301.348 288.404C301.239 289.851 308.104 294.376 308.104 294.376C308.104 294.376 301.053 290.166 300.626 291.653C300.146 293.327 307.17 296.626 307.17 296.626C307.17 296.626 300.973 292.88 301.129 294.783C301.284 296.684 320.165 313.629 320.165 313.629Z" fill="#FFBE9D"/>
</g>
<g id="Group_51">
<path id="Vector_45" d="M397.962 303.503C397.962 303.503 379.28 300.72 363.45 348.853L334.163 298.968L313.499 324.029L359.89 416.349L396.364 385.353L397.962 303.503Z" fill="#C44165"/>
</g>
<path id="Vector_46" d="M325.59 293.152C325.59 293.152 310.526 284.635 309.99 288.514C309.69 290.683 319.534 295.97 319.534 295.97L325.59 293.152Z" fill="#ED9B71"/>
</g>
<g id="Group_52">
<g id="Group_53">
<path id="Vector_47" d="M387.401 278.214C388.625 278.214 389.617 277.222 389.617 275.998C389.617 274.773 388.625 273.781 387.401 273.781C386.176 273.781 385.184 274.773 385.184 275.998C385.184 277.222 386.176 278.214 387.401 278.214Z" fill="#F7CA84"/>
<path id="Vector_48" d="M389.012 274.209C390.236 274.209 391.229 273.217 391.229 271.992C391.229 270.768 390.236 269.776 389.012 269.776C387.788 269.776 386.795 270.768 386.795 271.992C386.795 273.217 387.788 274.209 389.012 274.209Z" fill="#F7CA84"/>
<path id="Vector_49" d="M390.449 270.637C391.673 270.637 392.666 269.645 392.666 268.421C392.666 267.196 391.673 266.204 390.449 266.204C389.225 266.204 388.233 267.196 388.233 268.421C388.233 269.645 389.225 270.637 390.449 270.637Z" fill="#F7CA84"/>
</g>
<path id="Vector_50" d="M394.973 326.238C414.518 335.234 470.926 327.444 470.926 327.444C470.926 327.444 457.297 283.957 429.604 250.26C432.565 242.429 435.37 229.485 430.175 226.838C423.207 223.287 415.851 222.94 409.479 223.548C400.772 224.378 394.67 228.427 387.871 233.813C384.549 236.443 378.543 247.503 379.685 251.572L394.973 326.238Z" fill="#192B1A"/>
<path id="Vector_51" d="M421.008 259.305C421.075 259.86 421.581 260.25 422.133 260.164C424.441 259.806 429.697 258.509 431.362 264.438C433.044 270.431 427.741 274.745 424.269 275.465C423.266 275.673 420.775 276.131 420.392 277.08C412.861 295.693 423.1 307.431 423.1 307.431C423.1 307.431 434.781 341.631 400.758 331.414C387.745 327.506 396.037 315.544 389.26 309.048C389.26 309.048 390.172 282.426 389.941 282.357C386.671 281.376 375.564 280.717 378.934 256.033C382.017 233.452 398.14 232.604 402.279 232.71C405.771 232.801 417.692 231.762 421.008 259.305Z" fill="#FFBE9D"/>
<path id="Vector_52" d="M386.982 236.327C386.982 236.327 398.47 247.53 421.604 260.073C421.604 260.072 427.542 209.73 386.982 236.327Z" fill="#192B1A"/>
<g id="Group_54">
<path id="Vector_53" d="M428.4 264.408C428.4 264.408 422.394 258.295 421.393 269.626Z" fill="#ED9B71"/>
<path id="Vector_54" d="M401.182 272.434C404.211 272.434 406.668 269.977 406.668 266.948C406.668 263.918 404.211 261.462 401.182 261.462C398.152 261.462 395.696 263.918 395.696 266.948C395.696 269.977 398.152 272.434 401.182 272.434Z" fill="#F27474"/>
<path id="Vector_55" d="M379.65 273.691C380.908 272.601 381.583 270.659 380.861 268.108C380.212 265.814 379.131 264.04 378.354 263.703C378.354 263.703 377.745 269.407 379.65 273.691Z" fill="#F27474"/>
<path id="Vector_56" d="M380.04 267.329L390.39 266.981C390.39 266.981 387.357 272.893 384.612 272.899C381.866 272.905 380.04 267.329 380.04 267.329Z" fill="white"/>
<path id="Vector_57" d="M384.637 260.565L385.89 266.549L382.712 266.576C382.127 266.581 381.75 265.956 382.026 265.44L384.637 260.565Z" fill="#ED9B71"/>
<path id="Vector_58" d="M393.596 251.973C394.456 252.875 393.545 249.432 392.25 248.793C390.955 248.155 389.459 248.545 388.908 249.662C388.908 249.662 391.529 249.807 393.596 251.973Z" fill="#192B1A"/>
<path id="Vector_59" d="M377.66 254.498C376.705 255.299 377.992 251.977 379.349 251.486C380.707 250.994 382.15 251.547 382.575 252.719C382.574 252.719 379.952 252.572 377.66 254.498Z" fill="#192B1A"/>
<path id="Vector_60" d="M387.832 261.553C388.355 261.532 388.742 260.641 388.699 259.564C388.655 258.487 388.196 257.631 387.673 257.653C387.151 257.674 386.763 258.564 386.807 259.641C386.851 260.719 387.31 261.574 387.832 261.553Z" fill="#192B1A"/>
<path id="Vector_61" d="M380.743 261.95C381.241 261.93 381.612 261.079 381.57 260.05C381.528 259.022 381.089 258.204 380.59 258.224C380.092 258.245 379.721 259.095 379.763 260.124C379.805 261.153 380.244 261.971 380.743 261.95Z" fill="#192B1A"/>
<path id="Vector_62" d="M389.716 282.537C389.716 282.537 396.91 285.682 407.343 280.696C402.184 292.96 392.801 289.643 392.801 289.643C392.801 289.643 391.417 288.821 389.716 282.537Z" fill="#ED9B71"/>
</g>
</g>
<path id="Vector_63" d="M378.331 299.088C385.041 298.945 409.549 285.716 418.512 287.102C427 284.5 424 305 424 305C430.172 305.593 444.61 321.586 444.61 321.586C458.579 353.023 459.05 441.609 454.245 474.974C390.642 486.013 372.653 470.969 372.06 469.865C372.06 469.865 378.331 442 363.5 381C368.24 363.182 382.119 325.651 381.408 323.401C382.769 328.578 372.438 299.213 378.331 299.088Z" fill="#AB3959"/>
<g id="Group_55">
<g id="Group_56">
<g id="Group_57">
<path id="Vector_64" d="M382.042 335.96C403.361 338.73 424.834 339.914 446.329 339.504C447.787 339.476 447.791 337.207 446.329 337.235C424.834 337.645 403.36 336.461 382.042 333.69C380.598 333.503 380.612 335.774 382.042 335.96Z" fill="#F9F9F9"/>
</g>
</g>
<g id="Group_58">
<g id="Group_59">
<path id="Vector_65" d="M379.08 348.307C401.733 353.29 424.983 354.659 448.061 352.323C449.499 352.178 449.515 349.907 448.061 350.054C425.181 352.37 402.147 351.06 379.683 346.118C378.26 345.806 377.653 347.993 379.08 348.307Z" fill="#F9F9F9"/>
</g>
</g>
<g id="Group_60">
<g id="Group_61">
<path id="Vector_66" d="M372.344 371.596C375.589 364.634 380.476 358.846 386.851 354.553C386.334 354.417 385.816 354.281 385.299 354.146C389.39 360.622 392.372 367.562 394.251 374.988C394.445 375.752 395.606 376.169 396.147 375.489C398.562 372.458 400.977 369.426 403.393 366.395C404.6 364.88 405.807 363.364 407.016 361.848C408.399 360.113 409.719 357.179 411.963 359.106C413.227 360.193 414.159 362.731 415.031 364.169C416.054 365.856 417.077 367.543 418.099 369.231C420.273 372.817 422.447 376.402 424.621 379.988C425.094 380.77 426.086 380.665 426.579 379.988C431.649 373.042 435.958 365.65 439.504 357.815C438.85 357.815 438.198 357.815 437.546 357.815C440.926 362.77 444.306 367.725 447.687 372.68C448.506 373.879 450.473 372.745 449.646 371.535C446.266 366.581 442.885 361.625 439.504 356.67C439.073 356.04 437.925 355.833 437.546 356.67C434.001 364.505 429.692 371.898 424.621 378.843C425.275 378.843 425.928 378.843 426.579 378.843C423.767 374.203 420.954 369.562 418.142 364.922C416.736 362.603 415.366 360.258 413.922 357.961C413.362 357.071 412.826 356.006 411.811 355.559C408.649 354.17 405.991 359.518 404.506 361.381C401.185 365.549 397.865 369.717 394.544 373.884C395.176 374.051 395.808 374.218 396.439 374.384C394.514 366.774 391.451 359.638 387.259 353C386.948 352.507 386.23 352.241 385.706 352.593C379.012 357.101 373.798 363.129 370.385 370.45C369.772 371.766 371.728 372.92 372.344 371.596Z" fill="#F9F9F9"/>
</g>
</g>
<g id="Group_62">
<g id="Group_63">
<path id="Vector_67" d="M371.221 378.962C398.91 381.293 426.688 382.336 454.475 382.089C455.934 382.075 455.938 379.807 454.475 379.82C426.688 380.067 398.91 379.025 371.221 376.693C369.766 376.57 369.774 378.84 371.221 378.962Z" fill="#F9F9F9"/>
</g>
</g>
<g id="Group_64">
<g id="Group_65">
<path id="Vector_68" d="M375.712 391.17C400.75 392.426 425.823 392.519 450.869 391.45C452.324 391.388 452.331 389.118 450.869 389.181C425.823 390.25 400.749 390.157 375.712 388.901C374.253 388.829 374.257 391.097 375.712 391.17Z" fill="#F9F9F9"/>
</g>
</g>
</g>
<g id="Group_66">
<path id="Vector_69" d="M433.899 257.28C433.899 257.28 394.13 226.733 385.773 235.666C385.773 235.666 398.453 202.238 419.778 208.866C430.45 212.183 436.442 219.663 442.363 228.578C450.152 240.305 455.05 253.996 433.899 257.28Z" fill="#006241"/>
<g id="Group_67">
<g id="Group_68">
<path id="Vector_70" d="M434.187 221.257C434.529 221.882 434.606 222.507 434.621 223.13C434.608 223.755 434.532 224.379 434.187 225.003C433.844 224.379 433.767 223.754 433.754 223.13C433.769 222.507 433.845 221.882 434.187 221.257Z" fill="#FFEBE0"/>
</g>
<g id="Group_69">
<path id="Vector_71" d="M431.881 235.666C431.962 237.141 431.655 238.589 431.179 239.965C430.679 241.331 429.998 242.646 429 243.735C429.395 242.317 429.899 241.009 430.364 239.673C430.851 238.346 431.289 237.014 431.881 235.666Z" fill="#FFEBE0"/>
</g>
<g id="Group_70">
<path id="Vector_72" d="M427.559 217.799C427.588 218.647 427.371 219.395 427.097 220.121C426.796 220.837 426.436 221.529 425.83 222.122C425.799 221.274 426.015 220.525 426.292 219.8C426.594 219.085 426.954 218.393 427.559 217.799Z" fill="#FFEBE0"/>
</g>
<g id="Group_71">
<path id="Vector_73" d="M418.626 233.361C418.691 233.994 418.52 234.509 418.292 234.996C418.041 235.47 417.732 235.916 417.184 236.243C417.117 235.61 417.289 235.095 417.517 234.609C417.771 234.134 418.08 233.688 418.626 233.361Z" fill="#FFEBE0"/>
</g>
<g id="Group_72">
<path id="Vector_74" d="M420.067 213.477C419.938 214.136 419.611 214.62 419.238 215.061C418.844 215.485 418.403 215.867 417.762 216.07C417.889 215.41 418.216 214.927 418.591 214.486C418.985 214.064 419.426 213.682 420.067 213.477Z" fill="#FFEBE0"/>
</g>
<g id="Group_73">
<path id="Vector_75" d="M406.233 225.58C406.291 226.178 406.119 226.648 405.892 227.087C405.641 227.513 405.333 227.909 404.792 228.174C404.733 227.574 404.905 227.105 405.134 226.667C405.388 226.241 405.695 225.846 406.233 225.58Z" fill="#FFEBE0"/>
</g>
<g id="Group_74">
<path id="Vector_76" d="M409.98 210.883C409.071 211.872 408.082 212.681 407.091 213.502C406.083 214.301 405.086 215.1 403.929 215.782C404.599 214.615 405.531 213.665 406.546 212.828C407.577 212.013 408.699 211.297 409.98 210.883Z" fill="#FFEBE0"/>
</g>
<g id="Group_75">
<path id="Vector_77" d="M396.724 223.851C396.72 224.472 396.496 224.948 396.22 225.388C395.921 225.814 395.569 226.203 394.995 226.445C394.997 225.822 395.222 225.348 395.499 224.908C395.799 224.483 396.151 224.093 396.724 223.851Z" fill="#FFEBE0"/>
</g>
</g>
<path id="Vector_78" d="M446.679 259.96C451.136 259.96 454.748 256.347 454.748 251.891C454.748 247.434 451.136 243.821 446.679 243.821C442.223 243.821 438.61 247.434 438.61 251.891C438.61 256.347 442.223 259.96 446.679 259.96Z" fill="#C44165"/>
</g>
</g>
</g>
</g>
<g id="Group_76">
<g id="Group_77">
<g id="Group_78">
<path id="Vector_79" d="M91.1745 467.698L131.809 469.247L117.921 301.948C115.853 291.629 114.749 276.803 106.664 270.886L93.0142 261.292L65.9878 253.226L53.5404 260.311C53.5404 260.311 18.0516 273.455 13.575 313.89C9.09848 354.326 29.489 458.056 29.489 458.056" fill="#C44165"/>
</g>
<g id="Group_79">
<path id="Vector_80" d="M91.1745 462.199L88.6902 461.819L29.489 452.766C29.489 452.766 9.09848 351.292 13.575 311.736C13.575 311.736 14.8195 275.933 53.5404 259.322L131.81 463.714" fill="#91304A"/>
</g>
<g id="Group_80">
<g id="Group_81">
<g id="Group_82">
<path id="Vector_81" d="M34.4072 317.054C63.1534 319.331 92.353 317.23 120.726 312.291C122.162 312.041 121.553 309.855 120.123 310.104C91.956 315.006 62.9452 317.046 34.408 314.786C32.9522 314.67 32.9592 316.94 34.4072 317.054Z" fill="#F9F9F9"/>
</g>
</g>
<g id="Group_83">
<g id="Group_84">
<path id="Vector_82" d="M38.9594 379.13C66.6436 380.482 94.3612 378.805 121.686 374.169C123.122 373.926 122.514 371.739 121.083 371.982C93.9595 376.583 66.4377 378.203 38.9601 376.862C37.4997 376.791 37.5036 379.06 38.9594 379.13Z" fill="#F9F9F9"/>
</g>
</g>
<g id="Group_85">
<g id="Group_86">
<path id="Vector_83" d="M38.0685 367.9C66.6366 369.098 95.2225 367.61 123.517 363.502C124.957 363.293 124.345 361.107 122.915 361.315C94.8263 365.393 66.4261 366.82 38.0692 365.632C36.6088 365.571 36.6119 367.838 38.0685 367.9Z" fill="#F9F9F9"/>
</g>
</g>
<g id="Group_87">
<g id="Group_88">
<path id="Vector_84" d="M36.2381 329.42C64.5841 330.446 93.1693 329.327 121.33 325.911C122.761 325.737 122.778 323.467 121.33 323.642C93.1685 327.057 64.5834 328.177 36.2381 327.151C34.7777 327.098 34.78 329.367 36.2381 329.42Z" fill="#F9F9F9"/>
</g>
</g>
<g id="Group_89">
<g id="Group_90">
<path id="Vector_85" d="M39.2435 333.292C44.5528 342.923 49.8614 352.554 55.1707 362.185C55.6869 363.121 56.9028 362.76 57.2441 361.914C59.3585 356.666 61.6208 351.482 64.0657 346.378C65.205 344 66.3822 341.639 67.5934 339.296C68.057 338.4 68.5113 336.813 69.2667 336.113C69.5716 335.038 70.3355 334.733 71.5576 335.2C72.8284 334.692 73.7254 335.025 74.2486 336.202C76.1943 337.705 77.726 340.576 79.1477 342.573C80.7599 344.837 82.2962 347.154 83.7837 349.5C86.5165 353.81 89.0767 358.227 91.637 362.641C92.1161 363.466 93.4774 363.328 93.7104 362.37C94.8945 357.5 96.0795 352.63 97.2636 347.76C97.8557 345.325 98.4478 342.889 99.0406 340.455C99.3951 338.996 99.7209 337.523 100.106 336.072C100.479 334.668 100.251 333.205 102.007 333.247C104.038 333.295 105.46 337.318 106.471 339.015C107.738 341.144 109.006 343.273 110.275 345.402C112.937 349.874 115.6 354.345 118.262 358.816C118.845 359.794 120.35 359.363 120.376 358.243C120.555 350.695 121.45 343.259 123.077 335.884C123.391 334.461 121.205 333.853 120.89 335.281C119.221 342.846 118.291 350.498 118.108 358.243C118.812 358.053 119.516 357.861 120.221 357.671C116.671 351.709 113.121 345.748 109.571 339.787C107.998 337.146 106.512 333.39 104.346 331.166C103.519 330.317 102.629 329.718 101.393 329.976C97.5685 330.773 97.1467 338.65 96.4989 341.314C94.8404 348.131 93.1826 354.949 91.5248 361.768C92.2159 361.678 92.907 361.587 93.5982 361.497C90.1084 355.482 86.6164 349.456 82.6955 343.707C80.8164 340.952 78.8412 338.26 76.7376 335.671C75.5411 334.197 74.0574 331.807 71.9283 331.581C67.4657 331.108 65.1322 339.088 63.6865 342.002C60.5512 348.321 57.6953 354.77 55.0592 361.312C55.7504 361.221 56.4415 361.131 57.1327 361.04C51.8241 351.41 46.5148 341.778 41.2063 332.148C40.4973 330.868 38.5377 332.011 39.2435 333.292Z" fill="#F9F9F9"/>
</g>
</g>
</g>
</g>
<path id="Vector_86" d="M57.257 259.194C57.257 259.194 48.0029 251.55 62.8899 244.308C62.8899 244.308 73.1734 255.988 88.2376 254.366C103.52 252.722 98.7424 246.921 99.9057 267.242C100.784 282.59 105.538 289.773 91.4564 284.14C77.3744 278.507 57.257 259.194 57.257 259.194Z" fill="#C44165"/>
</g>
<g id="Group_91">
<g id="Group_92">
<path id="Vector_87" d="M233.93 453.627C280.886 453.627 318.951 451.724 318.951 449.376C318.951 447.028 280.886 445.125 233.93 445.125C186.974 445.125 148.909 447.028 148.909 449.376C148.909 451.724 186.974 453.627 233.93 453.627Z" fill="#B4BFBC"/>
<g id="Group_93">
<path id="Vector_88" d="M291.156 426.813H176.378V444.471H291.156V426.813Z" fill="#F9CC85"/>
</g>
<path id="Vector_89" d="M291.156 428.121H176.378V426.531C176.378 422.278 179.112 418.506 183.154 417.184L233.712 400.653L284.438 417.594C288.451 418.933 291.156 422.69 291.156 426.921V428.121H291.156Z" fill="#FFFCFA" stroke="#FFFCFA" stroke-width="0.402" stroke-miterlimit="10"/>
<path id="Vector_90" d="M296.061 443.817H170.055V449.05H296.061V443.817Z" fill="#FFFCFA" stroke="#FFFCFA" stroke-width="0.402" stroke-miterlimit="10"/>
<g id="Group_94">
<path id="Vector_91" d="M232.84 405.886C235.248 405.886 237.201 403.933 237.201 401.525C237.201 399.117 235.248 397.165 232.84 397.165C230.432 397.165 228.48 399.117 228.48 401.525C228.48 403.933 230.432 405.886 232.84 405.886Z" fill="#E74F88"/>
<path id="Vector_92" d="M233.93 403.172C231.626 403.275 229.62 401.432 229.129 399.262C228.725 399.923 228.479 400.693 228.479 401.525C228.479 403.933 230.431 405.886 232.84 405.886C235.125 405.886 236.98 404.12 237.164 401.882C236.291 402.637 235.16 403.117 233.93 403.172Z" fill="#91304A"/>
</g>
<g id="Group_95">
<g id="Group_96">
<path id="Vector_93" d="M246.091 408.584C246.956 408.617 247.72 408.807 248.458 409.04C249.192 409.28 249.89 409.577 250.562 409.926C251.234 410.275 251.878 410.676 252.495 411.139C253.109 411.61 253.703 412.127 254.224 412.82C253.358 412.87 252.571 412.731 251.813 412.528C251.058 412.317 250.338 412.028 249.653 411.67C248.969 411.312 248.319 410.888 247.714 410.39C247.113 409.884 246.547 409.32 246.091 408.584Z" fill="#E0AC58"/>
</g>
<g id="Group_97">
<path id="Vector_94" d="M236.966 410.692C237.606 410.924 238.082 411.275 238.503 411.664C238.917 412.057 239.261 412.498 239.542 412.976C239.823 413.454 240.038 413.971 240.177 414.525C240.309 415.083 240.38 415.67 240.264 416.343C239.651 416.044 239.212 415.668 238.82 415.268C238.435 414.865 238.113 414.432 237.843 413.968C237.574 413.503 237.355 413.01 237.193 412.476C237.039 411.939 236.927 411.372 236.966 410.692Z" fill="#E0AC58"/>
</g>
<g id="Group_98">
<path id="Vector_95" d="M229.54 411.1C229.574 411.881 229.436 412.567 229.247 413.224C229.05 413.877 228.786 414.494 228.465 415.078C228.144 415.663 227.762 416.214 227.314 416.729C226.858 417.239 226.35 417.719 225.669 418.105C225.633 417.323 225.77 416.637 225.96 415.98C226.156 415.326 226.42 414.71 226.744 414.127C227.067 413.544 227.449 412.992 227.898 412.478C228.354 411.969 228.861 411.487 229.54 411.1Z" fill="#E0AC58"/>
</g>
<g id="Group_99">
<path id="Vector_96" d="M221.285 409.807C220.604 410.574 219.838 411.165 219.048 411.701C218.255 412.23 217.429 412.689 216.575 413.089C215.721 413.49 214.838 413.827 213.924 414.095C213.005 414.356 212.061 414.562 211.034 414.59C211.715 413.821 212.479 413.229 213.27 412.694C214.063 412.165 214.889 411.706 215.744 411.308C216.599 410.91 217.481 410.573 218.397 410.305C219.316 410.044 220.259 409.836 221.285 409.807Z" fill="#E0AC58"/>
</g>
</g>
</g>
</g>
</g>
</g>
</g>
</g>
<g id="Group_100">
<g id="Group_101">
<g id="Group_102">
<path id="Vector_97" d="M66.8458 227.55L61.2006 256.481C61.2006 256.481 84.7729 274.2 93 271.194C94.8002 270.536 96.2429 264.248 96.2429 264.248L94.1818 243.64L72.7503 224.887C72.7503 224.887 69.4525 227.154 69.04 227.978C68.6282 228.803 66.8458 227.55 66.8458 227.55Z" fill="#FFBE9D"/>
<path id="Vector_98" d="M72.1624 223.826L95.3663 244.033L95.6395 255.962C95.6395 255.962 80.6604 261.795 80.7231 239.781" fill="#D1847C"/>
</g>
<g id="Group_103">
<path id="Vector_99" d="M90.8912 172.4C89.8433 172.497 74.3712 173.451 68.0209 178.626C60.0825 183.037 56.1028 192.765 64.1395 218.318L64.9181 217.264C64.9181 217.264 68.3893 217.519 70.8629 220.816L84.2507 197.149C84.2507 197.149 86.7629 190.062 90.8842 193.152C95.0055 196.243 98.5177 198.12 101.197 197.09C103.126 196.348 104.822 193.904 105.628 192.583C105.903 192.638 106.065 192.671 106.065 192.671C106.065 192.671 97.7027 171.855 90.8912 172.4Z" fill="#192B1A"/>
<path id="Vector_100" d="M72.0787 218.847C71.821 219.507 63.8376 214.379 62.5908 220.973C60.8982 229.927 70.9967 228.763 71.7676 229.968C73.3294 232.412 77.4878 240.239 84.9573 243.427C89.5089 245.37 100.414 247.409 105.385 242.794C110.356 238.18 108.683 239.597 106.596 190.269C106.596 190.269 102.887 187.382 99.6113 188.478C96.3367 189.573 92.6751 192.338 88.9462 191.333C85.917 190.515 73.5972 214.967 72.0787 218.847Z" fill="#FFBE9D"/>
<g id="Group_104">
<path id="Vector_101" d="M100.624 215.653C101.126 215.653 101.532 214.871 101.532 213.907C101.532 212.942 101.126 212.161 100.624 212.161C100.123 212.161 99.7164 212.942 99.7164 213.907C99.7164 214.871 100.123 215.653 100.624 215.653Z" fill="#24304A"/>
<path id="Vector_102" d="M106.679 213.147C106.679 214.112 106.433 214.894 106.129 214.894C105.827 214.894 105.58 214.112 105.58 213.147C105.58 212.183 105.844 211.615 106.147 211.615C106.45 211.615 106.679 212.183 106.679 213.147Z" fill="#24304A"/>
<path id="Vector_103" d="M64.0133 221.155C64.0133 221.155 67.6818 218.22 69.393 222.866L64.0133 221.155Z" fill="#ED9B71"/>
<path id="Vector_104" d="M103.596 213.523V223.072L107.595 222.627C107.968 222.586 108.181 222.182 108.006 221.852L103.596 213.523Z" fill="#ED9B71"/>
<path id="Vector_105" d="M95.2807 210.373C97.9129 208.111 100.859 207.928 100.859 207.928C100.1 206.413 98.0623 205.898 96.3093 206.778C95.6506 207.108 94.8558 207.903 94.6623 208.861C94.5803 209.262 94.7227 210.78 95.2807 210.373Z" fill="#24304A"/>
<path id="Vector_106" d="M104.548 206.381C107.93 205.598 110.624 206.805 110.624 206.805C110.655 205.111 109.089 203.709 107.127 203.673C106.392 203.66 105.318 203.996 104.702 204.755C104.444 205.071 103.866 206.483 104.548 206.381Z" fill="#24304A"/>
<path id="Vector_107" d="M108.103 225.924C108.103 225.924 98.182 226.941 96.4004 225.924C96.4004 225.924 98.8383 232.283 103.778 232.283C106.576 232.283 108.103 225.924 108.103 225.924Z" fill="#F9F9F9"/>
</g>
</g>
</g>
<g id="Group_105">
<path id="Vector_108" d="M62.0068 212.456C62.0068 212.456 99.61 183.573 107.512 192.02C107.512 192.02 95.5228 160.412 75.3582 166.678C65.2674 169.814 44.7763 195.892 43.175 205.884C42.1371 212.358 56.1147 199.064 62.0068 212.456Z" fill="#006241"/>
<g id="Group_106">
<g id="Group_107">
<path id="Vector_109" d="M61.7345 178.395C62.058 178.986 62.13 179.576 62.1439 180.166C62.1315 180.757 62.0596 181.347 61.7345 181.938C61.4102 181.347 61.3375 180.757 61.3251 180.166C61.339 179.576 61.411 178.986 61.7345 178.395Z" fill="#FFEBE0"/>
</g>
<g id="Group_108">
<path id="Vector_110" d="M63.9148 192.02C64.4751 193.295 64.8884 194.555 65.3505 195.809C65.7893 197.072 66.2668 198.308 66.6399 199.65C65.6964 198.62 65.0533 197.377 64.5796 196.085C64.1292 194.784 63.8389 193.414 63.9148 192.02Z" fill="#FFEBE0"/>
</g>
<g id="Group_109">
<path id="Vector_111" d="M68.0012 175.125C68.5739 175.687 68.9137 176.341 69.1993 177.017C69.4601 177.703 69.666 178.411 69.6365 179.213C69.0623 178.652 68.7225 177.998 68.4392 177.321C68.1792 176.635 67.9741 175.926 68.0012 175.125Z" fill="#FFEBE0"/>
</g>
<g id="Group_110">
<path id="Vector_112" d="M76.4486 189.84C76.9649 190.149 77.2567 190.571 77.4966 191.019C77.7125 191.479 77.875 191.965 77.8116 192.565C77.2946 192.256 77.002 191.834 76.7644 191.385C76.5485 190.926 76.3867 190.439 76.4486 189.84Z" fill="#FFEBE0"/>
</g>
<g id="Group_111">
<path id="Vector_113" d="M75.0869 171.038C75.6913 171.232 76.1092 171.592 76.4831 171.992C76.8375 172.409 77.1463 172.866 77.2671 173.49C76.6611 173.297 76.2431 172.937 75.8709 172.536C75.5172 172.119 75.2084 171.661 75.0869 171.038Z" fill="#FFEBE0"/>
</g>
<g id="Group_112">
<path id="Vector_114" d="M88.1659 182.483C88.6751 182.735 88.9661 183.108 89.2053 183.511C89.422 183.925 89.5853 184.369 89.528 184.935C89.0172 184.685 88.7262 184.311 88.4886 183.908C88.2742 183.493 88.1102 183.048 88.1659 182.483Z" fill="#FFEBE0"/>
</g>
<g id="Group_113">
<path id="Vector_115" d="M84.6233 168.586C85.8338 168.977 86.8964 169.653 87.8708 170.424C88.8297 171.215 89.712 172.113 90.3459 173.218C89.2515 172.573 88.3081 171.817 87.3561 171.061C86.4189 170.286 85.4832 169.52 84.6233 168.586Z" fill="#FFEBE0"/>
</g>
<g id="Group_114">
<path id="Vector_116" d="M97.1581 180.848C97.6991 181.077 98.0319 181.446 98.3168 181.847C98.5791 182.263 98.7912 182.712 98.7935 183.301C98.251 183.072 97.9182 182.704 97.6349 182.302C97.3741 181.884 97.1612 181.435 97.1581 180.848Z" fill="#FFEBE0"/>
</g>
</g>
<path id="Vector_117" d="M44.3817 214.117C48.5954 214.117 52.0113 210.701 52.0113 206.488C52.0113 202.274 48.5954 198.858 44.3817 198.858C40.168 198.858 36.7521 202.274 36.7521 206.488C36.7521 210.701 40.168 214.117 44.3817 214.117Z" fill="#E74F88"/>
</g>
<g id="hand-drink-girl">
<g id="Group 146">
<g id="Group_115">
<g id="Group_116">
<g id="Group_117">
<path id="Vector_118" d="M334.624 290.838C332.783 295.268 323.807 295.749 314.576 291.911C305.346 288.074 299.356 281.372 301.198 276.942C303.039 272.513 312.015 272.032 321.245 275.869C330.476 279.706 336.466 286.408 334.624 290.838Z" fill="#F9F9F9"/>
<path id="Vector_119" d="M333.806 281.091C332.422 284.42 325.676 284.781 318.739 281.897C311.802 279.014 307.301 273.977 308.685 270.647C310.068 267.319 316.814 266.957 323.751 269.841C330.688 272.725 335.19 277.762 333.806 281.091Z" fill="#F9F9F9"/>
<path id="Vector_120" d="M336.77 292.559L317.617 284.597L298.464 276.636L283.421 325.226C283.421 325.226 279.644 333.422 294.849 339.367C309.788 345.953 312.934 337.495 312.934 337.495L336.77 292.559Z" fill="#E2CEB3"/>
<g id="Group_118">
<path id="Vector_121" d="M332.841 295.128L316.127 288.181L299.414 281.233L285.828 324.738C285.828 324.738 282.451 332.087 295.722 337.268C308.754 343.021 311.582 335.444 311.582 335.444L332.841 295.128Z" fill="#41210A"/>
</g>
<path id="Vector_122" d="M331.641 271.839C330.822 273.81 326.829 274.024 322.722 272.317C318.616 270.61 315.951 267.628 316.771 265.657C317.59 263.687 321.583 263.473 325.689 265.18C329.795 266.887 332.46 269.868 331.641 271.839Z" fill="#F9F9F9"/>
<path id="Vector_123" d="M293.924 355.315L299.892 340.959L291.506 337.473L285.538 351.83C280.888 350.605 277.13 350.833 276.386 352.621L299.817 362.361C300.56 360.573 298.071 357.748 293.924 355.315Z" fill="#E2CEB3"/>
<g id="Group_119">
<g id="Group_120">
<path id="Vector_124" d="M294.211 344.585C294.504 345.294 294.797 346.003 295.089 346.712C295.129 346.807 295.277 346.746 295.237 346.65C294.945 345.942 294.652 345.233 294.359 344.524C294.32 344.429 294.172 344.49 294.211 344.585Z" fill="#E2CEB3"/>
</g>
</g>
</g>
<g id="Group_121">
<g id="Group_122">
<g id="Group_123">
<g id="Group_124">
<path id="Vector_125" d="M322.288 274.248C321.945 274.285 321.653 274.439 321.36 274.609C321.305 274.642 321.249 274.674 321.194 274.708C321.127 274.747 321.12 274.751 321.175 274.72C321.138 274.741 321.101 274.761 321.064 274.78C321.009 274.808 320.952 274.832 320.896 274.855C320.823 274.88 320.82 274.882 320.889 274.862C320.852 274.871 320.814 274.876 320.774 274.879C320.418 274.918 320.162 275.273 320.209 275.622C320.259 275.985 320.595 276.227 320.953 276.188C321.296 276.15 321.588 275.997 321.881 275.826C321.936 275.793 321.991 275.76 322.047 275.728C322.114 275.689 322.12 275.684 322.066 275.715C322.103 275.694 322.14 275.675 322.178 275.655C322.232 275.627 322.288 275.603 322.345 275.58C322.418 275.556 322.42 275.553 322.352 275.573C322.389 275.565 322.427 275.56 322.465 275.556C322.823 275.517 323.079 275.163 323.031 274.813C322.982 274.45 322.646 274.208 322.288 274.248Z" fill="#2E180A"/>
</g>
<g id="Group_125">
<path id="Vector_126" d="M328.653 284.852C328.163 285.148 327.984 285.772 327.528 286.044C327.217 286.229 327.201 286.706 327.399 286.969C327.634 287.28 328.017 287.282 328.324 287.097C328.817 286.803 328.996 286.179 329.45 285.905C329.759 285.719 329.777 285.244 329.578 284.98C329.343 284.67 328.961 284.666 328.653 284.852Z" fill="#2E180A"/>
</g>
<g id="Group_126">
<path id="Vector_127" d="M322.864 281.198C322.363 280.925 321.754 281.084 321.268 280.823C320.95 280.652 320.533 280.871 320.405 281.179C320.256 281.536 320.444 281.872 320.761 282.042C321.263 282.312 321.873 282.154 322.357 282.417C322.674 282.59 323.093 282.367 323.22 282.061C323.369 281.703 323.18 281.37 322.864 281.198Z" fill="#2E180A"/>
</g>
<g id="Group_127">
<path id="Vector_128" d="M326.858 278.127C326.902 278.472 327.057 278.758 327.23 279.052C327.262 279.107 327.296 279.162 327.33 279.216C327.353 279.253 327.375 279.29 327.396 279.326C327.366 279.271 327.369 279.277 327.406 279.345C327.436 279.399 327.46 279.455 327.484 279.512C327.508 279.585 327.511 279.587 327.493 279.518C327.502 279.556 327.508 279.594 327.512 279.632C327.618 280.477 328.928 280.301 328.82 279.454C328.777 279.11 328.622 278.823 328.449 278.529C328.417 278.474 328.383 278.42 328.35 278.365C328.327 278.328 328.304 278.291 328.283 278.255C328.313 278.31 328.31 278.304 328.273 278.236C328.244 278.182 328.219 278.126 328.195 278.069C328.171 277.997 328.168 277.994 328.186 278.064C328.177 278.026 328.17 277.988 328.167 277.95C328.06 277.105 326.751 277.281 326.858 278.127Z" fill="#2E180A"/>
</g>
</g>
<g id="Group_128">
<g id="Group_129">
<path id="Vector_129" d="M326.037 267.792C326.363 267.661 326.599 267.441 326.843 267.198C326.904 267.138 327.029 267.006 327.053 266.984C327.158 266.883 327.257 266.816 327.332 266.786C328.123 266.467 327.619 265.246 326.828 265.564C326.503 265.696 326.267 265.916 326.022 266.159C325.962 266.219 325.835 266.351 325.812 266.373C325.707 266.474 325.609 266.541 325.534 266.571C324.742 266.889 325.247 268.109 326.037 267.792Z" fill="#2E180A"/>
</g>
</g>
<g id="Group_130">
<g id="Group_131">
<path id="Vector_130" d="M321.552 265.166C321.548 264.968 321.705 264.717 321.777 264.534C321.901 264.218 321.957 263.914 321.948 263.575C321.94 263.215 321.532 262.965 321.205 263.01C320.82 263.063 320.631 263.393 320.64 263.753C320.645 263.951 320.488 264.202 320.415 264.385C320.291 264.701 320.236 265.005 320.244 265.344C320.253 265.704 320.661 265.954 320.987 265.909C321.373 265.857 321.561 265.526 321.552 265.166Z" fill="#2E180A"/>
</g>
<g id="Group_132">
<path id="Vector_131" d="M316.764 274.541C316.714 274.602 316.706 274.609 316.742 274.565C316.75 274.558 316.567 274.685 316.65 274.638C316.52 274.712 316.381 274.771 316.246 274.835C315.921 274.988 315.63 275.166 315.394 275.44C314.837 276.088 315.883 276.896 316.435 276.253C316.486 276.192 316.494 276.184 316.457 276.229C316.449 276.236 316.633 276.109 316.55 276.157C316.68 276.082 316.819 276.023 316.954 275.959C317.278 275.806 317.57 275.629 317.806 275.354C318.362 274.706 317.317 273.898 316.764 274.541Z" fill="#2E180A"/>
</g>
<g id="Group_133">
<path id="Vector_132" d="M319.385 270.552C319.265 270.484 319.102 270.215 318.995 270.075C318.777 269.789 318.537 269.57 318.224 269.394C317.909 269.218 317.486 269.448 317.36 269.751C317.21 270.112 317.404 270.438 317.717 270.614C317.836 270.68 318 270.95 318.107 271.09C318.324 271.377 318.565 271.595 318.879 271.771C319.193 271.948 319.616 271.718 319.741 271.415C319.892 271.053 319.699 270.728 319.385 270.552Z" fill="#2E180A"/>
</g>
<g id="Group_134">
<path id="Vector_133" d="M311.539 269.932C311.515 270.164 311.381 270.37 311.269 270.572C311.114 270.852 310.989 271.142 310.957 271.464C310.873 272.309 312.183 272.478 312.267 271.628C312.29 271.396 312.426 271.191 312.537 270.989C312.692 270.709 312.817 270.419 312.849 270.097C312.934 269.252 311.623 269.082 311.539 269.932Z" fill="#2E180A"/>
</g>
<g id="Group_135">
<path id="Vector_134" d="M323.467 267.923C323.444 268.156 323.307 268.361 323.195 268.563C323.04 268.844 322.913 269.133 322.881 269.456C322.796 270.301 324.105 270.47 324.192 269.62C324.215 269.388 324.352 269.183 324.464 268.981C324.62 268.7 324.746 268.41 324.777 268.087C324.859 267.242 323.549 267.073 323.467 267.923Z" fill="#2E180A"/>
</g>
<g id="Group_136">
<path id="Vector_135" d="M311.844 277.663C311.923 277.733 311.721 277.485 311.753 277.543C311.68 277.412 311.623 277.272 311.561 277.136C311.413 276.808 311.236 276.518 310.966 276.277C310.697 276.038 310.249 276.121 310.038 276.391C309.806 276.689 309.884 277.079 310.152 277.318C310.074 277.248 310.275 277.497 310.243 277.438C310.315 277.57 310.372 277.709 310.435 277.846C310.584 278.174 310.76 278.464 311.031 278.704C311.3 278.943 311.747 278.86 311.958 278.59C312.19 278.293 312.112 277.902 311.844 277.663Z" fill="#2E180A"/>
</g>
</g>
<g id="Group_137">
<g id="Group_138">
<g id="Group_139">
<path id="Vector_136" d="M332.163 273.977C331.681 274.28 331.5 274.919 331.064 275.194C330.758 275.385 330.733 275.851 330.935 276.119C331.166 276.425 331.556 276.438 331.861 276.247C332.343 275.944 332.523 275.305 332.96 275.03C333.265 274.838 333.291 274.373 333.088 274.105C332.857 273.799 332.467 273.786 332.163 273.977Z" fill="#2E180A"/>
</g>
</g>
</g>
<g id="Group_140">
<path id="Vector_137" d="M329.051 269.252C328.868 269.475 328.753 269.733 328.668 270.006C328.59 270.256 328.548 270.542 328.378 270.748C327.838 271.408 328.881 272.218 329.42 271.562C329.603 271.338 329.716 271.08 329.801 270.807C329.88 270.557 329.922 270.272 330.092 270.065C330.633 269.405 329.589 268.595 329.051 269.252Z" fill="#2E180A"/>
</g>
</g>
</g>
<path id="Vector_138" d="M350.029 259.777L335.855 262.497C335.855 262.497 334.695 262.463 333.719 264.407C332.743 266.35 325.187 280.492 325.187 280.492L326.76 281.146L335.174 265.347C335.174 265.347 335.482 263.797 336.949 263.903C338.415 264.01 350.517 261.239 350.517 261.239L350.029 259.777Z" fill="#09A56B"/>
<path id="Vector_139" d="M294.326 325.162C294.987 325.437 295.746 325.124 296.021 324.462C296.296 323.801 295.983 323.042 295.322 322.767C294.66 322.492 293.901 322.806 293.627 323.467C293.352 324.128 293.665 324.887 294.326 325.162Z" fill="#DCA869"/>
<path id="Vector_140" d="M300.492 332.458C300.217 333.119 299.458 333.433 298.797 333.158C298.136 332.883 297.822 332.124 298.097 331.463C298.372 330.801 299.131 330.488 299.792 330.763C300.453 331.038 300.767 331.797 300.492 332.458Z" fill="#DCA869"/>
<path id="Vector_141" d="M299.912 321.693C299.702 322.198 299.123 322.437 298.618 322.227C298.115 322.017 297.876 321.439 298.085 320.934C298.295 320.43 298.874 320.191 299.378 320.401C299.882 320.611 300.121 321.189 299.912 321.693Z" fill="#DCA869"/>
<path id="Vector_142" d="M307.968 330.5C308.473 330.709 309.051 330.47 309.261 329.966C309.471 329.462 309.232 328.883 308.727 328.674C308.223 328.464 307.645 328.703 307.435 329.207C307.225 329.711 307.464 330.29 307.968 330.5Z" fill="#DCA869"/>
<path id="Vector_143" d="M297.675 305.778C297.465 306.283 296.886 306.521 296.382 306.312C295.878 306.102 295.639 305.524 295.849 305.019C296.058 304.515 296.637 304.276 297.141 304.486C297.646 304.695 297.885 305.274 297.675 305.778Z" fill="#DCA869"/>
</g>
</g>
<g id="Group_141">
<path id="Vector_144" d="M310.593 321.37C310.752 321.418 310.901 321.39 310.976 321.209C311.056 321.017 310.981 320.876 310.739 320.776L310.353 320.615L309.938 321.616L310.093 321.68L310.272 321.25L310.438 321.319L310.536 321.864L310.704 321.934L310.593 321.37ZM310.484 321.192L310.323 321.126L310.457 320.804L310.661 320.889C310.767 320.933 310.883 320.999 310.825 321.137C310.758 321.299 310.621 321.249 310.484 321.192Z" fill="#006241"/>
<path id="Vector_145" d="M310.834 320.4C310.661 320.328 310.471 320.308 310.288 320.342C310.106 320.377 309.938 320.464 309.807 320.593C309.676 320.722 309.587 320.887 309.552 321.067C309.517 321.247 309.537 321.434 309.61 321.604C309.682 321.775 309.804 321.921 309.96 322.024C310.116 322.128 310.299 322.184 310.485 322.185C310.672 322.186 310.854 322.133 311.008 322.032C311.163 321.932 311.283 321.787 311.353 321.618C311.4 321.506 311.425 321.385 311.424 321.263C311.424 321.14 311.399 321.019 311.35 320.906C311.302 320.792 311.232 320.689 311.143 320.602C311.054 320.515 310.949 320.447 310.834 320.4ZM310.174 321.986C310.023 321.93 309.892 321.831 309.797 321.701C309.703 321.571 309.65 321.417 309.644 321.259C309.639 321.101 309.681 320.945 309.767 320.812C309.852 320.679 309.976 320.575 310.123 320.512C310.27 320.45 310.433 320.433 310.592 320.463C310.75 320.493 310.896 320.569 311.012 320.681C311.127 320.793 311.207 320.936 311.24 321.091C311.273 321.247 311.259 321.408 311.198 321.554C311.162 321.65 311.106 321.737 311.035 321.811C310.963 321.885 310.877 321.944 310.782 321.985C310.687 322.025 310.584 322.046 310.479 322.046C310.375 322.046 310.271 322.026 310.174 321.986Z" fill="#006241"/>
<path id="Vector_146" d="M303.487 318.841C309.296 321.256 315.923 318.602 318.288 312.913C320.653 307.224 317.861 300.655 312.051 298.239C306.242 295.824 299.615 298.478 297.25 304.167C294.885 309.856 297.677 316.426 303.487 318.841Z" fill="white"/>
<path id="Vector_147" d="M311.259 303.133C310.608 302.722 309.892 302.425 309.143 302.253C309.086 302.24 309.087 302.181 309.14 302.168C309.187 302.157 310.568 301.81 310.568 301.81C310.568 301.81 311.295 303.034 311.32 303.075C311.349 303.122 311.307 303.163 311.259 303.133ZM307.317 307.476C307.298 307.475 307.28 307.478 307.263 307.485C307.246 307.491 307.231 307.501 307.218 307.514C307.37 307.773 307.365 308.214 307.826 308.405C308.287 308.597 308.596 308.282 308.885 308.207C308.886 308.189 308.882 308.171 308.875 308.155C308.868 308.138 308.857 308.123 308.844 308.111C308.572 308.054 308.307 307.97 308.053 307.86C307.795 307.757 307.548 307.629 307.317 307.476L307.317 307.476ZM308.345 307.157C308.217 307.104 308.208 307.044 308.121 307.009C308.038 306.975 307.85 306.972 307.79 307.017C307.779 307.048 307.78 307.082 307.792 307.113C307.967 307.219 308.009 307.355 308.225 307.445C308.441 307.535 308.568 307.468 308.766 307.518C308.796 307.504 308.82 307.481 308.835 307.452C308.825 307.377 308.691 307.246 308.608 307.211C308.521 307.174 308.473 307.21 308.345 307.157ZM318.038 313.471C317.922 313.711 317.798 313.946 317.667 314.175C316.396 313.874 316.402 312.657 315.162 312.202C315.128 312.487 315.08 312.771 315.016 313.051C316.023 313.469 316.045 314.558 317.221 314.887C317.045 315.145 316.859 315.393 316.663 315.632C315.743 315.35 315.79 314.359 314.756 313.957C314.704 314.103 314.649 314.25 314.589 314.395C314.555 314.476 314.519 314.555 314.484 314.634C315.361 314.987 315.317 315.895 316.164 316.204C315.945 316.437 315.716 316.66 315.479 316.872C314.894 316.591 315 315.755 314.066 315.437C313.959 315.617 313.845 315.794 313.725 315.964C314.538 316.239 314.412 317.022 314.954 317.314C314.702 317.512 314.443 317.699 314.176 317.873C313.914 317.558 313.844 316.907 313.222 316.61C313.369 316.44 313.509 316.264 313.643 316.081C312.997 315.798 312.477 315.29 312.183 314.657C312.764 313.752 311.629 312.113 311.926 311.397C312.249 310.62 312.83 310.357 313.265 309.309C313.589 308.531 313.554 307.528 313.212 306.709C313.149 306.556 313.068 306.41 312.97 306.276C313.235 307.145 313.326 308.083 312.957 308.973C312.547 309.959 311.861 310.285 311.482 311.196C311.104 312.107 312.136 313.461 311.746 314.399C311.592 314.769 311.322 315.079 310.63 315.623C310.993 316.474 311.653 317.131 312.166 317.344C312.332 317.413 312.442 317.401 312.555 317.297C312.653 317.208 312.748 317.117 312.841 317.023C313.384 317.274 313.433 317.871 313.657 318.195C313.398 318.346 313.133 318.486 312.862 318.616C312.75 318.308 312.63 317.819 312.269 317.547C312.14 317.655 312.007 317.758 311.871 317.858C312.18 318.094 312.275 318.537 312.366 318.839C312.084 318.958 311.797 319.065 311.505 319.161C311.456 318.901 311.355 318.554 311.178 318.317C311.044 318.396 310.908 318.47 310.769 318.54C310.914 318.756 310.991 319.066 311.025 319.307C310.696 319.4 310.362 319.478 310.024 319.541C310.328 318.44 309.167 317.117 310.065 316.066C309.848 316.226 309.582 316.431 309.449 316.752C309.083 317.631 309.749 318.725 309.462 319.63C309.216 319.663 308.968 319.689 308.718 319.706C309.083 318.732 308.507 317.262 308.835 316.473C309.2 315.594 310.744 315.2 311.175 314.162C311.607 313.123 310.549 311.84 310.928 310.929C311.307 310.017 312.102 309.733 312.587 308.565C312.76 308.132 312.839 307.667 312.82 307.2C312.801 306.733 312.684 306.274 312.477 305.85C312.408 305.709 312.321 305.577 312.219 305.457C312.528 306.419 312.611 307.209 312.204 308.187C311.748 309.285 310.834 309.62 310.386 310.695C309.939 311.771 311.021 312.923 310.605 313.925C310.188 314.927 308.597 315.257 308.169 316.287C307.78 317.223 308.483 318.614 308.037 319.732C307.756 319.734 307.474 319.727 307.191 319.709C307.797 318.643 307.049 316.973 307.43 316.057C307.847 315.055 309.49 314.729 309.939 313.648C310.389 312.567 309.291 311.521 309.752 310.413C310.213 309.304 311.27 309.023 311.78 307.798C311.965 307.344 312.043 306.852 312.006 306.36C311.97 305.868 311.82 305.39 311.569 304.96C311.559 304.943 311.549 304.926 311.538 304.909C311.492 304.833 311.414 304.869 311.437 304.945C311.681 305.761 311.691 306.487 311.312 307.399C310.847 308.519 309.547 309.047 309.095 310.133C308.563 311.414 309.648 312.295 309.211 313.346C308.774 314.396 307.099 314.685 306.635 315.801C306.204 316.836 306.983 318.507 306.27 319.612C305.992 319.571 305.714 319.52 305.436 319.458C306.289 318.069 305.502 316.488 305.907 315.516C306.345 314.462 308.109 314.094 308.537 313.065C308.94 312.095 308.086 311.367 308.37 310.32C308.381 310.286 308.384 310.25 308.38 310.215C308.376 310.179 308.365 310.145 308.346 310.114C308.328 310.083 308.303 310.056 308.274 310.035C308.244 310.014 308.21 309.999 308.175 309.992C307.96 309.944 307.65 309.967 307.246 309.799C306.843 309.632 306.64 309.396 306.454 309.277C306.424 309.257 306.39 309.243 306.354 309.237C306.319 309.231 306.282 309.233 306.247 309.241C306.212 309.25 306.18 309.266 306.152 309.288C306.124 309.311 306.101 309.338 306.085 309.37C305.543 310.31 304.425 310.218 304.021 311.188C303.593 312.217 304.576 313.727 304.138 314.781C303.734 315.753 302.059 316.31 301.676 317.895C301.436 317.742 301.204 317.581 300.979 317.412C301.26 316.128 302.993 315.501 303.423 314.466C303.887 313.35 302.909 311.958 303.346 310.907C303.783 309.856 305.173 310.004 305.705 308.723C306.157 307.637 305.614 306.343 306.08 305.223C306.459 304.312 306.981 303.807 307.732 303.405C307.803 303.367 307.773 303.286 307.686 303.307C307.667 303.311 307.647 303.316 307.628 303.321C307.146 303.446 306.701 303.678 306.327 303.999C305.953 304.32 305.659 304.722 305.468 305.174C304.959 306.399 305.506 307.347 305.045 308.455C304.584 309.564 303.068 309.524 302.619 310.604C302.17 311.684 303.097 313.08 302.68 314.082C302.299 314.998 300.589 315.646 300.26 316.827C300.048 316.639 299.844 316.445 299.647 316.243C300.125 315.139 301.606 314.656 301.996 313.72C302.424 312.69 301.537 311.33 301.953 310.327C302.37 309.325 303.95 309.281 304.396 308.205C304.843 307.13 304.436 306.245 304.893 305.147C305.299 304.17 305.918 303.67 306.818 303.211C306.66 303.224 306.505 303.255 306.356 303.306C305.91 303.458 305.502 303.699 305.157 304.015C304.813 304.331 304.539 304.715 304.354 305.142C303.868 306.31 304.228 307.074 303.849 307.986C303.47 308.897 301.815 309.053 301.383 310.091C300.951 311.129 301.761 312.501 301.395 313.38C301.068 314.169 299.619 314.798 299.186 315.743C299.022 315.554 298.865 315.361 298.714 315.162C299.154 314.32 300.4 314.021 300.765 313.142C300.899 312.821 300.856 312.488 300.816 312.221C300.704 313.598 298.948 313.709 298.382 314.701C298.188 314.417 298.008 314.126 297.841 313.827C298.037 313.68 298.311 313.517 298.565 313.467C298.517 313.319 298.474 313.17 298.435 313.02C298.143 313.061 297.826 313.235 297.606 313.383C297.469 313.109 297.342 312.829 297.228 312.546C297.506 312.397 297.886 312.152 298.272 312.205C298.247 312.038 298.227 311.871 298.212 311.703C297.765 311.639 297.333 311.899 297.036 312.037C296.937 311.753 296.849 311.466 296.772 311.176C297.161 311.107 297.618 310.72 298.18 310.928C298.179 311.06 298.182 311.192 298.187 311.324C298.193 311.478 298.262 311.564 298.429 311.633C298.942 311.847 299.873 311.852 300.732 311.508C300.629 310.634 300.658 310.224 300.812 309.854C301.202 308.915 302.891 308.692 303.269 307.782C303.647 306.872 303.395 306.155 303.805 305.168C304.175 304.279 304.905 303.682 305.708 303.257C305.544 303.283 305.383 303.328 305.23 303.391C304.408 303.726 303.672 304.409 303.348 305.187C302.913 306.234 303.135 306.832 302.812 307.608C302.515 308.324 300.553 308.675 300.322 309.726C299.665 309.964 298.938 309.954 298.282 309.696C298.246 309.919 298.22 310.143 298.204 310.366C297.554 310.135 297.042 310.545 296.634 310.581C296.571 310.268 296.521 309.953 296.483 309.635C297.072 309.813 297.538 309.172 298.306 309.554C298.343 309.349 298.387 309.144 298.44 308.941C297.555 308.503 297.037 309.168 296.426 308.952C296.409 308.634 296.406 308.315 296.416 307.995C297.233 308.378 297.845 307.705 298.714 308.078C298.744 307.997 298.776 307.917 298.81 307.836C298.87 307.69 298.935 307.548 299.002 307.408C297.988 306.959 297.319 307.691 296.469 307.237C296.501 306.93 296.546 306.623 296.605 306.317C297.666 306.918 298.455 306.165 299.461 306.584C299.614 306.341 299.781 306.107 299.961 305.883C298.763 305.324 297.904 306.186 296.795 305.498C296.864 305.244 296.943 304.99 297.032 304.738C298.353 305.466 299.335 304.567 300.538 305.227C300.778 304.983 301.035 304.754 301.306 304.543C299.839 303.615 298.765 304.685 297.377 303.876C298.569 301.228 300.769 299.158 303.509 298.105C306.249 297.053 309.314 297.101 312.052 298.239C314.79 299.377 316.985 301.516 318.172 304.201C319.358 306.886 319.442 309.905 318.406 312.617C316.853 312.204 316.854 310.688 315.161 310.303C315.203 310.644 315.222 310.987 315.219 311.33C316.536 311.717 316.591 313.047 318.038 313.471ZM304.809 302.905C304.164 302.273 303.196 301.954 302.185 302.125C302.365 301.344 302.231 300.529 301.817 299.898C301.807 299.879 301.792 299.863 301.773 299.853C301.754 299.843 301.733 299.839 301.712 299.841C301.691 299.844 301.671 299.853 301.655 299.867C301.64 299.881 301.629 299.9 301.625 299.921C301.107 301.513 299.629 302.469 298.009 303.175C299.033 304.003 300.637 302.946 301.936 304.088C302.809 303.522 303.783 303.121 304.809 302.905V302.905ZM309.718 303.853C308.742 303.447 307.699 303.648 307.194 304.257C307.155 304.304 307.163 304.348 307.238 304.346C307.458 304.345 307.676 304.39 307.879 304.478C308.277 304.644 308.568 304.934 308.672 305.268C308.641 305.604 308.47 306.036 308.264 306.238C308.115 306.134 308.108 305.985 307.948 305.918C307.788 305.852 307.618 305.911 307.346 305.798C307.075 305.685 307.095 305.546 306.917 305.472C306.707 305.385 306.58 305.58 306.481 305.82C306.038 306.885 306.428 308.767 307.492 309.209C308.556 309.651 310.165 308.6 310.608 307.535C310.707 307.296 310.742 307.071 310.534 306.951C310.362 307.002 310.175 306.986 310.012 306.906C309.741 306.793 309.712 306.652 309.552 306.585C309.359 306.505 309.212 306.912 308.973 306.839C308.971 306.416 309.154 305.951 309.452 305.593C309.763 305.43 310.174 305.433 310.572 305.598C310.777 305.679 310.963 305.802 311.117 305.959C311.169 306.013 311.206 305.988 311.212 305.927C311.288 305.139 310.695 304.258 309.718 303.853ZM310.638 306.027C310.404 305.93 310.1 305.886 309.849 306.003C309.805 306.053 309.781 306.117 309.782 306.184C310.266 306.218 310.643 306.369 310.741 306.641C310.793 306.628 310.841 306.603 310.881 306.568C310.921 306.534 310.953 306.49 310.973 306.442C311.031 306.303 310.928 306.148 310.638 306.027L310.638 306.027ZM307.02 305.094C307.308 304.979 307.737 305.167 308.117 305.515C308.227 305.305 307.927 304.901 307.528 304.735C307.239 304.614 307.055 304.65 306.997 304.789C306.977 304.838 306.969 304.891 306.973 304.944C306.977 304.997 306.993 305.048 307.02 305.094L307.02 305.094ZM315.249 304.285C314.508 304.024 313.707 303.996 312.957 304.206C313.433 303.684 313.975 303.224 314.571 302.838C313.548 302.532 312.581 302.543 311.733 302.894L311.763 301.496L313.179 301.029L311.825 300.353L311.797 298.853L310.713 299.891L309.28 299.408L309.946 300.741L308.977 301.749C308.627 300.9 307.953 300.207 307.014 299.697C307.161 300.392 307.218 301.1 307.184 301.807C306.804 301.127 306.219 300.578 305.511 300.237C305.739 301.006 305.873 301.798 305.91 302.596C305.909 302.616 305.913 302.636 305.922 302.655C305.93 302.673 305.942 302.69 305.958 302.703C305.973 302.716 305.992 302.726 306.011 302.732C306.031 302.738 306.052 302.739 306.072 302.736C307.381 302.66 308.695 302.884 309.911 303.39C311.127 303.895 312.212 304.669 313.082 305.65C313.094 305.666 313.11 305.68 313.127 305.69C313.145 305.7 313.165 305.706 313.185 305.708C313.206 305.709 313.226 305.706 313.245 305.699C313.264 305.692 313.281 305.681 313.295 305.666C313.886 305.129 314.542 304.665 315.249 304.285V304.285ZM315.04 309.536C316.766 309.651 317.148 311.534 318.457 311.676C317.814 310.029 317.451 308.307 318.213 306.817C318.225 306.799 318.231 306.779 318.23 306.758C318.229 306.737 318.222 306.716 318.209 306.7C318.196 306.683 318.178 306.67 318.158 306.664C318.137 306.658 318.115 306.658 318.095 306.665C317.356 306.816 316.683 307.296 316.255 307.974C315.663 307.137 314.756 306.676 313.853 306.664C314.423 307.544 314.825 308.517 315.04 309.536V309.536Z" fill="#006241"/>
</g>
</g>
<g id="Group 147">
<path id="Vector_148" d="M431.985 316.07C424.216 326.86 391.964 353.789 391.964 353.789L394.924 359.786L392.762 356.173C385.167 367.503 381.151 373.642 377.303 372.64C369.099 372.503 314.238 341.386 314.238 341.386C312.115 339.988 309.37 327.653 306.97 327.65C304.569 327.648 307.911 334.982 304.826 334.396C301.741 333.812 293.064 321.121 289.771 321.584C286.477 322.045 296.812 330.432 295.403 331.478C293.993 332.524 283.769 321.577 282.668 323.088C281.567 324.6 291.286 332.056 290.869 334.149C290.452 336.243 278.927 323.782 278.203 325.41C277.479 327.038 287.535 336.821 285.72 335.889C283.905 334.956 276.071 328.084 279.006 333.439C281.941 338.793 355.808 404.703 377.024 414.233C391.942 420.935 416.245 395.411 416.245 395.411L416.145 395.245C425.805 385.746 458.371 349.551 431.985 316.07Z" fill="#FFBE9D"/>
<path id="Vector_149" d="M433.657 315.687C411.106 300.501 381.151 373.642 377.303 372.64C371.65 372.547 343.553 352.663 326.808 343.466C325.856 349.856 311.047 375.195 313.168 372.368C334.379 390.426 366.585 409.545 377.024 414.234C391.942 420.936 416.245 395.411 416.245 395.411L416.145 395.246C425.806 385.746 460.043 349.169 433.657 315.687Z" fill="#C44165"/>
</g>
</g>
</g>
<g id="hand-drink-man">
<g id="Group_142">
<g id="Group 146_2">
<g id="Group_143">
<g id="Group_144">
<path id="Vector_150" d="M155.091 228.577L166.096 237.914C166.096 237.914 167.123 238.455 167.017 240.627C166.911 242.8 166.538 258.83 166.538 258.83L164.847 258.626L165.288 240.731C165.288 240.731 165.781 239.23 164.452 238.601C163.124 237.973 153.947 229.61 153.947 229.61L155.091 228.577Z" fill="#09A56B"/>
<g id="Group_145">
<path id="Vector_151" d="M181.912 262.135C183.797 266.548 177.872 273.307 168.678 277.232C159.485 281.158 150.505 280.763 148.621 276.351C146.737 271.939 152.662 265.18 161.855 261.255C171.049 257.329 180.029 257.724 181.912 262.135Z" fill="#F9F9F9"/>
<path id="Vector_152" d="M174.366 255.913C175.781 259.228 171.328 264.308 164.419 267.259C157.51 270.209 150.761 269.913 149.345 266.597C147.93 263.281 152.383 258.201 159.291 255.251C166.201 252.301 172.95 252.597 174.366 255.913Z" fill="#F9F9F9"/>
<path id="Vector_153" d="M184.643 261.802L165.567 269.948L146.492 278.093L170.759 322.798C170.759 322.798 173.987 331.225 188.861 324.497C204.008 318.405 200.153 310.246 200.153 310.246L184.643 261.802Z" fill="#E2CEB3"/>
<g id="Group_146">
<path id="Vector_154" d="M183.737 266.408L167.092 273.517L150.446 280.625L172.091 320.734C172.091 320.734 174.992 328.284 187.968 322.405C201.188 317.097 197.741 309.781 197.741 309.781L183.737 266.408Z" fill="#41210A"/>
</g>
<path id="Vector_155" d="M166.232 251C167.071 252.963 164.434 255.97 160.345 257.717C156.255 259.463 152.261 259.287 151.422 257.324C150.584 255.362 153.22 252.355 157.31 250.609C161.399 248.862 165.394 249.038 166.232 251Z" fill="#F9F9F9"/>
<path id="Vector_156" d="M199.628 336.298L193.522 321.999L185.171 325.565L191.277 339.864C187.153 342.337 184.69 345.185 185.451 346.966L208.787 337.001C208.026 335.22 204.265 335.029 199.628 336.298Z" fill="#E2CEB3"/>
<g id="Group_147">
<g id="Group_148">
<path id="Vector_157" d="M192.15 328.597C192.862 328.883 193.573 329.168 194.285 329.454C194.381 329.493 194.44 329.344 194.345 329.305C193.633 329.02 192.921 328.734 192.21 328.449C192.114 328.41 192.054 328.559 192.15 328.597Z" fill="#E2CEB3"/>
</g>
</g>
</g>
<g id="Group_149">
<g id="Group_150">
<g id="Group_151">
<g id="Group_152">
<path id="Vector_158" d="M161.423 259.376C161.211 259.647 161.117 259.964 161.034 260.293C161.019 260.355 161.003 260.418 160.989 260.48C160.97 260.555 160.968 260.563 160.984 260.503C160.974 260.544 160.962 260.584 160.949 260.624C160.932 260.683 160.909 260.74 160.886 260.797C160.852 260.866 160.852 260.869 160.886 260.807C160.866 260.839 160.844 260.87 160.818 260.9C160.597 261.183 160.672 261.614 160.955 261.824C161.25 262.042 161.657 261.97 161.879 261.687C162.092 261.415 162.186 261.098 162.269 260.77C162.284 260.707 162.299 260.645 162.315 260.583C162.333 260.507 162.335 260.499 162.319 260.559C162.329 260.519 162.341 260.479 162.354 260.438C162.371 260.38 162.394 260.323 162.417 260.266C162.451 260.197 162.45 260.193 162.416 260.256C162.436 260.224 162.459 260.193 162.484 260.163C162.706 259.88 162.631 259.449 162.347 259.239C162.053 259.021 161.645 259.093 161.423 259.376Z" fill="#2E180A"/>
</g>
<g id="Group_153">
<path id="Vector_159" d="M173.458 262.228C173.327 262.785 173.649 263.349 173.525 263.866C173.441 264.217 173.77 264.562 174.098 264.604C174.484 264.653 174.752 264.38 174.835 264.031C174.969 263.473 174.647 262.909 174.768 262.393C174.851 262.042 174.524 261.697 174.196 261.655C173.81 261.607 173.54 261.878 173.458 262.228Z" fill="#2E180A"/>
</g>
<g id="Group_154">
<path id="Vector_160" d="M166.8 263.819C166.255 263.987 165.943 264.533 165.416 264.699C165.072 264.807 164.938 265.259 165.068 265.565C165.22 265.921 165.592 266.021 165.935 265.913C166.478 265.742 166.791 265.196 167.318 265.033C167.663 264.927 167.797 264.471 167.666 264.166C167.514 263.809 167.144 263.712 166.8 263.819Z" fill="#2E180A"/>
</g>
<g id="Group_155">
<path id="Vector_161" d="M167.392 258.815C167.669 259.024 167.982 259.114 168.313 259.195C168.376 259.211 168.438 259.224 168.5 259.238C168.543 259.247 168.585 259.257 168.626 259.268C168.565 259.251 168.572 259.253 168.646 259.274C168.706 259.29 168.762 259.312 168.82 259.335C168.889 259.368 168.893 259.367 168.831 259.332C168.864 259.352 168.896 259.374 168.926 259.398C169.604 259.912 170.393 258.852 169.712 258.338C169.435 258.129 169.122 258.039 168.791 257.957C168.729 257.941 168.666 257.928 168.604 257.914C168.562 257.904 168.519 257.895 168.478 257.885C168.539 257.902 168.532 257.899 168.458 257.879C168.399 257.861 168.342 257.84 168.285 257.818C168.215 257.785 168.212 257.785 168.274 257.821C168.241 257.801 168.209 257.779 168.179 257.754C167.5 257.241 166.711 258.301 167.392 258.815Z" fill="#2E180A"/>
</g>
</g>
<g id="Group_156">
<g id="Group_157">
<path id="Vector_162" d="M159.422 252.184C159.556 251.859 159.563 251.537 159.56 251.192C159.56 251.107 159.552 250.925 159.553 250.892C159.555 250.747 159.575 250.629 159.606 250.554C159.93 249.766 158.705 249.274 158.38 250.062C158.247 250.387 158.24 250.71 158.243 251.054C158.244 251.139 158.25 251.322 158.25 251.354C158.248 251.5 158.228 251.616 158.196 251.691C157.871 252.48 159.097 252.971 159.422 252.184Z" fill="#2E180A"/>
</g>
</g>
<g id="Group_158">
<g id="Group_159">
<path id="Vector_163" d="M154.41 253.559C154.266 253.424 154.196 253.136 154.116 252.957C153.975 252.647 153.797 252.395 153.548 252.165C153.285 251.919 152.821 252.037 152.625 252.302C152.394 252.614 152.498 252.98 152.762 253.225C152.907 253.36 152.977 253.648 153.057 253.828C153.197 254.137 153.376 254.389 153.624 254.62C153.888 254.865 154.352 254.747 154.548 254.483C154.779 254.171 154.674 253.804 154.41 253.559Z" fill="#2E180A"/>
</g>
<g id="Group_160">
<path id="Vector_164" d="M157.775 263.534C157.784 263.613 157.784 263.623 157.777 263.566C157.778 263.556 157.741 263.776 157.765 263.683C157.727 263.828 157.673 263.969 157.623 264.11C157.506 264.449 157.43 264.782 157.461 265.143C157.536 265.994 158.845 265.809 158.771 264.965C158.762 264.886 158.762 264.875 158.769 264.933C158.768 264.943 158.806 264.723 158.782 264.816C158.819 264.671 158.874 264.53 158.923 264.389C159.04 264.05 159.117 263.717 159.085 263.357C159.009 262.506 157.701 262.689 157.775 263.534Z" fill="#2E180A"/>
</g>
<g id="Group_161">
<path id="Vector_165" d="M156.751 258.872C156.619 258.91 156.312 258.84 156.137 258.818C155.78 258.774 155.456 258.794 155.112 258.895C154.765 258.997 154.635 259.46 154.763 259.761C154.917 260.122 155.285 260.211 155.63 260.109C155.761 260.071 156.069 260.141 156.243 260.163C156.6 260.208 156.925 260.188 157.27 260.086C157.616 259.984 157.746 259.521 157.618 259.22C157.464 258.859 157.096 258.77 156.751 258.872Z" fill="#2E180A"/>
</g>
<g id="Group_162">
<path id="Vector_166" d="M150.827 264.055C150.977 264.233 151.03 264.473 151.096 264.694C151.189 265.001 151.309 265.293 151.517 265.541C152.063 266.191 153.099 265.372 152.55 264.718C152.4 264.539 152.348 264.299 152.281 264.078C152.189 263.771 152.068 263.479 151.86 263.232C151.315 262.581 150.278 263.4 150.827 264.055Z" fill="#2E180A"/>
</g>
<g id="Group_163">
<path id="Vector_167" d="M157.72 254.115C157.871 254.294 157.923 254.535 157.989 254.756C158.081 255.064 158.2 255.356 158.408 255.605C158.954 256.256 159.989 255.437 159.442 254.782C159.291 254.603 159.24 254.361 159.174 254.14C159.082 253.832 158.963 253.54 158.753 253.292C158.206 252.643 157.169 253.462 157.72 254.115Z" fill="#2E180A"/>
</g>
<g id="Group_164">
<path id="Vector_168" d="M156.573 269.236C156.678 269.228 156.359 269.2 156.424 269.217C156.279 269.178 156.139 269.121 155.998 269.07C155.66 268.947 155.329 268.871 154.968 268.896C154.608 268.922 154.356 269.3 154.402 269.64C154.452 270.014 154.786 270.231 155.145 270.206C155.039 270.213 155.358 270.242 155.294 270.224C155.439 270.265 155.578 270.321 155.719 270.372C156.058 270.495 156.389 270.571 156.75 270.545C157.109 270.519 157.362 270.141 157.316 269.802C157.265 269.428 156.931 269.211 156.573 269.236Z" fill="#2E180A"/>
</g>
</g>
<g id="Group_165">
<g id="Group_166">
<g id="Group_167">
<path id="Vector_169" d="M168.127 252.12C168.007 252.676 168.339 253.252 168.23 253.756C168.154 254.109 168.469 254.452 168.802 254.495C169.183 254.543 169.464 254.273 169.54 253.922C169.66 253.365 169.329 252.79 169.437 252.285C169.513 251.932 169.198 251.59 168.865 251.547C168.484 251.499 168.202 251.769 168.127 252.12Z" fill="#2E180A"/>
</g>
</g>
</g>
<g id="Group_168">
<path id="Vector_170" d="M162.572 251.047C162.604 251.334 162.708 251.596 162.844 251.847C162.969 252.079 163.144 252.308 163.173 252.573C163.268 253.421 164.576 253.24 164.482 252.396C164.45 252.109 164.345 251.848 164.209 251.596C164.085 251.365 163.91 251.136 163.881 250.87C163.787 250.021 162.478 250.203 162.572 251.047Z" fill="#2E180A"/>
</g>
</g>
</g>
<path id="Vector_171" d="M178.33 314.949C178.989 314.667 179.294 313.905 179.013 313.247C178.732 312.588 177.97 312.282 177.312 312.564C176.653 312.845 176.347 313.607 176.628 314.265C176.91 314.924 177.671 315.23 178.33 314.949Z" fill="#DCA869"/>
<path id="Vector_172" d="M187.858 315.632C188.139 316.291 187.833 317.053 187.175 317.334C186.516 317.615 185.754 317.309 185.473 316.651C185.192 315.992 185.498 315.23 186.156 314.949C186.815 314.668 187.577 314.973 187.858 315.632Z" fill="#DCA869"/>
<path id="Vector_173" d="M179.749 308.529C179.963 309.031 179.73 309.612 179.228 309.827C178.726 310.041 178.145 309.808 177.93 309.305C177.716 308.803 177.949 308.222 178.451 308.008C178.954 307.793 179.535 308.027 179.749 308.529Z" fill="#DCA869"/>
<path id="Vector_174" d="M191.679 308.914C192.181 308.699 192.414 308.118 192.2 307.616C191.985 307.114 191.404 306.881 190.902 307.095C190.4 307.309 190.166 307.89 190.381 308.393C190.595 308.895 191.176 309.128 191.679 308.914Z" fill="#DCA869"/>
<path id="Vector_175" d="M166.797 299.013C167.012 299.516 166.778 300.097 166.275 300.311C165.774 300.526 165.193 300.292 164.978 299.79C164.764 299.288 164.997 298.707 165.499 298.493C166.002 298.278 166.583 298.511 166.797 299.013Z" fill="#DCA869"/>
</g>
</g>
<g id="Group_169">
<path id="Vector_176" d="M186.978 300.659C187.123 300.578 187.207 300.453 187.13 300.272C187.049 300.081 186.895 300.036 186.655 300.139L186.271 300.303L186.696 301.299L186.851 301.233L186.668 300.805L186.833 300.734L187.292 301.045L187.459 300.973L186.978 300.659ZM186.775 300.613L186.615 300.681L186.478 300.361L186.681 300.274C186.787 300.229 186.915 300.192 186.974 300.33C187.042 300.491 186.912 300.554 186.775 300.613Z" fill="#006241"/>
<path id="Vector_177" d="M186.452 299.809C186.28 299.882 186.133 300.004 186.03 300.159C185.927 300.314 185.872 300.495 185.873 300.678C185.874 300.862 185.93 301.041 186.034 301.192C186.138 301.343 186.286 301.459 186.459 301.526C186.632 301.593 186.821 301.608 187.004 301.569C187.187 301.529 187.355 301.438 187.486 301.305C187.617 301.173 187.707 301.005 187.742 300.824C187.778 300.643 187.758 300.457 187.686 300.288C187.639 300.176 187.57 300.074 187.482 299.989C187.394 299.904 187.29 299.837 187.175 299.792C187.06 299.748 186.937 299.726 186.813 299.729C186.689 299.732 186.566 299.759 186.452 299.809ZM187.127 301.389C186.981 301.458 186.818 301.482 186.659 301.459C186.501 301.436 186.353 301.367 186.236 301.26C186.119 301.153 186.037 301.014 186.002 300.86C185.966 300.706 185.978 300.544 186.036 300.396C186.094 300.247 186.196 300.119 186.328 300.026C186.46 299.934 186.617 299.882 186.778 299.878C186.938 299.873 187.096 299.916 187.231 300.001C187.365 300.086 187.47 300.209 187.532 300.354C187.576 300.447 187.6 300.548 187.603 300.651C187.606 300.753 187.588 300.856 187.55 300.953C187.512 301.049 187.455 301.137 187.382 301.212C187.31 301.287 187.223 301.347 187.127 301.389Z" fill="#006241"/>
<path id="Vector_178" d="M180.205 303.978C185.991 301.507 188.72 294.911 186.301 289.245C183.881 283.579 177.229 280.989 171.443 283.459C165.657 285.93 162.928 292.526 165.347 298.192C167.767 303.858 174.419 306.449 180.205 303.978Z" fill="white"/>
<path id="Vector_179" d="M174.391 287.444C173.643 287.623 172.93 287.928 172.284 288.344C172.235 288.375 172.194 288.334 172.221 288.287C172.247 288.246 172.962 287.015 172.962 287.015C172.962 287.015 174.346 287.349 174.393 287.36C174.447 287.372 174.447 287.431 174.391 287.444ZM174.746 293.299C174.733 293.311 174.723 293.327 174.716 293.343C174.708 293.36 174.705 293.378 174.705 293.396C174.996 293.468 175.309 293.779 175.767 293.584C176.226 293.388 176.217 292.947 176.365 292.687C176.353 292.674 176.337 292.664 176.321 292.658C176.304 292.651 176.286 292.649 176.267 292.649C176.037 292.804 175.792 292.935 175.535 293.04C175.282 293.153 175.017 293.24 174.746 293.299L174.746 293.299ZM175.236 292.34C175.109 292.395 175.06 292.359 174.974 292.397C174.891 292.433 174.758 292.565 174.749 292.64C174.764 292.669 174.788 292.692 174.818 292.705C175.017 292.654 175.143 292.719 175.359 292.627C175.574 292.535 175.615 292.398 175.788 292.291C175.8 292.26 175.8 292.226 175.79 292.195C175.73 292.15 175.542 292.155 175.458 292.19C175.372 292.226 175.364 292.286 175.236 292.34ZM186.525 289.813C186.616 290.064 186.698 290.317 186.77 290.571C185.667 291.269 184.8 290.415 183.608 290.986C183.789 291.209 183.958 291.441 184.114 291.683C185.116 291.254 185.912 291.999 186.968 291.388C187.03 291.693 187.077 291.999 187.112 292.307C186.267 292.768 185.59 292.043 184.581 292.502C184.649 292.641 184.715 292.783 184.777 292.927C184.811 293.008 184.843 293.089 184.875 293.169C185.74 292.788 186.36 293.454 187.173 293.063C187.186 293.383 187.186 293.702 187.171 294.021C186.562 294.243 186.038 293.583 185.158 294.029C185.212 294.232 185.259 294.437 185.297 294.642C186.062 294.251 186.534 294.889 187.121 294.705C187.087 295.023 187.04 295.339 186.978 295.652C186.569 295.62 186.054 295.215 185.408 295.452C185.389 295.229 185.361 295.005 185.324 294.782C184.67 295.047 183.943 295.064 183.284 294.832C183.042 293.784 181.077 293.452 180.772 292.739C180.442 291.965 180.659 291.366 180.213 290.322C179.882 289.547 179.14 288.872 178.316 288.544C178.162 288.483 178.001 288.439 177.836 288.415C178.643 288.832 179.379 289.422 179.757 290.308C180.177 291.291 179.931 292.009 180.318 292.916C180.706 293.824 182.395 294.03 182.794 294.965C182.952 295.333 182.985 295.743 182.891 296.618C183.753 296.953 184.684 296.939 185.195 296.721C185.361 296.65 185.429 296.563 185.434 296.41C185.438 296.278 185.439 296.146 185.437 296.014C185.996 295.8 186.458 296.183 186.846 296.248C186.773 296.539 186.689 296.826 186.592 297.111C186.293 296.976 185.859 296.721 185.413 296.789C185.4 296.957 185.381 297.124 185.357 297.291C185.743 297.235 186.126 297.476 186.405 297.622C186.293 297.907 186.169 298.187 186.034 298.463C185.814 298.317 185.495 298.146 185.202 298.107C185.165 298.258 185.123 298.408 185.076 298.556C185.332 298.603 185.607 298.764 185.804 298.909C185.64 299.209 185.463 299.502 185.272 299.788C184.696 298.802 182.938 298.708 182.813 297.331C182.777 297.599 182.737 297.932 182.874 298.252C183.248 299.128 184.496 299.415 184.943 300.253C184.795 300.452 184.64 300.648 184.478 300.838C184.036 299.897 182.581 299.282 182.246 298.497C181.872 297.621 182.668 296.241 182.226 295.207C181.785 294.173 180.128 294.034 179.74 293.126C179.352 292.218 179.704 291.451 179.207 290.287C179.018 289.862 178.741 289.481 178.393 289.168C178.045 288.855 177.635 288.618 177.187 288.471C177.038 288.421 176.883 288.391 176.725 288.38C177.63 288.831 178.253 289.324 178.669 290.297C179.136 291.391 178.737 292.279 179.195 293.351C179.652 294.422 181.232 294.452 181.658 295.45C182.084 296.448 181.209 297.818 181.647 298.843C182.046 299.776 183.532 300.244 184.021 301.344C183.826 301.547 183.624 301.743 183.413 301.933C183.074 300.755 181.356 300.124 180.967 299.211C180.54 298.213 181.455 296.809 180.995 295.733C180.536 294.657 179.02 294.712 178.549 293.608C178.077 292.503 178.615 291.55 178.094 290.33C177.899 289.88 177.601 289.481 177.224 289.163C176.846 288.846 176.399 288.619 175.916 288.499C175.897 288.494 175.878 288.489 175.858 288.485C175.772 288.465 175.742 288.546 175.813 288.583C176.568 288.978 177.094 289.478 177.482 290.385C177.959 291.501 177.428 292.8 177.89 293.882C178.435 295.158 179.823 294.997 180.27 296.043C180.717 297.089 179.754 298.491 180.228 299.602C180.668 300.633 182.408 301.243 182.701 302.525C182.477 302.695 182.246 302.858 182.008 303.014C181.609 301.433 179.929 300.892 179.515 299.924C179.067 298.874 180.036 297.355 179.598 296.329C179.186 295.363 178.068 295.466 177.517 294.532C177.501 294.5 177.478 294.473 177.449 294.451C177.421 294.429 177.388 294.413 177.353 294.405C177.318 294.396 177.282 294.395 177.246 294.402C177.21 294.408 177.176 294.422 177.146 294.442C176.962 294.563 176.761 294.8 176.36 294.972C175.959 295.143 175.648 295.124 175.433 295.174C175.397 295.181 175.364 295.197 175.335 295.218C175.305 295.239 175.281 295.266 175.263 295.297C175.245 295.329 175.234 295.363 175.23 295.399C175.226 295.434 175.23 295.47 175.242 295.503C175.536 296.548 174.688 297.283 175.101 298.25C175.539 299.275 177.306 299.626 177.754 300.676C178.168 301.644 177.396 303.232 178.263 304.613C177.986 304.677 177.708 304.731 177.431 304.775C176.708 303.677 177.47 301.999 177.029 300.968C176.555 299.857 174.876 299.584 174.429 298.537C173.982 297.49 175.058 296.599 174.513 295.323C174.051 294.241 172.747 293.726 172.27 292.61C171.883 291.703 171.886 290.977 172.123 290.158C172.145 290.081 172.067 290.047 172.021 290.123C172.01 290.14 172 290.157 171.99 290.174C171.743 290.606 171.599 291.087 171.567 291.579C171.535 292.071 171.618 292.561 171.808 293.014C172.329 294.234 173.389 294.505 173.861 295.609C174.332 296.713 173.244 297.77 173.704 298.846C174.163 299.922 175.81 300.233 176.236 301.231C176.625 302.144 175.894 303.82 176.51 304.88C176.227 304.901 175.945 304.911 175.664 304.912C175.207 303.798 175.897 302.401 175.498 301.468C175.06 300.443 173.467 300.127 173.041 299.129C172.615 298.13 173.686 296.969 173.229 295.898C172.772 294.827 171.854 294.501 171.387 293.407C170.971 292.433 171.046 291.642 171.346 290.677C171.245 290.799 171.159 290.932 171.091 291.074C170.888 291.499 170.776 291.96 170.761 292.427C170.747 292.894 170.83 293.358 171.007 293.789C171.504 294.952 172.302 295.229 172.689 296.137C173.077 297.044 172.032 298.338 172.474 299.372C172.915 300.406 174.462 300.785 174.836 301.66C175.172 302.446 174.61 303.922 174.984 304.892C174.734 304.877 174.486 304.854 174.239 304.824C173.943 303.921 174.599 302.821 174.225 301.945C174.089 301.625 173.821 301.423 173.602 301.265C174.51 302.307 173.362 303.642 173.677 304.739C173.338 304.68 173.004 304.605 172.673 304.516C172.705 304.274 172.779 303.963 172.921 303.746C172.782 303.677 172.645 303.604 172.51 303.527C172.336 303.765 172.239 304.114 172.191 304.374C171.899 304.281 171.611 304.176 171.328 304.06C171.416 303.757 171.506 303.314 171.813 303.075C171.676 302.976 171.543 302.874 171.412 302.767C171.054 303.043 170.939 303.533 170.83 303.842C170.558 303.715 170.291 303.577 170.03 303.429C170.251 303.103 170.294 302.505 170.835 302.249C170.93 302.342 171.026 302.432 171.124 302.521C171.238 302.623 171.348 302.634 171.514 302.563C172.025 302.345 172.679 301.682 173.033 300.827C172.335 300.291 172.062 299.983 171.905 299.615C171.506 298.68 172.525 297.316 172.138 296.409C171.751 295.503 171.062 295.183 170.642 294.2C170.264 293.314 170.346 292.375 170.604 291.503C170.507 291.639 170.427 291.785 170.365 291.939C170.031 292.761 170.005 293.765 170.336 294.54C170.782 295.583 171.365 295.842 171.695 296.615C171.999 297.328 170.88 298.977 171.471 299.876C171.183 300.513 170.668 301.026 170.024 301.315C170.16 301.497 170.302 301.672 170.45 301.84C169.831 302.143 169.767 302.795 169.508 303.112C169.24 302.939 168.979 302.755 168.725 302.56C169.264 302.263 169.13 301.481 169.94 301.199C169.819 301.03 169.703 300.855 169.594 300.675C168.663 301.002 168.777 301.837 168.196 302.124C167.956 301.914 167.726 301.694 167.504 301.462C168.349 301.146 168.295 300.237 169.169 299.876C169.132 299.798 169.097 299.719 169.062 299.638C169 299.493 168.944 299.348 168.891 299.202C167.861 299.614 167.917 300.604 166.999 300.895C166.802 300.658 166.614 300.411 166.435 300.156C167.606 299.815 167.619 298.726 168.621 298.298C168.555 298.019 168.504 297.736 168.468 297.451C167.232 297.918 167.249 299.134 165.982 299.448C165.848 299.221 165.722 298.987 165.604 298.747C167.047 298.31 167.09 296.979 168.403 296.579C168.395 296.237 168.411 295.894 168.449 295.552C166.76 295.954 166.776 297.47 165.227 297.897C164.165 295.195 164.22 292.175 165.381 289.479C166.542 286.783 168.716 284.623 171.443 283.459C174.17 282.294 177.234 282.217 179.984 283.243C182.735 284.269 184.954 286.318 186.171 288.954C184.791 289.777 183.707 288.717 182.249 289.66C182.522 289.868 182.781 290.094 183.024 290.336C184.221 289.664 185.211 290.553 186.525 289.813ZM169.723 291.901C168.82 291.921 167.917 292.391 167.333 293.234C166.9 292.56 166.222 292.086 165.482 291.942C165.462 291.935 165.44 291.935 165.419 291.942C165.399 291.948 165.381 291.961 165.368 291.978C165.355 291.995 165.348 292.015 165.347 292.036C165.346 292.057 165.352 292.078 165.364 292.095C166.141 293.578 165.794 295.303 165.167 296.956C166.475 296.802 166.839 294.915 168.563 294.783C168.768 293.763 169.161 292.786 169.723 291.901V291.901ZM173.831 289.049C172.858 289.465 172.274 290.351 172.357 291.138C172.364 291.199 172.401 291.224 172.452 291.169C172.605 291.011 172.79 290.886 172.994 290.803C173.391 290.634 173.801 290.627 174.113 290.787C174.332 291.043 174.522 291.468 174.522 291.756C174.344 291.79 174.232 291.691 174.073 291.759C173.914 291.827 173.837 291.99 173.566 292.106C173.296 292.221 173.21 292.11 173.033 292.185C172.824 292.275 172.875 292.502 172.977 292.74C173.43 293.801 175.05 294.837 176.109 294.384C177.169 293.932 177.541 292.046 177.088 290.985C176.986 290.747 176.849 290.565 176.618 290.63C176.534 290.789 176.392 290.911 176.222 290.972C175.951 291.087 175.83 291.009 175.67 291.077C175.478 291.159 175.667 291.548 175.447 291.668C175.143 291.375 174.939 290.919 174.89 290.455C174.991 290.119 175.28 289.827 175.677 289.658C175.878 289.567 176.095 289.52 176.315 289.519C176.39 289.52 176.398 289.476 176.359 289.429C175.848 288.825 174.803 288.634 173.831 289.049ZM176.029 289.911C175.796 290.01 175.553 290.197 175.461 290.458C175.466 290.524 175.495 290.586 175.544 290.632C175.906 290.31 176.277 290.145 176.541 290.265C176.568 290.219 176.583 290.167 176.587 290.114C176.59 290.061 176.581 290.008 176.56 289.96C176.501 289.821 176.318 289.787 176.029 289.91L176.029 289.911ZM172.835 291.848C172.953 291.561 173.387 291.386 173.902 291.356C173.829 291.131 173.33 291.063 172.933 291.233C172.644 291.356 172.541 291.512 172.6 291.651C172.621 291.699 172.653 291.742 172.694 291.776C172.735 291.81 172.783 291.835 172.835 291.847L172.835 291.848ZM178.003 285.394C177.299 285.741 176.719 286.295 176.346 286.979C176.304 286.273 176.354 285.564 176.494 284.868C175.561 285.386 174.893 286.086 174.552 286.939L173.573 285.94L174.227 284.601L172.798 285.097L171.705 284.07L171.691 285.57L170.344 286.259L171.763 286.713L171.808 288.111C170.956 287.768 169.989 287.766 168.968 288.082C169.568 288.462 170.115 288.916 170.596 289.434C169.844 289.231 169.043 289.267 168.305 289.535C169.015 289.909 169.675 290.366 170.271 290.897C170.286 290.912 170.303 290.923 170.322 290.93C170.341 290.937 170.361 290.94 170.382 290.938C170.402 290.936 170.422 290.93 170.44 290.92C170.457 290.909 170.473 290.895 170.485 290.879C171.345 289.889 172.423 289.105 173.634 288.588C174.845 288.071 176.157 287.835 177.467 287.897C177.487 287.9 177.507 287.899 177.527 287.893C177.547 287.887 177.565 287.877 177.58 287.864C177.595 287.85 177.608 287.834 177.616 287.815C177.624 287.797 177.628 287.777 177.627 287.756C177.655 286.958 177.782 286.165 178.003 285.394V285.394ZM181.615 289.21C182.903 288.055 184.517 289.098 185.533 288.26C183.906 287.57 182.42 286.627 181.885 285.04C181.881 285.02 181.871 285.001 181.855 284.987C181.84 284.973 181.82 284.964 181.799 284.962C181.778 284.959 181.756 284.963 181.737 284.974C181.719 284.984 181.704 285 181.694 285.019C181.287 285.653 181.16 286.47 181.346 287.25C180.334 287.089 179.37 287.416 178.731 288.054C179.759 288.261 180.736 288.653 181.615 289.21V289.21Z" fill="#006241"/>
</g>
</g>
</g>
<path id="Vector_180" d="M194.62 322.293C192.681 325.796 149.783 406.3 121.482 423.178C113.232 428.099 104.408 422.245 97.4235 415.521L49.4699 364.652L81.3498 321.025C81.7702 321.392 113.686 351.676 123.879 368.539C127.231 374.085 129.912 372.814 133.932 368.425L164.738 334.585C164.738 334.585 162.795 328.058 162.915 325.344C163.146 320.184 164.5 312 164.5 312L167 316L168.455 322.626C168.353 324.477 166.24 324.409 169.371 323.901L189.233 298.131C189.233 298.131 193.705 297.824 192.322 300.75C190.941 303.675 186.457 309.427 186.793 309.52C187.128 309.613 192.86 299.232 195.383 301.233C196.83 302.38 189.517 312.339 189.796 312.448C190.074 312.558 195.795 301.31 197.47 303.75C198.454 305.182 193.184 313.052 193.141 313.759C193.096 314.467 199.426 307.161 200.356 307.011C201.312 306.856 198.722 314.881 194.62 322.293Z" fill="#FFBE9D"/>
<path id="Vector_181" d="M67.0912 288.866C67.0912 288.866 40.3681 268.576 21.7963 288.874C3.22456 309.173 35.4967 363.97 49.2092 377.699C60.5041 389.007 83.3393 411.155 100.565 425.182C112.594 434.978 136.45 426.442 144.274 413.044L183.731 362.898L154.708 330.737L126.922 364.783L67.0912 288.866Z" fill="#C44165"/>
</g>
</g>
<defs>
<filter id="filter0_d" x="227.712" y="2.74481" width="167.33" height="170.193" filterUnits="userSpaceOnUse" color-interpolation-filters="sRGB">
<feFlood flood-opacity="0" result="BackgroundImageFix"/>
<feColorMatrix in="SourceAlpha" type="matrix" values="0 0 0 0 0 0 0 0 0 0 0 0 0 0 0 0 0 0 127 0"/>
<feOffset dy="4"/>
<feGaussianBlur stdDeviation="20"/>
<feColorMatrix type="matrix" values="0 0 0 0 0.976471 0 0 0 0 0.8 0 0 0 0 0.521569 0 0 0 1 0"/>
<feBlend mode="normal" in2="BackgroundImageFix" result="effect1_dropShadow"/>
<feBlend mode="normal" in="SourceGraphic" in2="effect1_dropShadow" result="shape"/>
</filter>
<filter id="filter1_d" x="238.841" y="20.0403" width="141.328" height="136.81" filterUnits="userSpaceOnUse" color-interpolation-filters="sRGB">
<feFlood flood-opacity="0" result="BackgroundImageFix"/>
<feColorMatrix in="SourceAlpha" type="matrix" values="0 0 0 0 0 0 0 0 0 0 0 0 0 0 0 0 0 0 127 0"/>
<feOffset/>
<feGaussianBlur stdDeviation="15"/>
<feColorMatrix type="matrix" values="0 0 0 0 1 0 0 0 0 0.739763 0 0 0 0 0.329167 0 0 0 0.7 0"/>
<feBlend mode="normal" in2="BackgroundImageFix" result="effect1_dropShadow"/>
<feBlend mode="normal" in="SourceGraphic" in2="effect1_dropShadow" result="shape"/>
</filter>
</defs>
</svg>
